<svg width="17" height="21" viewBox="13 9 17 21" xmlns="http://www.w3.org/2000/svg" xmlns:xlink="http://www.w3.org/1999/xlink"><defs><path id="a" d="M14.93 17.197H0V0h14.93z"/></defs><g fill="none" fill-rule="evenodd" transform="translate(13.656 10.45)"><mask id="b" fill="#fff"><use xlink:href="#a"/></mask><path d="M.383.094A.714.714 0 0 0 0 .719v15.76c0 .396.34.718.758.718s.757-.322.757-.718V1.98l11.219 6.33-8.25 5.038a.696.696 0 0 0-.226.993.782.782 0 0 0 1.047.214l9.278-5.666a.709.709 0 0 0 .347-.616.711.711 0 0 0-.37-.604L1.145.1A.794.794 0 0 0 .383.095" fill="#FFF" mask="url(#b)"/></g></svg>