<svg width="141" height="23" viewBox="650 49 141 23" xmlns="http://www.w3.org/2000/svg"><g fill="none" fill-rule="evenodd"><path d="M790.2 70.48h-31.12c-4.522 0-7.927-1.896-7.927-6.602v-7.484c0-4.824 2.787-6.94 8.094-6.94H790.2v2.923h-30.888c-2.877 0-5.047.916-5.047 4.08v7.212c0 2.47 1.79 3.89 4.73 3.89H790.2v2.92zm-47.47-16.854v16.84h-3.195v-14.97zm-45.742 0v16.84h3.196v-14.97zm0-4.192h2.86l20.017 12.216 20.522-12.216h2.333l-.01 1.745-20.964 12.54c-1.32.79-4.843-.34-4.843-.34l-19.915-11.95v-2zm-8.3 7.56c0 3.192-2.74 4.793-5.907 4.793H653.2v8.684H650V58.91h32.927c1.76 0 2.667-.668 2.65-2.333l-.022-1.977c-.018-1.758-.826-2.187-2.628-2.187H650v-2.975h33.263c2.965 0 5.425 1.184 5.425 4.195v3.362z" fill="#000"/><path d="M742.73 51.18v-1.746h-2.342l-23.485 13.95.537.317a4.174 4.174 0 0 0 4.316.02l.585-.35 20.39-12.19z" fill="#EC1C24"/></g></svg>