<?xml version="1.0" encoding="utf-8"?>
<!-- Generator: Adobe Illustrator 20.1.0, SVG Export Plug-In . SVG Version: 6.00 Build 0)  -->
<svg version="1.2" baseProfile="tiny" id="Layer_1" xmlns="http://www.w3.org/2000/svg" xmlns:xlink="http://www.w3.org/1999/xlink"
	 x="0px" y="0px" viewBox="0 0 98.1 40" xml:space="preserve">
<path fill="#FFFFFF" d="M85.9,22.6c4.5-1.5,7.8-5.8,7.8-10.9c0-6-4.9-10.9-10.8-10.9h-5.4v7.7h5.4c2,0,3.5,1.7,3.5,3.5
	s-1.7,3.5-3.5,3.5h-5.4v6.8l10.9,16.3h9.1L85.9,22.6L85.9,22.6z M47.2,23.9h18.6v-7.7H47.2V23.9z M67.7,38.9h7.7V0.7h-7.7V38.9z
	 M0.6,38.9h7.7V0.7H0.6V38.9z M24,18.4c1.5-1.8,2.5-4.3,2.5-6.8c0-6-4.9-10.9-10.9-10.9h-5.4v7.7h5.4c2,0,3.5,1.7,3.5,3.5
	s-1.7,3.5-3.5,3.5h-5.4v7.7h7.1c2.2,0,3.8,1.7,3.8,3.8s-1.7,3.8-3.8,3.8h-7.1v7.7h7.5c6.3,0,11.2-5.2,11.2-11.5
	C28.8,23.8,26.9,20.4,24,18.4 M49.5,31.8c-6.6,0-12-5.2-12-12c0-6.6,5.2-12,12-12c2.8,0,5.4,1.1,7.7,2.9l0.2,0.2L63.2,6l-0.3-0.3
	C59.4,2.2,54.6,0,49.5,0C38.8-0.1,29.8,8.7,29.8,19.6s8.8,19.7,19.7,19.7c5.5,0,11.1-2.5,14.5-6.8l-5.8-4.8
	C55.9,30.4,52.8,31.8,49.5,31.8"/>
</svg>
