<?xml version="1.0" encoding="utf-8"?>
<!-- Generator: Adobe Illustrator 20.1.0, SVG Export Plug-In . SVG Version: 6.00 Build 0)  -->
<svg version="1.2" baseProfile="tiny" id="Layer_1" xmlns="http://www.w3.org/2000/svg" xmlns:xlink="http://www.w3.org/1999/xlink"
	 x="0px" y="0px" viewBox="0 0 306.2 40" xml:space="preserve">
<path fill="#FFFFFF" d="M305.9,32.4c0,0.6,0,1.5,0.3,2.4c0,0.9,0.3,1.8,0.3,2.1c0,0.6-0.3,1.5-0.6,2.1c-0.6,0.6-0.9,0.6-2.1,0.6
	h-0.6c-1.8-0.3-3.7-0.3-5.8-0.3h-16.2c-2.1,0-4.3,0-6.4,0.3h-0.9c-0.6,0-1.5-0.3-2.1-0.6c-0.6-0.3-0.6-0.9-0.6-1.8
	c0-0.6,0.3-0.9,0.6-1.5c0.6-0.6,0.6-0.6,1.5-0.6c0.3,0,0.6,0,1.5,0.3c0.6,0.3,0.9,0.3,1.5,0.3c1.2,0,2.1-0.3,2.4-0.6
	c0.6-0.6,0.6-1.5,0.6-3.1V7.6c0-0.9-0.3-2.1-0.6-2.4c-0.6-0.6-1.2-0.6-2.1-0.6c-0.6,0-0.9,0-1.8,0.3c-0.6,0-1.2,0.3-1.5,0.3
	c-0.6,0-0.9-0.3-1.5-0.6C271,4,271,4,271,3s0.3-1.2,0.6-1.5c0.6-0.6,0.9-0.6,1.8-0.6c0.6,0,1.8,0,3.7,0.3c1.8,0,3.4,0.3,4.6,0.3h15
	c2.1,0,4,0,5.8-0.3h0.6c0.6,0,1.5,0.3,2.1,0.6c0.6,0.6,0.6,1.2,0.6,2.1c0,0.6,0,1.2-0.3,2.1s-0.3,1.8-0.3,2.4c0,0.9,0,2.1,0.3,3.7
	c0,1.5,0.3,2.1,0.3,2.4c0,0.6-0.3,1.2-0.6,1.8c-0.6,0.6-0.6,0.6-1.5,0.6s-0.9-0.3-1.8-0.6c-0.6-0.6-0.6-0.9-0.6-1.8
	c0-0.3,0-0.9,0.3-2.1c0.3-0.9,0.3-2.1,0.3-2.4c0-2.1-0.6-3.4-0.9-4c-0.6-0.6-2.1-0.9-4.6-0.9h-8.6c-1.2,0-2.1,0.3-2.4,0.6
	s-1.2,2.1-1.2,4v6.1c0,0.6,0.3,1.5,0.6,1.8c0.3,0.3,0.9,0.6,2.1,0.6c2.4,0,4.3-0.3,4.9-0.6c0.6-0.3,0.9-1.5,0.9-3.1
	c0-0.3,0-0.6-0.3-1.5c0-0.6-0.3-1.2-0.3-1.8c0-0.6,0.3-0.9,0.6-1.8c0.6-0.6,0.6-0.6,1.5-0.6c0.6,0,0.9,0.3,1.5,0.6
	c0.3,0.6,0.6,1.5,0.6,2.4c0,0.6,0,1.2-0.3,3.1c0,1.5-0.3,2.8-0.3,4c0,0.9,0,2.1,0.3,4c0,1.5,0.3,2.4,0.3,3.1c0,0.9-0.3,2.1-0.6,2.4
	c-0.3,0.6-0.6,0.6-1.2,0.6c-0.6,0-0.9-0.3-1.5-0.6c-0.6-0.3-0.6-0.3-0.6-0.9c0-0.6,0-0.9,0.3-1.5c0-0.6,0.3-0.6,0.3-0.9
	c0-2.1-0.3-3.4-0.9-3.7c-0.6-0.6-2.1-0.6-5.2-0.6c-0.6,0-1.5,0.3-1.8,0.6c-0.6,0.3-0.6,0.6-0.6,1.8v9.2c0,1.8,0.3,3.1,0.6,3.4
	c0.6,0.6,1.2,0.6,2.4,0.6h9.2c2.1,0,3.7-0.6,4.6-0.9c0.6-0.6,0.9-2.1,0.9-4c0-0.6,0-1.5-0.3-2.4c0-0.9-0.3-1.8-0.3-2.1
	c0-0.6,0.3-1.2,0.6-1.8c0.6-0.6,0.9-0.6,1.8-0.6c0.6,0,0.9,0.3,1.5,0.6c0.6,0.3,0.6,0.9,0.6,1.8c0,0.3,0,0.9-0.3,2.4
	C305.9,30,305.9,31.2,305.9,32.4 M268.5,4.6c-0.6,0.6-0.6,0.6-1.5,0.6c-0.3,0-0.6,0-1.5-0.3c-0.6,0-0.9-0.3-1.5-0.3
	c-0.9,0-1.8,0.3-2.1,0.6c-0.6,0.6-0.6,1.2-0.6,2.4v26.6c0,2.1-0.6,3.4-0.9,4c-0.6,0.6-1.8,1.2-3.4,1.2c-0.9,0-1.8-0.3-2.1-0.6
	c-0.6-0.6-1.2-1.2-2.1-3.1L236.7,5.5c0,1.2,0,2.4,0.3,3.7v23.3c0,1.2,0.3,2.1,0.6,2.4c0.6,0.6,1.2,0.6,2.4,0.6c0.3,0,0.6,0,1.5-0.3
	s0.9-0.3,1.5-0.3c0.6,0,0.9,0.3,1.5,0.6c0.6,0.6,0.6,0.6,0.6,1.5c0,0.6-0.3,1.2-0.6,1.8c-0.6,0.6-1.2,0.6-2.1,0.6
	c-0.3,0-1.5,0-3.4-0.3c-1.8,0-3.7-0.3-4.9-0.3c-1.2,0-3.1,0-4.6,0.3c-1.5,0.3-2.4,0.3-2.8,0.3c-0.6,0-1.5-0.3-2.1-0.6
	c-0.6-0.6-0.6-0.9-0.6-1.8c0-0.6,0.3-0.9,0.6-1.5c0.6-0.6,0.6-0.6,1.5-0.6c0.3,0,0.6,0,1.5,0.3c0.6,0,0.9,0.3,1.5,0.3
	c0.9,0,1.8-0.3,2.1-0.6c0.6-0.6,0.6-1.2,0.6-2.4V8.2c0-1.2-0.3-2.1-0.6-2.8c-0.6-0.6-1.2-0.6-2.1-0.6c-0.3,0-0.6,0-1.2,0.3
	c-0.6,0-0.9,0.3-1.5,0.3s-0.9-0.3-1.5-0.6c-0.6-0.6-0.6-0.6-0.6-1.5s0.3-0.9,0.6-1.5c0.6-0.6,1.2-0.6,2.1-0.6c0.6,0,1.5,0,2.8,0.3
	c1.5,0,2.4,0.3,3.7,0.3c0.6,0,1.2,0,2.1-0.3c0.6,0,1.5-0.3,1.8-0.3c0.6,0,1.5,0.3,2.1,0.6c0.6,0.6,1.2,1.5,2.1,3.1l15.6,30.6v-1.2
	c-0.3-2.4-0.3-4.6-0.3-5.8V8.6c0-1.2-0.3-2.1-0.6-2.4c-0.6-0.3-1.2-0.6-2.4-0.6c-0.6,0-0.6,0-1.5,0.3c-0.6,0-0.9,0.3-1.5,0.3
	s-0.9-0.3-1.8-0.6C248,4.6,248,4.3,248,3.7s0.3-0.9,0.6-1.5c0.6-0.6,1.2-0.6,2.1-0.6c0.6,0,1.8,0,3.7,0.3c2.1,0,3.7,0.3,4.9,0.3
	s2.8,0,4.3-0.3c1.5,0,2.1-0.3,2.4-0.3c0.9,0,1.8,0.3,2.1,0.6c0.6,0.6,0.6,0.6,0.6,1.8C269.1,3.7,269.1,4.3,268.5,4.6 M218.9,5.2
	c-0.3,0-0.6,0-1.5-0.3c-0.6,0-1.5-0.3-2.1-0.3c-0.9,0-1.8,0.3-2.1,0.6c-0.3,0.3-0.6,1.5-0.6,2.8v24.8c0,0.9,0.3,2.1,0.6,2.4
	c0.6,0.6,0.9,0.6,2.1,0.6c0.6,0,0.9,0,2.1-0.3c0.6,0,1.2-0.3,1.5-0.3c0.6,0,0.9,0.3,1.8,0.6c0.6,0.6,0.6,0.6,0.6,1.5
	c0,0.6-0.3,1.2-0.6,1.8c-0.6,0.6-0.9,0.6-1.8,0.6c0,0-0.9,0-3.1-0.3c-2.1,0-3.7-0.3-5.5-0.3c-2.1,0-4,0-5.8,0.3
	c-2.1,0-3.1,0.3-3.1,0.3c-0.6,0-1.5-0.3-1.8-0.6c-0.6-0.6-0.6-0.6-0.6-1.8c0-0.6,0.3-0.9,0.6-1.5c0.6-0.6,0.6-0.6,1.5-0.6
	c0.3,0,0.6,0,1.5,0.3c0.6,0,1.5,0.3,2.1,0.3c0.9,0,1.8-0.3,2.1-0.6c0.6-0.6,0.6-1.5,0.6-2.4V7.9c0-0.9-0.3-2.1-0.6-2.4
	c-0.6-0.6-0.9-0.6-2.1-0.6c-0.6,0-0.9,0-2.1,0.3c-0.6,0-1.2,0.3-1.5,0.3c-0.6,0-0.9-0.3-1.5-0.6C199,4.3,199,4,199,3
	s0.3-1.2,0.6-1.5c0.6-0.6,0.9-0.6,1.8-0.6c0,0,0.9,0,3.1,0.3l5.8,0.3c1.8,0,3.7,0,5.5-0.3c2.1-0.3,3.1-0.3,3.1-0.3
	c0.6,0,1.5,0.3,1.8,0.6c0.6,0.6,0.6,0.6,0.6,1.5c0,0.6-0.3,0.9-0.6,1.5C220.2,4.9,219.5,5.2,218.9,5.2 M196,32.4
	c0,0.6,0,1.5,0.3,2.4c0,0.9,0.3,1.8,0.3,2.1c0,0.9-0.3,1.8-0.6,2.1c-0.6,0.3-0.9,0.6-2.1,0.6h-0.6c-1.8-0.3-3.7-0.3-5.5-0.3h-13.8
	c-2.1,0-4.6,0-7,0.3h-0.6c-0.6,0-1.5-0.3-2.1-0.6c-0.6-0.6-0.6-0.9-0.6-1.8c0-0.6,0.3-0.9,0.6-1.5c0.6-0.6,0.6-0.6,1.5-0.6
	c0.3,0,0.6,0,1.5,0.3c0.6,0,1.2,0.3,1.8,0.3c0.9,0,2.1-0.3,2.1-0.6c0.6-0.6,0.6-1.2,0.6-2.4V7.9c0-0.9-0.3-2.1-0.6-2.4
	c-0.6-0.6-0.9-0.6-2.1-0.6c-0.6,0-0.9,0-2.1,0.3c-0.6,0-1.2,0.3-1.5,0.3c-0.6,0-0.9-0.3-1.5-0.6c-0.6-0.3-0.6-0.6-0.6-1.5
	s0.3-1.2,0.6-1.8c0.6-0.6,0.9-0.6,1.8-0.6c0.3,0,1.2,0,3.1,0.3c1.8,0,3.4,0.3,4.6,0.3s3.1,0,4.9-0.3c2.1,0,3.4-0.3,3.7-0.3
	c0.9,0,1.8,0.3,2.1,0.6c0.6,0.6,0.6,0.6,0.6,1.5c0,0.6-0.3,0.9-0.6,1.5c-0.6,0.6-0.9,0.6-1.5,0.6c-0.3,0-0.6,0-1.5-0.3
	c-0.6,0-0.9-0.3-1.5-0.3c-1.2,0-2.1,0.3-2.4,0.6c-0.6,0.6-0.6,1.2-0.6,2.4v23.9c0,1.8,0.3,2.8,0.6,3.4c0.6,0.6,1.2,0.6,2.4,0.6h6.7
	c2.1,0,3.7-0.6,4.6-0.9c0.6-0.6,0.9-2.1,0.9-4c0-0.6,0-1.5-0.3-2.4c0-0.9-0.3-1.8-0.3-2.1c0-0.6,0.3-1.2,0.6-1.8
	c0.6-0.6,0.9-0.6,1.8-0.6c0.6,0,0.9,0.3,1.5,0.6c0.6,0.3,0.6,0.9,0.6,1.8c0,0.3,0,0.9-0.3,2.4C196.3,30,196,31.2,196,32.4
	 M154.3,8.2c-2.4-2.1-6.4-3.7-11.9-3.7c-2.1,0-3.7,0.3-4,0.6c-0.6,0.6-0.6,1.8-0.6,4v22.4c0,2.1,0.6,3.7,0.9,4
	c0.6,0.6,2.4,0.6,5.2,0.6c4.9,0,8.3-1.2,10.7-4c2.1-2.8,3.7-6.7,3.7-11.9C158,14.7,156.8,10.7,154.3,8.2 M158,34.9
	c-3.4,3.7-7.7,4.9-13.5,4.9c-1.2,0-3.1,0-5.2-0.3c-2.1,0-3.7-0.3-4.6-0.3s-2.8,0-4.6,0.3c-1.8,0-3.1,0.3-3.7,0.3s-1.5-0.3-2.1-0.6
	c-0.6-0.3-0.6-0.6-0.6-1.5c0-0.6,0.3-0.9,0.6-1.5c0.6-0.6,0.9-0.6,1.8-0.6c0.3,0,0.6,0,1.5,0.3h1.8c0.9,0,2.1-0.3,2.1-0.6
	c0.6-0.6,0.6-1.5,0.6-2.8V7.9c0-1.2-0.3-2.1-0.6-2.4s-1.2-0.6-2.4-0.6c-0.6,0-0.6,0-1.8,0.3c-0.6,0-0.9,0.3-1.5,0.3
	c-0.6,0-0.9-0.3-1.5-0.6c-0.6-0.6-0.6-0.6-0.6-1.5s0.3-1.2,0.6-1.8c0.6-0.6,0.9-0.6,1.8-0.6h7.3c1.5,0,3.4,0,5.8-0.3
	c2.1,0,4-0.3,4.9-0.3c6.1,0,10.7,1.8,13.8,4.9c3.1,3.4,4.6,8,4.6,14.4C163.2,26.6,161.4,31.2,158,34.9 M104.7,21.1
	c0-0.3,0-0.6-0.3-0.6L99.8,6.1l-4.9,14.4c0,0.6-0.3,0.6-0.3,0.6v0.6c0,0.3,0,0.6,0.3,0.6h8.3c0.6,0,0.6,0,0.9-0.3
	C104.4,21.7,104.4,21.7,104.7,21.1C104.7,21.4,104.7,21.4,104.7,21.1 M121.6,39.5c-0.6,0.6-0.9,0.6-1.8,0.6h-1.5
	c-3.1-0.3-5.8-0.3-8.3-0.3c-0.9,0-2.1,0-3.7,0.3c-1.2,0-2.1,0.3-2.1,0.3c-0.6,0-1.2-0.3-1.8-0.6c-0.6-0.6-0.6-0.6-0.6-1.8
	c0-0.6,0.3-0.9,0.6-1.5c0.6-0.6,0.9-0.6,1.8-0.6c0.3,0,0.6,0,1.2,0.3c0.6,0,0.9,0.3,1.5,0.3c0.6,0,0.6-0.3,0.9-0.6
	c0.3-0.6,0.6-0.6,0.6-1.2v-0.9c0-0.3,0-0.6-0.3-0.9l-1.5-4.6c-0.3-0.6-0.6-0.9-0.6-1.2c-0.6-0.3-0.6-0.6-0.9-0.6H93.7
	c-0.6,0-0.6,0-0.9,0.6c-0.3,0-0.6,0.6-0.9,1.2l-1.5,4.6L90,34v1.2c0,0.6,0.3,0.6,0.6,0.9c0.6,0.3,0.6,0.6,1.2,0.6s0.9,0,1.8-0.3
	c0.6,0,0.9-0.3,1.2-0.3c0.6,0,1.5,0.3,1.8,0.6c0.6,0.6,0.6,0.6,0.6,1.5c0,0.6-0.3,1.2-0.6,1.8c-0.3,0.3-0.9,0.3-1.5,0.3
	c-0.3,0-0.9,0-2.1-0.3l-3.7-0.3c-2.1,0-4.3,0-6.4,0.3h-3.1c-0.6,0-1.2-0.3-1.8-0.6c-0.6-0.6-0.6-0.6-0.6-1.5c0-0.6,0.3-0.9,0.6-1.5
	c0.6-0.6,0.6-0.6,1.2-0.6c0.3,0,0.6,0,0.9,0.3c0.6,0.3,0.6,0.3,0.6,0.3c1.2,0,2.1-0.3,3.1-0.6c0.6-0.6,0.9-1.5,1.8-3.1L96.5,4.9
	c0.6-1.5,0.9-2.1,1.8-3.1c0.6-0.6,1.2-0.6,2.1-0.6c0.9,0,2.1,0.3,2.4,0.6c0.6,0.6,0.9,1.5,1.8,3.1l10.1,27.6
	c0.6,1.5,0.9,2.1,1.8,3.1c0.6,0.6,1.5,0.6,2.4,0.6c0,0,0.3,0,0.6-0.3c0.3-0.3,0.6-0.3,0.6-0.3c0.9,0,2.1,0.3,2.1,0.6
	c0.6,0.3,0.6,0.6,0.6,1.8C122.2,38.6,122.2,39.2,121.6,39.5 M74.7,32.4c0,0.6,0,1.5,0.3,2.4c0,0.9,0.3,1.8,0.3,2.1
	c0,0.6-0.3,1.5-0.6,2.1c-0.6,0.6-0.9,0.6-2.1,0.6H72c-1.8-0.3-3.7-0.3-5.8-0.3H49.9c-2.1,0-4.3,0-6.4,0.3h-0.9
	c-0.6,0-1.5-0.3-2.1-0.6c-0.6-0.6-0.6-0.9-0.6-1.8c0-0.6,0.3-0.9,0.6-1.5c0.6-0.6,0.6-0.6,1.5-0.6c0.3,0,0.6,0,1.5,0.3
	c0.6,0,0.9,0.3,1.5,0.3c1.2,0,2.1-0.3,2.4-0.6c0.6-0.6,0.6-1.5,0.6-3.1V7.6c0-0.9-0.3-2.1-0.6-2.4c-0.6-0.6-1.2-0.6-2.1-0.6
	c-0.6,0-0.9,0-1.8,0.3c-0.6,0-1.2,0.3-1.5,0.3c-0.6,0-0.9-0.3-1.5-0.6C39.8,4,39.8,4,39.8,3s0.3-1.2,0.6-1.5
	c0.6-0.6,0.9-0.6,1.8-0.6c0.6,0,1.8,0,3.7,0.3c1.8,0,3.4,0.3,4.6,0.3h15c2.1,0,4,0,5.8-0.3H72c0.6,0,1.5,0.3,2.1,0.6S74.7,3,74.7,4
	c0,0.6,0,1.2-0.3,2.1c0,0.9-0.3,1.8-0.3,2.4c0,0.9,0,2.1,0.3,3.7c0,1.5,0.3,2.1,0.3,2.4c0,0.6-0.3,1.2-0.6,1.8
	c-0.6,0.6-0.6,0.6-1.5,0.6c-0.6,0-0.9-0.3-1.8-0.6c-0.6-0.6-0.6-0.9-0.6-1.8c0-0.3,0-0.9,0.3-2.1c0-0.3,0-1.2,0-1.8
	c0-2.1-0.6-3.4-0.9-4c-0.6-0.6-2.1-0.9-4.6-0.9h-8.6c-1.2,0-2.1,0.3-2.4,0.6c-0.6,0.6-0.6,1.5-0.6,3.4v6.1c0,0.6,0.3,1.5,0.6,1.8
	c0.6,0.3,0.9,0.6,2.1,0.6c2.4,0,4.3-0.3,4.9-0.6c0.6-0.3,0.9-1.5,0.9-3.1c0-0.3,0-0.6-0.3-1.5c0-0.6-0.3-1.2-0.3-1.8
	c0-0.6,0.3-0.9,0.6-1.8c0.6-0.6,0.6-0.6,1.5-0.6s0.9,0.3,1.5,0.6c0.3,0.6,0.6,1.5,0.6,2.4c0,0.6,0,1.2-0.3,3.1c0,1.5-0.3,2.8-0.3,4
	c0,0.9,0,2.1,0.3,4c0,1.5,0.3,2.4,0.3,3.1c0,0.9-0.3,2.1-0.6,2.4c-0.3,0.6-0.6,0.6-1.2,0.6c-0.6,0-0.9-0.3-1.5-0.6
	c-0.6-0.3-0.6-0.3-0.6-0.9c0-0.6,0-0.9,0.3-1.5c0-0.6,0.3-0.6,0.3-0.9c0-2.1-0.3-3.4-0.9-3.7c-0.6-0.6-2.1-0.6-5.2-0.6
	c-0.6,0-1.5,0.3-1.8,0.6c-0.6,0.3-0.6,0.6-0.6,1.8v9.2c0,1.8,0.3,3.1,0.6,3.4c0.6,0.6,1.2,0.6,2.4,0.6h9.2c2.1,0,3.7-0.6,4.6-0.9
	c0.6-0.6,0.9-2.1,0.9-4c0-0.6,0-1.5-0.3-2.4c0-0.9-0.3-1.8-0.3-2.1c0-0.6,0.3-1.2,0.6-1.8c0.6-0.6,0.9-0.6,1.8-0.6
	c0.6,0,0.9,0.3,1.5,0.6c0.6,0.6,0.6,0.9,0.6,1.8c0,0.3,0,0.9-0.3,2.4C74.7,30,74.7,31.2,74.7,32.4 M30.3,8.2
	c-2.1-2.4-6.1-3.7-11.9-3.7c-2.1,0-3.7,0.3-4,0.6c-0.6,0.6-0.9,1.8-0.9,4.3v22.4c0,2.1,0.6,3.7,0.9,4c0.6,0.6,2.4,0.6,5.2,0.6
	c4.9,0,8.3-1.2,10.7-4c2.1-2.8,3.7-6.7,3.7-11.9C34,14.7,33.1,10.7,30.3,8.2 M34.3,34.9c-3.4,3.7-7.7,4.9-13.5,4.9
	c-1.2,0-3.4,0-5.2-0.3c-2.1,0-3.7-0.3-4.6-0.3s-2.8,0-4.6,0.3c-1.8,0-3.1,0.3-3.7,0.3s-1.5-0.3-2.1-0.6C0,38.9,0,38.6,0,37.9
	c0-0.6,0.3-0.9,0.6-1.5c0.6-0.6,0.9-0.6,1.8-0.6c0.3,0,0.6,0,1.5,0.3c0.6,0,1.2,0.3,1.8,0.3c0.9,0,2.1-0.3,2.1-0.6
	c0.6-0.6,0.6-1.5,0.6-2.8V8.6c0-1.2-0.3-2.1-0.6-2.4S6.4,5.2,5.2,5.2c-0.6,0-0.6,0-1.8,0.3c-0.6,0-0.9,0.3-1.5,0.3S0.9,5.5,0.3,5.2
	C0,4.6,0,4.3,0,3.7s0.3-1.2,0.6-1.8c0.6-0.6,0.9-0.6,1.8-0.6h7.3c1.5,0,3.4,0,5.8-0.3c2.1,0,4-0.3,4.9-0.3c6.1,0,10.7,1.8,13.8,4.9
	c3.1,3.4,4.6,8,4.6,14.4C39.2,26.6,37.4,31.2,34.3,34.9"/>
</svg>
