<?xml version="1.0" encoding="utf-8"?>
<!-- Generator: Adobe Illustrator 20.1.0, SVG Export Plug-In . SVG Version: 6.00 Build 0)  -->
<svg version="1.2" baseProfile="tiny" id="Layer_1" xmlns="http://www.w3.org/2000/svg" xmlns:xlink="http://www.w3.org/1999/xlink"
	 x="0px" y="0px" viewBox="0 0 100.4 40.5" xml:space="preserve">
<path fill="#FFFFFF" d="M16.2,18.9c-0.1-1.5-0.5-3.7-2.2-4.1c0.1-0.5,1.2-0.1,0.9-0.7c-0.2-0.3-1-0.4-1.2-0.5
	c-0.5,0-0.9,0.2-1.2,0.6c-0.6,0.7-1.5,1.6-1.7,2.6c0,0.1-0.3,1.8,0.2,1.4c0.1,0.2,0.3,0,0.3-0.2c0.1,0,0.2,2.4,0.2,2.6
	c0.1,1.2,0.2,2.5,0.6,3.7c0.3,0.9,0.8,1.1,1.6,1c0.7-0.1,1.4-0.3,1.8-0.8c1.2-1.2,1.1-3.7,1.1-5.4C16.2,19,16.2,18.9,16.2,18.9
	L16.2,18.9z M14.5,20.2c0,0.6-0.1,1.2-0.2,1.7c-0.1,0.5-0.1,1.2-0.4,1.5c-0.3-0.7-0.4-1.4-0.4-2.1l-0.1,0.3
	c-0.1-0.8-0.2-1.4-0.2-2.1c0-0.9-0.3-2.7,0.3-3.5c1,0.8,1,2.8,1,3.9L14.5,20.2L14.5,20.2z M20,26.1c0,0.1,0.1,0.4,0.3,0.4L20,22.8
	v-2.5c0-1.1-0.1-2.1-0.2-3.2v-1.4c0-0.3,0.1-1.2,0-1.3l0.1,0.5c0.1-0.6,0-1.2,0-1.9v-2.4c-0.1-1.6-0.1-3.3-0.1-4.9
	c0-0.5,0.1-1.2-0.4-1.4c-0.4-0.3-1.1-0.3-1.4-0.4c-1.4-0.2-1.1,1.6-1.1,2.6c0,2.3,0.2,4.6,0.3,6.8c0.1,3.2,0.3,6.3,0.6,9.5
	c0.2,1.6,0.4,3.2,0.8,4.7c0.2,0.5,0.4,1.5,1,1.6c0.3,0,1.1-0.3,1-0.7C20.4,28.3,20,26.6,20,26.1L20,26.1z M98.6,19.2
	c-0.8,0.8-1.4,1.6-2.3,2.4c-0.8,0.6-1.7,1.4-2.7,1.2c-1.1-0.2-1.7-1.2-2.1-2c-0.8-1.8-0.9-4.1-0.8-6.1c0-0.4,0-1.2,0.4-1.3
	c0.3-0.1,0.9,0.4,1.2,0.6l1.4,0.6c0.8,0.3,2,0.6,2.8,0.3c0.7-0.3,0.6-1,0.5-1.5c-0.3-1.6-1.4-3.1-3-3.7c-0.9-0.4-1.8-0.4-2.7-0.1
	c-0.4,0.2-0.9,0.4-1.2,0.7c-0.3,0.2-0.5,0.8-0.9,0.9c-0.5,0.2-1.2-0.5-1.5-0.8c-0.5-0.3-0.9-0.5-1.3-0.7C86,9.5,85.2,9.3,85,8.9
	c-0.2-0.5,0-1.2,0-1.7l0.2-1.9C85.3,4.2,85.5,2.9,86,2c0.6-1.1,1.7,0.5,2.2,1.1c0.4,0.4,0.8,0.9,1.1,1.3c0.2,0.3,0.3,1,0.6,1.2V5.6
	c0.3,0.1,0,0.5,0.2,0.6V6.1c0,0.5,0.1,1.1,0,1.5c0,0.2-0.1,0.6,0.1,0.7c0.5,0.4,1.5-0.2,1.7-0.6c0.3-0.6,0.1-1.6-0.1-2.2
	c-0.3-1-1-1.9-1.6-2.7c-1.2-1.3-3.6-3.1-5.5-2.7c-0.9,0.2-1.2,1.1-1.4,1.7c-0.3,1.1-0.5,2.2-0.7,3.4l-0.2,1.9c0,0.2,0,0.8-0.2,0.9
	c-0.3,0.2-1.2-0.3-1.4-0.4c-0.6-0.2-1.1-0.3-1.6-0.4c-0.5-0.1-1.9-0.5-2.3-0.1c-0.2,0.2-0.1,0.7,0.1,0.9c0.2,0.2,0.8,0.1,1,0.1
	c0.9,0.1,1.8,0.3,2.7,0.6c0.5,0.2,1.1,0.3,1.5,0.6c0.4,0.3,0.3,0.5,0.3,1c-0.1,2.4,0,4.8,0.4,7.2c0.4,2.5,0.9,5.2,1.9,7.5
	c0.2,0.5,0.4,0.9,0.9,0.9c0.6,0,0.9-0.4,0.9-0.9c0-1.1-0.3-2.2-0.6-3.2c0.1,0.2,0.1,0.4,0.3,0.5c-0.2-1.2-0.8-2.6-0.9-3.7
	c0-0.6-0.2-1.4-0.3-2.1c-0.2-2,0-3.9-0.1-6c0.7,0.1,1.2,0.6,1.8,0.9l1.6,0.9c0.5,0.3,0.4,0.5,0.3,1.1l-0.2,1.3c-0.2,2.3,0,4.8,1,6.9
	c1.1,2.3,3.5,3,5.9,2.3c1.2-0.4,2.2-1.3,3-2.4c0.7-1,1.8-2.4,1.7-3.7C100.2,17.3,98.7,18.9,98.6,19.2L98.6,19.2z M91.3,12
	c0.3-0.6,0.9-1.6,1.6-1.6c1.2,0,1.7,1.4,2.1,2.3c0,0,0.4,0.8,0.1,1c-0.3,0.3-1.1-0.2-1.3-0.3S91.3,12.6,91.3,12L91.3,12L91.3,12z
	 M77.1,8.2c-0.1-0.2-0.6-0.6-0.8-0.7c-0.3-0.2-0.6-0.3-0.9-0.3c-0.6,0-1.3,0.1-1.2,0.9c0.2,0.8,1.3,0.7,1.9,0.6
	C76.7,8.7,77.4,8.8,77.1,8.2z M9.8,22.3c0.2,0.5,0.1-0.2,0.1-0.3l-0.1-1.2l-0.2-2c0.1,0.2,0.1,0.5,0.2,0.8c0.2-0.6,0-1.2-0.1-1.8
	c-0.1-0.8-0.1-1.4-0.1-2.2v-2.1c0-0.6,0.2-0.6,0.8-0.7c0.3-0.3,0.9-0.3,1.2-0.5c0-0.6-1.6,0-1.9-0.1c-0.4-0.1-0.2-0.4-0.2-0.8
	l0.1-2.3C9.7,7.8,9.8,6.4,9.8,5c0-0.5,0.1-1.1,0-1.5C9.7,2.9,9,2.9,8.5,2.7C7.3,2.3,7.1,3.3,7,4.2C6.9,5.1,6.8,6,6.8,6.8l0.1,3.7
	c0,0.5,0,1,0.1,1.4c0.1,0.6,0.1,0.8-0.6,1c-0.6,0.1-1.2,0.3-1.8,0.5c-0.6,0.2-0.7,0.4-0.8-0.2C3.6,12.1,3.6,11,3.6,9.8L3.3,5.2
	C3.2,4.1,2.7,3.6,1.7,3.4C0.4,3.2,0.2,3.7,0.3,4.8c0.1,1.4,0.2,2.9,0.3,4.4C0.7,10.9,0.8,12.4,1,14c0.1,0.6,0.2,0.8-0.2,1.2
	c-0.4,0.5-0.5,0.6,0,1.1c0.5,0.4,0.4,0.7,0.5,1.3c0.1,0.9,0.2,1.7,0.3,2.7c0.2,1.7,0.5,3.4,0.8,5c0.1,0.6,0.8,3.7,1.7,3.5
	c0.4-0.1,0.5-0.9,0.5-1.2c0-0.6-0.4-1.2-0.3-1.7c0,0.1,0.1,0.2,0.1,0.2c0.1,0,0.1,0,0.2,0.1c-0.1-0.6-0.5-1.2-0.4-1.8
	c0.1,0.3,0.1,0.8,0.3,1l-0.4-3.6L3.9,18v-1.9c0-0.4-0.1-1.1,0.1-1.3c0.2-0.3,0.9-0.5,1.2-0.6c0.6-0.2,1.2-0.5,1.7-0.5
	c-0.1,2.1,0.3,4.2,0.5,6.4c0.2,2.1,0.5,4.1,0.8,6.2l0.3,1.4c0.1,0.4,0.1,1,0.3,1.2c0.4,0.6,0.9-0.1,1.1-0.6c0.3-0.8,0-1.9,0-2.8
	C10,24.4,9.9,23.3,9.8,22.3L9.8,22.3z M24.1,25.9C24,23,23.9,20,24,17c0-1.5,0.2-2.6,0.1-4.2L24,10.7c0-0.7-0.2-1.4,0-2.1h0.1
	c0-0.9-0.1-1.8-0.2-2.7c0-0.5,0-1.2-0.3-1.6v0.2c-0.2-0.4-0.1-1-0.4-1.3c-0.2-0.4-0.7-0.5-1.1-0.6c-1.3-0.4-1.1,0.5-0.9,1.4
	c0.5,2.7,0.6,5.5,0.7,8.2c0.2,5.2,0.4,10.5,1.2,15.7c0.1,0.5,0.5,1.9,0.8,0.8C24.2,27.8,24.2,26.7,24.1,25.9
	C24.1,26,24.1,26,24.1,25.9L24.1,25.9z M60.5,21.9c-0.2-0.8-0.5-1.8-0.5-2.6c0,0,0.1-0.4,0.1-0.5c0-0.4-0.1-0.7-0.2-1.1
	c-0.1-0.9-0.1-1.7-0.1-2.6c0-1.9,0-3.7,0.3-5.6c0.2-1,0.3-1.9,0.4-3c0-0.4,0.1-0.8,0.1-1.1c0.1-0.5,0.3-0.9,0.4-1.2
	c0.2-0.7-0.6-1.1-1.1-1.2c-0.8-0.2-1.1,0.6-1.3,1.2C58,5.8,57.8,7.4,57.7,9c0,0.7,0.1,1.2-0.4,1.7c-0.6,0.5-1.1,0.9-1.3,1.6
	c-0.7,1.3-1,3-1.2,4.4c-0.2,1-1,4,0.5,4.4c1.9,0.6,2.4-1.7,2.9-2.9c0,1.4,0.5,3.3,1.1,4.7c0.2,0.6,0.6,1.2,1.1,1.5
	c0.5,0.4,1.1,0.3,1.1-0.4c0,0.2-0.1,0.6,0,0C61.3,23.5,60.7,22.6,60.5,21.9L60.5,21.9z M57.1,16.3c-0.1,0.4-0.6,2.9-0.9,2.9
	c-0.1-1.3,0.1-2.8,0.5-4.1c0.1-0.2,0.5-2.4,0.9-2.4c0,0.1,0.2,1.1,0.2,1.1C57.7,14.6,57.2,15.6,57.1,16.3z M74.8,17.3
	C74.7,17.3,74.7,17.4,74.8,17.3c0,0,0.1-0.4-0.1-0.2l0.1-0.2c-0.9,0.1-1.5,1-2.1,1.5c-0.7,0.7-1.4,1.4-2.3,1.9
	c-0.4,0.2-0.6,0.4-1.1,0.3c-0.4-0.1-0.3-0.4-0.5-0.6c-0.5-0.7-0.8-1.2-1-2c-0.4-2.1,0.2-4.4,0.5-6.4l0.5-3.2
	c0.1-0.6,0.2-1.1,0.4-1.6l0.2-0.7c0-0.1,0.2-0.8,0-0.5l0.4-1.2c-0.2,0.2-0.2,0.4-0.3,0.6c0.1-0.6,0.2-0.7,0.6-1
	c0.3-0.2,0.3,0,0.3-0.5c0-0.3,0-0.5-0.3-0.6c-0.6-0.6-2.4-0.4-2.9,0.2c-0.9,1.1-1.1,2.8-1.3,4l-0.6,3.1c-0.5,2.4-1.1,4.9-1,7.4
	c0.1,1.2,0.3,2.4,1.2,3.3c1,1,2.2,1.2,3.6,1.1c1.5-0.1,2.9-0.7,3.9-1.7l1.3-1.5C74.5,18.4,75,17.6,74.8,17.3L74.8,17.3z M31.4,12.9
	c0.1-0.1-0.6-0.7-1.1-0.5c-0.6,0.2-0.8,1.4-1,1.9c-0.6,1.6-0.9,3.4-1.2,5.1c-0.6-1.1-0.8-2.2-1.1-3.3c-0.3-0.9-0.7-1.8-1.7-1.8
	c-1.3-0.1-0.6,1.7-0.3,2.4c0.4,1.2,0.8,2.3,1.2,3.5c0.5,1.1,1.2,2.1,1.4,3.3c0.2,1.2-0.2,2.4-0.3,3.6c-0.2,2.4-0.3,4.9-0.4,7.3
	l-0.1,3.2c0,0.1,0,2.4,0.2,2.3c0-0.1,0.5-0.6,0.6-0.8c0.2-0.5,0.3-1.1,0.4-1.5c0.2-1.5,0.5-3.2,0.6-4.7c0.1-1.9,0.4-3.7,0.6-5.6
	l0.2-1.6l0.4-1.1c0.1-0.4,0-0.9,0-1.2c0-0.5,0.1-1,0.2-1.4c0.2,0,0.2-1,0.2-1.2c0.1-0.8,0.2-1.6,0.4-2.4l1-4.8
	C31.5,13.1,31.5,12.8,31.4,12.9L31.4,12.9z M40.5,9.5c-0.1-0.1-0.4,1.3-0.4,1.6c-0.1,1.3-0.2,2.7-0.2,4c0,1.6,0,3.4-0.2,5
	c0,0.3-0.1,1.8-0.4,1.8c-0.4,0.1-0.7-1.1-0.8-1.3c-0.4-1.2-0.6-2.5-0.8-3.7c-0.2-1.1-0.5-2.2-1.5-2.6c-1.1-0.3-1.1,0.8-1.1,1.6
	c0,1.3,0.1,2.8-0.1,4.2c-0.3-0.6-0.2-1.4-0.3-2l-0.3-2.6c-0.1-0.7-0.1-1.3-0.1-2.1c0-0.6,0-1.1-0.6-1.3c-2.5-1.2-1.3,4.3-1.2,5.4
	c0.2,1.4,0.5,2.9,0.8,4.4c0.2,0.8,0.1,2.4,1.1,2.8c0.4,0.2,1.2,0.2,1.5,0c0.5-0.3,0.5-0.7,0.6-1.2c0.1-1.2,0-2.6,0.2-3.7
	c0.3,0.5,0.3,1.2,0.5,1.7c0.2,0.6,0.4,1.2,0.9,1.7c0.8,0.8,2.7,0.8,3-0.5c-0.1,0-0.1,0.1-0.2,0.2c0.3-1.1,0.6-2,0.6-3.1l0.1-3.3
	C41.4,15.9,41.3,9.4,40.5,9.5L40.5,9.5z M77.3,11.1c-0.7,0.6-0.7,2.6-0.8,3.4c-0.1,1.5-0.1,3.1-0.1,4.6c0,1.2-0.3,2.7-0.2,4
	c0.1,1,1.5,0.7,2,0.1c0.3-0.4,0.4-1.2,0.5-1.7c0.1-0.7,0.2-1.3,0.2-2c0.1-1.2,0.1-2.6,0.1-3.8c0-0.8,0.1-1.4,0.2-2.1
	c0-0.3,0.4-1.5,0.1-1.7C79.5,10.8,77.8,10.7,77.3,11.1L77.3,11.1z M50.1,11.8c-0.6,0.1-1.3,1.2-1.6,1.6c-0.6,0.9-0.8,2-1.2,3
	c-0.2-0.8-0.7-1.2-1.1-1.8c-0.4-0.5,0-0.6-0.3-1.1c-0.4-0.8-0.9-0.3-1.3,0c-0.5,0.3-1.1,0.1-1.5,0.3c-0.6,0.3-1,0.8-1.1,1.4
	c0,0.3-0.1,1.1,0.2,1.2c0.7,0.2,1-1.8,1.8-1.8c0,0.4-0.3,0.9-0.4,1.2c-0.2,0.6-0.3,1.2-0.4,1.7c-0.2,1.1-0.3,2.2,0,3.3
	c0.3,1.1,1.2,1.4,2.1,1.2c1.1-0.2,1.7-1.2,1.8-2.2c0.4,0.8,0.5,1.5,1.4,1.7c1.1,0.2,1.8-0.5,2.3-1.3c0.5-1,0.7-2,0.8-3.1
	c0.1-0.9,0.4-1.9,0.1-2.7C51.9,14.2,51.8,11.5,50.1,11.8L50.1,11.8z M46,18.4c0,0.4-0.1,1.4-0.3,1.9c-0.2,0.5-0.6,1.2-1,0.5
	c-0.3-0.6-0.2-1.5-0.1-2.1c0.1-1.1,0.4-2,0.5-3C45.8,16.2,46.1,17.5,46,18.4L46,18.4z M50.6,15.4c0,1.5-0.3,3.3-1,4.6
	c-0.3,0.6-0.5,0.6-0.6-0.1c-0.2-0.8-0.2-1.5-0.2-2.3c0.1-1.2,0.5-2.5,1.1-3.5C50.7,13.2,50.6,14.9,50.6,15.4z"/>
</svg>
