<?xml version="1.0" encoding="utf-8"?>
<!-- Generator: Adobe Illustrator 20.1.0, SVG Export Plug-In . SVG Version: 6.00 Build 0)  -->
<svg version="1.2" baseProfile="tiny" id="Layer_1" xmlns="http://www.w3.org/2000/svg" xmlns:xlink="http://www.w3.org/1999/xlink"
	 x="0px" y="0px" viewBox="0 0 152.4 30.6" xml:space="preserve">
<path fill="#FFFFFF" d="M60.3,1.7c-0.6-0.6-1.5-0.9-2.4-0.9s-1.7,0.3-2.3,0.9l-0.2,0.2c-0.6,0.6-0.9,1.4-0.9,2.3s0.3,1.5,0.9,2.1
	l0.2,0.2C56.2,7,57.1,7.3,58,7.3s1.8-0.3,2.4-0.9l0,0c0.6-0.6,0.9-1.4,0.9-2.3C61.2,3.1,60.9,2.3,60.3,1.7L60.3,1.7z"/>
<polygon fill="#FFFFFF" points="7.1,0.8 0.3,0.8 0.3,29 7.1,29 "/>
<path fill="#FFFFFF" d="M9.6,29h6.8V17.6c0.2-1.7,1.4-2.9,3.2-2.9c2,0,3.2,1.4,3.2,3.2V29h6.8V17.5c0-5.3-3.2-8.7-8.2-8.7
	c-3,0-4.6,0.9-6.2,3.2h-0.5l-1.1-2.7H9.6V29L9.6,29z"/>
<polygon fill="#FFFFFF" points="54.5,29 61.2,29 61.2,9.3 54.5,9.3 "/>
<polygon fill="#FFFFFF" points="105.4,29 107.6,29 116.5,0.8 113.8,0.8 106.7,24.8 100.1,0.8 97.5,0.8 90.9,24.8 83.9,0.8 81,0.8 
	89.9,29 92.2,29 98.8,5 "/>
<path fill="#FFFFFF" d="M120.2,6.7c0.9,0,1.7-0.6,1.7-1.5s-0.8-1.7-1.7-1.7c-0.9,0-1.7,0.8-1.7,1.7C118.5,6.1,119.3,6.7,120.2,6.7
	L120.2,6.7z"/>
<polygon fill="#FFFFFF" points="118.8,29 121.4,29 121.4,9.3 118.8,9.3 "/>
<path fill="#FFFFFF" d="M134.3,9.3h-1.1c-3.2,0-5.2,2.1-5.8,3.6h-0.2L127,9.3h-1.8V29h2.6V17.2c0.2-3.2,2.4-5.8,5.6-5.8h1.1V9.3
	H134.3z"/>
<path fill="#FFFFFF" d="M45.4,11.1h-0.3c0,0-1.1-2.3-4.9-2.3c-5.2,0-9,4.3-9,10.3c0,6.4,4,10.3,9.1,10.3c4.4,0,5.9-3,5.9-3h0.3
	l1.1,2.6h4.4V0.6h-6.7V11.1L45.4,11.1z M41.9,24c-2.3,0-3.8-2-3.8-4.9s1.5-4.7,3.8-4.7c2.4,0,3.8,1.8,3.8,4.7S44.4,24,41.9,24z"/>
<path fill="#FFFFFF" d="M73.4,8.8c-5.9,0-10,4.4-10,10.3c0,5.8,4,10.5,10.8,10.5c5.2,0,7.6-2.4,7.6-2.4l-2.3-4.4c0,0-2,1.5-4.9,1.5
	s-4.4-1.1-4.7-3.8h12.9c0,0,0-1.2,0-1.8C82.8,12.5,79.2,8.8,73.4,8.8z M70,16.9c0.5-2.1,1.7-3.2,3.2-3.2c2,0,3,1.2,3,3.2H70z"/>
<path fill="#FFFFFF" d="M152.4,19.2v-0.6c0-5.6-3-9.7-8.7-9.7c-5.5,0-9.1,4.3-9.1,10.5s3.8,10.3,9.9,10.3c4.7,0,7-2.3,7-2.3l-1.2-2
	c0,0-2,1.8-5.8,1.8c-4.1,0-7.3-2.9-7.3-8.1l0,0C137.2,19.2,152.4,19.2,152.4,19.2z M143.7,11.1c3.5,0,5.6,2.3,5.9,5.9h-12.3
	C138.1,13.1,140.4,11.1,143.7,11.1z"/>
</svg>
