<?xml version="1.0" encoding="utf-8"?>
<!-- Generator: Adobe Illustrator 20.1.0, SVG Export Plug-In . SVG Version: 6.00 Build 0)  -->
<svg version="1.1" id="Layer_1" xmlns="http://www.w3.org/2000/svg" xmlns:xlink="http://www.w3.org/1999/xlink" x="0px" y="0px"
	 viewBox="0 0 314.7 95.5" style="enable-background:new 0 0 314.7 95.5;" xml:space="preserve">
<style type="text/css">
	.st0{fill:#FFFFFF;}
	.st1{fill:none;stroke:#FFFFFF;}
</style>
<g>
	<polygon id="path-3_1_" class="st0" points="310.2,42.4 310.2,38.8 306.6,38.8 306.6,42.4 	"/>
</g>
<g>
	<polygon id="path-1_1_" class="st0" points="3.7,38.8 3.7,42.4 7.3,42.4 7.3,38.8 	"/>
</g>
<path id="Fill-19" class="st0" d="M146.5,81.7h-6.8v-1.3l3.2-3.4c0.4-0.5,0.8-0.9,1-1.3s0.3-0.7,0.3-1c0-0.4-0.1-0.8-0.3-1
	c-0.2-0.3-0.5-0.4-1-0.4c-0.4,0-0.8,0.2-1.1,0.5s-0.4,0.7-0.4,1.2h-2c0-0.6,0.1-1.2,0.4-1.7c0.3-0.5,0.7-0.9,1.2-1.2
	c0.5-0.3,1.1-0.4,1.8-0.4c1,0,1.8,0.2,2.4,0.7c0.6,0.5,0.8,1.2,0.8,2.1c0,0.5-0.1,1-0.4,1.5c-0.3,0.5-0.7,1.1-1.3,1.8l-2.3,2.4h4.3
	v1.5H146.5z"/>
<path id="Fill-21" class="st0" d="M152.4,75.5c0-0.8-0.1-1.4-0.3-1.8s-0.6-0.6-1.1-0.6s-0.8,0.2-1,0.5c-0.2,0.4-0.3,0.9-0.4,1.7v2.4
	c0,0.8,0.1,1.4,0.3,1.8s0.6,0.6,1.1,0.6s0.8-0.2,1-0.6s0.3-1,0.3-1.7L152.4,75.5L152.4,75.5z M154.4,77.6c0,1.4-0.3,2.4-0.9,3.1
	c-0.6,0.7-1.4,1.1-2.5,1.1s-1.9-0.4-2.5-1.1s-0.9-1.7-0.9-3.1v-1.8c0-1.4,0.3-2.4,0.9-3.2c0.6-0.7,1.4-1.1,2.5-1.1s1.9,0.4,2.5,1.1
	s0.9,1.7,0.9,3.1V77.6z"/>
<polygon id="Fill-23" class="st0" points="160.5,81.7 158.5,81.7 158.5,74.1 156.2,74.8 156.2,73.2 160.3,71.7 160.5,71.7 "/>
<path id="Fill-25" class="st0" d="M167.1,76.6c-0.3,0-0.6,0.1-0.9,0.2c-0.3,0.2-0.4,0.4-0.6,0.7v0.6c0,0.7,0.1,1.2,0.4,1.5
	c0.3,0.4,0.6,0.6,1.1,0.6c0.4,0,0.8-0.2,1-0.5s0.4-0.8,0.4-1.3s-0.1-1-0.4-1.3C167.9,76.8,167.6,76.6,167.1,76.6L167.1,76.6z
	 M169.1,71.6v1.6h-0.2c-0.9,0-1.6,0.2-2.1,0.7c-0.5,0.4-0.9,1.1-1,1.9c0.5-0.5,1.2-0.8,2-0.8c0.9,0,1.5,0.3,2.1,0.9
	c0.5,0.6,0.8,1.4,0.8,2.4c0,0.6-0.1,1.2-0.4,1.8c-0.3,0.5-0.7,0.9-1.2,1.2c-0.5,0.3-1.1,0.4-1.7,0.4c-1,0-1.9-0.4-2.5-1.1
	s-1-1.7-1-2.9V77c0-1.1,0.2-2,0.6-2.9c0.4-0.8,1-1.5,1.8-1.9c0.8-0.5,1.6-0.7,2.6-0.7L169.1,71.6L169.1,71.6z"/>
<path id="Stroke-41" class="st1" d="M98,21.9H45.2"/>
<path id="Stroke-43" class="st1" d="M98,14.6H55.9"/>
<path id="Stroke-45" class="st1" d="M98,7.4H73.6"/>
<path id="Stroke-47" class="st1" d="M214.4,21.9H269"/>
<path id="Stroke-49" class="st1" d="M214.4,14.6h44"/>
<path id="Stroke-51" class="st1" d="M214.4,7.4h26.3"/>
<path id="Stroke-53" class="st1" d="M182.1,72.6H269"/>
<path id="Stroke-55" class="st1" d="M182.1,79.9h68.7"/>
<path id="Stroke-57" class="st1" d="M126.5,72.6H45.2"/>
<path id="Stroke-59" class="st1" d="M126.5,79.9H61.9"/>
<path id="Stroke-61" class="st1" d="M240.7,87.2H73.6"/>
<g id="Group-216" transform="translate(0.000000, 0.535500)">
	<path id="Fill-63" class="st0" d="M52.3,88.3c-4.9-0.6-10.1-2.1-15.4-4.6c-4.9-2.3-9.3-5.2-13.1-8.6C17.7,69.6,13.6,61.8,12,52.8
		c-1.5-8.4-0.6-17.4,2.4-25.1C19.1,15.9,29.9,7,45,2.6L45.2,3c-15,4.4-25.7,13.2-30.3,24.9c-6.4,16.4-2.5,36.2,9.2,47
		c3.7,3.4,8.1,6.3,13,8.5c5.3,2.4,10.4,3.9,15.3,4.5L52.3,88.3z"/>
	<path id="Fill-65" class="st0" d="M45.9,87c-0.2-0.2-4.6-4.6-5.8-8.2l0.3-0.1c1.2,3.5,5.6,8,5.7,8L45.9,87z"/>
	<path id="Fill-67" class="st0" d="M38.4,78.1c0,0.9,0.7,1.6,1.6,1.6c0.9,0,1.6-0.7,1.6-1.6s-0.7-1.6-1.6-1.6
		C39.2,76.6,38.4,77.3,38.4,78.1"/>
	<path id="Fill-69" class="st0" d="M42.2,80.4c0,0.7,0.6,1.2,1.2,1.2s1.2-0.6,1.2-1.2c0-0.7-0.6-1.2-1.2-1.2S42.2,79.7,42.2,80.4"/>
	<path id="Fill-71" class="st0" d="M39.9,83.3c0,0.6,0.5,1,1,1c0.6,0,1-0.5,1-1c0-0.6-0.5-1-1-1S39.9,82.7,39.9,83.3"/>
	<path id="Fill-73" class="st0" d="M43.5,84.3c-0.6-1.3-0.3-3.5-0.3-3.6h0.3c0,0-0.3,2.3,0.2,3.5L43.5,84.3z"/>
	<path id="Fill-75" class="st0" d="M44.1,85c-0.3-0.1-2.8-1-3.3-1.7l0.3-0.2c0.4,0.6,2.4,1.3,3.1,1.6L44.1,85z"/>
	<path id="Fill-77" class="st0" d="M15.4,26.5l-0.2-0.2c0.1,0,6.2-4.6,10.6-5.4l0.1,0.3C21.6,21.9,15.5,26.4,15.4,26.5"/>
	<path id="Fill-79" class="st0" d="M26.9,18.9c-1-0.1-2,0.6-2.1,1.6s0.6,2,1.6,2.1s2-0.6,2.1-1.6C28.7,20,28,19.1,26.9,18.9"/>
	<path id="Fill-81" class="st0" d="M23.6,23c-0.8-0.1-1.6,0.4-1.7,1.3c-0.1,0.8,0.4,1.6,1.3,1.7c0.8,0.1,1.6-0.4,1.7-1.3
		C25,23.9,24.4,23.1,23.6,23"/>
	<path id="Fill-83" class="st0" d="M20.6,19.8c-0.7-0.1-1.3,0.4-1.4,1c-0.1,0.7,0.4,1.3,1,1.4c0.7,0.1,1.3-0.4,1.4-1
		C21.7,20.5,21.3,19.9,20.6,19.8"/>
	<path id="Fill-85" class="st0" d="M23,24.5c0,0-2.6-0.8-4.1-0.3l-0.1-0.3c1.6-0.5,4.2,0.3,4.3,0.3L23,24.5z"/>
	<path id="Fill-87" class="st0" d="M18.2,24.6l-0.3-0.1c0.1-0.1,1.6-3.1,2.6-3.6l0.1,0.3C19.9,21.5,18.6,23.7,18.2,24.6"/>
	<path id="Fill-89" class="st0" d="M24.4,14.2h-0.3c0-0.1,0.1-7.7,2.1-11.7l0.3,0.1C24.5,6.5,24.4,14.1,24.4,14.2"/>
	<path id="Fill-91" class="st0" d="M25.3,0.4c-0.7,0.7-0.8,1.9,0,2.7c0.7,0.7,1.9,0.8,2.7,0c0.7-0.7,0.8-1.9,0-2.7
		C27.3-0.3,26.1-0.3,25.3,0.4"/>
	<path id="Fill-93" class="st0" d="M43.4,1.3c-0.7,0.7-0.8,1.9,0,2.7c0.7,0.7,1.9,0.8,2.7,0c0.7-0.7,0.8-1.9,0-2.7
		C45.4,0.5,44.2,0.5,43.4,1.3"/>
	<path id="Fill-95" class="st0" d="M26.6,5.5C26,6.1,26,7,26.6,7.6s1.5,0.6,2.1,0s0.6-1.5,0-2.1C28.1,5,27.2,5,26.6,5.5"/>
	<path id="Fill-97" class="st0" d="M22.2,6c-0.5,0.5-0.5,1.2,0,1.7s1.2,0.5,1.7,0s0.5-1.2,0-1.7C23.4,5.5,22.7,5.5,22.2,6"/>
	<path id="Fill-99" class="st0" d="M24.6,10l-0.3-0.1c0.6-1.6,2.7-3.2,2.8-3.3l0.2,0.2C27.4,6.9,25.2,8.5,24.6,10"/>
	<path id="Fill-101" class="st0" d="M24.3,10.9c-0.1-0.1-1.5-3.1-1.3-4.2l0.3,0.1c-0.2,0.8,0.8,3.2,1.2,4L24.3,10.9z"/>
	<path id="Fill-103" class="st0" d="M31.1,88.3c-1,0-2-0.1-2.7-0.3l0.1-0.3c4.1,1.2,15-1.7,15.1-1.7l0.1,0.3
		C43.3,86.4,36,88.3,31.1,88.3"/>
	<path id="Fill-105" class="st0" d="M27.2,87.8c0,0.7,0.6,1.3,1.3,1.3c0.7,0,1.3-0.6,1.3-1.3s-0.6-1.3-1.3-1.3
		C27.8,86.5,27.2,87.1,27.2,87.8"/>
	<path id="Fill-107" class="st0" d="M32.7,90.8c0,0.7,0.6,1.3,1.3,1.3s1.3-0.6,1.3-1.3s-0.6-1.3-1.3-1.3S32.7,90.1,32.7,90.8"/>
	<path id="Fill-109" class="st0" d="M31.1,85.7c0,0.7,0.6,1.3,1.3,1.3s1.3-0.6,1.3-1.3s-0.6-1.3-1.3-1.3
		C31.7,84.4,31.1,85,31.1,85.7"/>
	<path id="Fill-111" class="st0" d="M33.5,91l-0.1-0.3c1.8-0.5,3.8-3.3,3.8-3.3l0.3,0.2C37.4,87.7,35.4,90.5,33.5,91"/>
	<path id="Fill-113" class="st0" d="M38.8,87.4c0,0-3.9-1.5-6.9-1.3v-0.3c3.1-0.3,6.9,1.2,7,1.3L38.8,87.4z"/>
	<path id="Fill-115" class="st0" d="M29.5,79.5c0-0.1-0.7-6.7-4.1-11.6l0.3-0.2c3.4,5,4.1,11.7,4.1,11.8L29.5,79.5z"/>
	<path id="Fill-117" class="st0" d="M23.8,67.4c0,1,0.8,1.8,1.8,1.8s1.8-0.8,1.8-1.8s-0.8-1.8-1.8-1.8
		C24.7,65.5,23.8,66.4,23.8,67.4"/>
	<path id="Fill-119" class="st0" d="M28.7,69.9c0,0.8,0.7,1.5,1.5,1.5s1.5-0.7,1.5-1.5s-0.7-1.5-1.5-1.5
		C29.3,68.4,28.7,69,28.7,69.9"/>
	<path id="Fill-121" class="st0" d="M23.8,71.5c0,0.7,0.5,1.2,1.2,1.2s1.2-0.5,1.2-1.2s-0.5-1.2-1.2-1.2S23.8,70.9,23.8,71.5"/>
	<path id="Fill-123" class="st0" d="M29.4,77.2l-0.3-0.1c0,0,1.1-4,0.8-6.5h0.3C30.5,73.1,29.5,77,29.4,77.2"/>
	<path id="Fill-125" class="st0" d="M28.4,74.2c0,0-2.1-2.3-3.4-2.6l0.1-0.3c1.4,0.3,3.5,2.6,3.6,2.7L28.4,74.2z"/>
	<path id="Fill-127" class="st0" d="M32.2,11.3c-2.4,0-4.1-0.3-4.1-0.3v-0.3c0.1,0,6.7,1,12.3-1l0.1,0.3
		C37.6,11.1,34.6,11.3,32.2,11.3"/>
	<path id="Fill-129" class="st0" d="M41.2,8.3c-1-0.3-2,0.3-2.2,1.3c-0.3,1,0.3,2,1.3,2.2c1,0.3,2-0.3,2.2-1.3
		C42.8,9.6,42.2,8.6,41.2,8.3"/>
	<path id="Fill-131" class="st0" d="M37.6,12.4c-0.8-0.2-1.6,0.3-1.9,1.1c-0.2,0.8,0.3,1.6,1.1,1.9c0.8,0.2,1.6-0.3,1.9-1.1
		C38.9,13.4,38.4,12.6,37.6,12.4"/>
	<path id="Fill-133" class="st0" d="M37.2,7.3c-0.6-0.2-1.3,0.2-1.5,0.9c-0.2,0.6,0.2,1.3,0.9,1.5c0.6,0.2,1.3-0.2,1.5-0.9
		C38.2,8.1,37.8,7.4,37.2,7.3"/>
	<path id="Fill-135" class="st0" d="M36.5,13.7c-2.5-0.3-6.1-2.3-6.2-2.4l0.2-0.3c0,0,3.6,2.1,6.1,2.4L36.5,13.7z"/>
	<path id="Fill-137" class="st0" d="M33.6,11.3L33.4,11c0,0,2.8-1.4,3.4-2.7l0.3,0.1C36.4,9.8,33.7,11.2,33.6,11.3"/>
	<path id="Fill-139" class="st0" d="M11.9,47.6l-0.3-0.2c0-0.1,3.7-5.7,4.1-11.6H16C15.6,41.9,11.9,47.5,11.9,47.6"/>
	<path id="Fill-141" class="st0" d="M14.8,34.5c-0.6,0.8-0.5,1.9,0.3,2.6c0.8,0.6,1.9,0.5,2.6-0.3c0.6-0.8,0.5-1.9-0.3-2.6
		C16.6,33.6,15.4,33.7,14.8,34.5"/>
	<path id="Fill-143" class="st0" d="M17,39.4c-0.5,0.7-0.4,1.6,0.2,2.1c0.7,0.5,1.6,0.4,2.1-0.2c0.5-0.7,0.4-1.6-0.2-2.1
		S17.5,38.8,17,39.4"/>
	<path id="Fill-145" class="st0" d="M12.2,37.7c-0.4,0.5-0.3,1.3,0.2,1.7s1.3,0.3,1.7-0.2s0.3-1.3-0.2-1.7
		C13.3,37.1,12.6,37.2,12.2,37.7"/>
	<path id="Fill-147" class="st0" d="M13,45.6l-0.2-0.2c0,0,3.4-2.5,4.7-4.6l0.3,0.2C16.4,43.1,13.1,45.5,13,45.6"/>
	<path id="Fill-149" class="st0" d="M14,42.7c0,0-0.2-3.1-1-4.2l0.2-0.2c0.9,1.1,1.1,4.2,1.1,4.4H14z"/>
	<path id="Fill-151" class="st0" d="M10.8,74.6c0,0.9,0.8,1.7,1.7,1.7s1.7-0.8,1.7-1.7s-0.8-1.7-1.7-1.7S10.8,73.7,10.8,74.6"/>
	<path id="Fill-153" class="st0" d="M17.8,74.7c0,0.7,0.6,1.3,1.3,1.3c0.7,0,1.3-0.6,1.3-1.3s-0.6-1.3-1.3-1.3
		C18.4,73.4,17.8,74,17.8,74.7"/>
	<path id="Fill-155" class="st0" d="M24.1,78.6c-3.3,0-8.1-0.7-11.4-4l0.2-0.2c5.4,5.4,14.8,3.6,14.9,3.6l0.1,0.3
		C27.8,78.3,26.3,78.6,24.1,78.6"/>
	<path id="Fill-157" class="st0" d="M17.5,81.1c0,0.8,0.7,1.5,1.5,1.5s1.5-0.7,1.5-1.5s-0.7-1.5-1.5-1.5
		C18.1,79.7,17.5,80.3,17.5,81.1"/>
	<polygon id="Fill-159" class="st0" points="22.7,78.6 18.9,75.1 19.1,74.9 22.9,78.3 	"/>
	<path id="Fill-161" class="st0" d="M19.5,81.4c-0.1,0-0.3,0-0.4,0v-0.3c3.2,0.3,5.6-2.7,5.6-2.7l0.2,0.2
		C24.8,78.7,22.6,81.4,19.5,81.4"/>
	<path id="Fill-163" class="st0" d="M12.6,14.5c-0.9,0.2-1.5,1.2-1.2,2.1c0.2,0.9,1.2,1.5,2.1,1.2c0.9-0.2,1.5-1.2,1.2-2.1
		C14.5,14.8,13.6,14.3,12.6,14.5"/>
	<path id="Fill-165" class="st0" d="M14.3,21.3c-0.7,0.2-1.1,0.9-0.9,1.5c0.2,0.7,0.9,1.1,1.5,0.9c0.7-0.2,1.1-0.9,0.9-1.5
		C15.7,21.5,15,21.1,14.3,21.3"/>
	<path id="Fill-167" class="st0" d="M13.3,32c0-0.1-4.2-8.9-0.2-15.6l0.3,0.2c-3.9,6.6,0.1,15.3,0.2,15.4H13.3z"/>
	<path id="Fill-169" class="st0" d="M8,22.6c-0.8,0.2-1.3,1-1.1,1.8c0.2,0.8,1,1.3,1.8,1.1c0.8-0.2,1.3-1,1.1-1.8
		C9.6,22.8,8.8,22.4,8,22.6"/>
	<polygon id="Fill-171" class="st0" points="12,27.2 11.7,27 14.2,22.4 14.4,22.6 	"/>
	<path id="Fill-173" class="st0" d="M12.3,29.1c-0.1-0.1-3.6-1.7-4.2-5L8.4,24c0.5,3.1,4,4.7,4,4.8L12.3,29.1z"/>
	<path id="Fill-175" class="st0" d="M17.3,67c-1.4-4.7,1-11.7,1-11.7l0.3,0.1c0,0.1-2.4,6.9-1,11.5L17.3,67z"/>
	<path id="Fill-177" class="st0" d="M17.1,55.1c0,0.9,0.8,1.7,1.7,1.7s1.7-0.8,1.7-1.7s-0.8-1.7-1.7-1.7S17.1,54.2,17.1,55.1"/>
	<path id="Fill-179" class="st0" d="M18.4,60.9c0,0.7,0.5,1.2,1.2,1.2s1.2-0.5,1.2-1.2s-0.5-1.2-1.2-1.2
		C19,59.7,18.4,60.2,18.4,60.9"/>
	<path id="Fill-181" class="st0" d="M14.6,57.6c0,0.7,0.5,1.2,1.2,1.2s1.2-0.5,1.2-1.2s-0.5-1.2-1.2-1.2
		C15.2,56.4,14.6,56.9,14.6,57.6"/>
	<path id="Fill-183" class="st0" d="M17,63.7l-0.1-0.3c0,0,1.9-1,2.4-2.4l0.3,0.1C19.1,62.7,17.1,63.7,17,63.7"/>
	<path id="Fill-185" class="st0" d="M16.9,62c-0.1-0.1-1.3-1.6-1.1-4h0.3c-0.2,2.2,1,3.7,1,3.7L16.9,62z"/>
	<path id="Fill-187" class="st0" d="M18.4,68.9C18,68.7,8.7,64.8,6.6,60l0.3-0.1c2.1,4.6,11.6,8.7,11.7,8.7L18.4,68.9z"/>
	<path id="Fill-189" class="st0" d="M4.7,59.8c0,1,0.8,1.8,1.8,1.8s1.8-0.8,1.8-1.8S7.5,58,6.5,58C5.5,58.1,4.7,58.9,4.7,59.8"/>
	<path id="Fill-191" class="st0" d="M10.1,60.6c0,0.8,0.7,1.5,1.5,1.5s1.5-0.7,1.5-1.5s-0.7-1.5-1.5-1.5
		C10.7,59.1,10.1,59.7,10.1,60.6"/>
	<path id="Fill-193" class="st0" d="M8.2,66.4c0,0.8,0.7,1.5,1.5,1.5s1.5-0.7,1.5-1.5s-0.7-1.5-1.5-1.5S8.2,65.6,8.2,66.4"/>
	<path id="Fill-195" class="st0" d="M13.3,66.1c0,0-0.6-3.8-2.1-5.6l0.2-0.2c1.6,1.9,2.1,5.6,2.1,5.7L13.3,66.1z"/>
	<path id="Fill-197" class="st0" d="M14.8,67.7c-1.2,0-3.4-0.2-5-1.2l0.2-0.3c2.3,1.4,5.8,1.1,5.8,1.1v0.3
		C15.8,67.6,15.4,67.7,14.8,67.7"/>
	<path id="Fill-199" class="st0" d="M12.2,53.5c-0.3-0.3-6.9-8-6.7-13.2h0.3c-0.2,5.1,6.5,12.9,6.6,13L12.2,53.5z"/>
	<g id="Group-203" transform="translate(0.000000, 39.000000)">
		<g id="Clip-202">
		</g>
		<path id="Fill-201" class="st0" d="M3.9,0.3c-0.4,0.9-0.1,2,0.8,2.4s2,0.1,2.4-0.8s0.1-2-0.8-2.4C5.4-1,4.3-0.6,3.9,0.3"/>
	</g>
	<path id="Fill-204" class="st0" d="M8.4,42.3C8,43,8.3,43.9,9,44.3c0.7,0.4,1.6,0.1,2-0.7s0.1-1.6-0.7-2
		C9.6,41.3,8.7,41.6,8.4,42.3"/>
	<path id="Fill-206" class="st0" d="M4.1,46.7c-0.4,0.7-0.1,1.7,0.7,2c0.7,0.4,1.7,0.1,2-0.7c0.4-0.7,0.1-1.7-0.7-2
		C5.4,45.7,4.5,46,4.1,46.7"/>
	<path id="Fill-208" class="st0" d="M9.1,48.8l-0.3-0.1c0,0,1.2-3.6,0.6-5.9l0.3-0.1C10.3,45.1,9.2,48.7,9.1,48.8"/>
	<path id="Fill-210" class="st0" d="M10.5,51.2c-0.1-0.1-3.4-1.3-4.9-3.7l0.3-0.2c1.4,2.3,4.7,3.6,4.7,3.6L10.5,51.2z"/>
	<path id="Fill-212" class="st0" d="M35.6,6.6l-0.3-0.1c0.1-0.2,1.4-4.2,3.6-5.2L39,1.5C37,2.5,35.6,6.5,35.6,6.6"/>
	<path id="Fill-214" class="st0" d="M37.2,1.3c0,0.7,0.6,1.3,1.3,1.3s1.3-0.6,1.3-1.3S39.2,0,38.5,0S37.2,0.6,37.2,1.3"/>
</g>
<g id="Group-370" transform="translate(272.000000, 0.535500)">
	<path id="Fill-217" class="st0" d="M-10.4,88.3c4.9-0.6,10.1-2.1,15.4-4.6c4.9-2.3,9.3-5.2,13.1-8.6c6.1-5.6,10.2-13.3,11.8-22.3
		c1.5-8.4,0.6-17.4-2.4-25.1C22.8,15.9,12,7-3.1,2.6L-3.2,3c15,4.4,25.7,13.2,30.3,24.9c6.4,16.4,2.5,36.2-9.2,47
		c-3.7,3.4-8.1,6.3-13,8.5c-5.3,2.4-10.4,3.9-15.3,4.5L-10.4,88.3z"/>
	<path id="Fill-219" class="st0" d="M-4,87c0.2-0.2,4.6-4.6,5.8-8.2l-0.3-0.1c-1.2,3.5-5.6,8-5.7,8L-4,87z"/>
	<path id="Fill-221" class="st0" d="M3.5,78.1c0,0.9-0.7,1.6-1.6,1.6S0.3,79,0.3,78.1s0.7-1.6,1.6-1.6S3.5,77.3,3.5,78.1"/>
	<path id="Fill-223" class="st0" d="M-0.3,80.4c0,0.7-0.6,1.2-1.2,1.2s-1.2-0.6-1.2-1.2c0-0.7,0.6-1.2,1.2-1.2S-0.3,79.7-0.3,80.4"
		/>
	<path id="Fill-225" class="st0" d="M2,83.3c0,0.6-0.5,1-1,1s-1-0.5-1-1c0-0.6,0.5-1,1-1S2,82.7,2,83.3"/>
	<path id="Fill-227" class="st0" d="M-1.6,84.3c0.6-1.3,0.3-3.5,0.3-3.6h-0.3c0,0,0.3,2.3-0.2,3.5L-1.6,84.3z"/>
	<path id="Fill-229" class="st0" d="M-2.2,85c0.3-0.1,2.8-1,3.3-1.7l-0.3-0.2c-0.4,0.6-2.4,1.3-3.1,1.6L-2.2,85z"/>
	<path id="Fill-231" class="st0" d="M26.5,26.5l0.2-0.2c-0.1,0-6.2-4.6-10.6-5.4L16,21.2C20.3,21.9,26.4,26.4,26.5,26.5"/>
	<path id="Fill-233" class="st0" d="M15,18.9c1-0.1,2,0.6,2.1,1.6s-0.6,2-1.6,2.1s-2-0.6-2.1-1.6C13.2,20,14,19.1,15,18.9"/>
	<path id="Fill-235" class="st0" d="M18.3,23c0.8-0.1,1.6,0.4,1.7,1.3c0.1,0.8-0.4,1.6-1.3,1.7c-0.8,0.1-1.6-0.4-1.7-1.3
		C16.9,23.9,17.5,23.1,18.3,23"/>
	<path id="Fill-237" class="st0" d="M21.3,19.8c0.7-0.1,1.3,0.4,1.4,1c0.1,0.7-0.4,1.3-1,1.4c-0.7,0.1-1.3-0.4-1.4-1
		C20.2,20.5,20.6,19.9,21.3,19.8"/>
	<path id="Fill-239" class="st0" d="M18.9,24.5c0,0,2.6-0.8,4.1-0.3l0.1-0.3c-1.6-0.5-4.2,0.3-4.3,0.3L18.9,24.5z"/>
	<path id="Fill-241" class="st0" d="M23.7,24.6l0.3-0.1c-0.1-0.1-1.6-3.1-2.6-3.6l-0.1,0.3C22,21.5,23.3,23.7,23.7,24.6"/>
	<path id="Fill-243" class="st0" d="M17.5,14.2h0.3c0-0.1-0.1-7.7-2.1-11.7l-0.3,0.1C17.4,6.5,17.5,14.1,17.5,14.2"/>
	<path id="Fill-245" class="st0" d="M16.6,0.4c0.7,0.7,0.8,1.9,0,2.7c-0.7,0.7-1.9,0.8-2.7,0c-0.7-0.7-0.8-1.9,0-2.7
		C14.6-0.3,15.8-0.3,16.6,0.4"/>
	<path id="Fill-247" class="st0" d="M-1.5,1.3C-0.8,2-0.7,3.2-1.5,4c-0.7,0.7-1.9,0.8-2.7,0c-0.7-0.7-0.8-1.9,0-2.7
		C-3.5,0.5-2.3,0.5-1.5,1.3"/>
	<path id="Fill-249" class="st0" d="M15.3,5.5c0.6,0.6,0.6,1.5,0,2.1s-1.5,0.6-2.1,0c-0.6-0.6-0.6-1.5,0-2.1C13.8,5,14.8,5,15.3,5.5
		"/>
	<path id="Fill-251" class="st0" d="M19.7,6c0.5,0.5,0.5,1.2,0,1.7s-1.2,0.5-1.7,0S17.5,6.5,18,6S19.2,5.5,19.7,6"/>
	<path id="Fill-253" class="st0" d="M17.3,10l0.3-0.1c-0.6-1.6-2.7-3.2-2.8-3.3l-0.2,0.2C14.6,6.9,16.7,8.5,17.3,10"/>
	<path id="Fill-255" class="st0" d="M17.6,10.9c0.1-0.1,1.5-3.1,1.3-4.2l-0.3,0.1c0.2,0.8-0.8,3.2-1.2,4L17.6,10.9z"/>
	<path id="Fill-257" class="st0" d="M10.8,88.3c1,0,2-0.1,2.7-0.3l-0.1-0.3C9.2,88.9-1.6,86-1.7,86l-0.1,0.3
		C-1.4,86.4,5.9,88.3,10.8,88.3"/>
	<path id="Fill-259" class="st0" d="M14.7,87.8c0,0.7-0.6,1.3-1.3,1.3s-1.3-0.6-1.3-1.3s0.6-1.3,1.3-1.3S14.7,87.1,14.7,87.8"/>
	<path id="Fill-261" class="st0" d="M9.2,90.8c0,0.7-0.6,1.3-1.3,1.3s-1.3-0.6-1.3-1.3s0.6-1.3,1.3-1.3C8.7,89.5,9.2,90.1,9.2,90.8"
		/>
	<path id="Fill-263" class="st0" d="M10.8,85.7c0,0.7-0.6,1.3-1.3,1.3s-1.3-0.6-1.3-1.3s0.6-1.3,1.3-1.3
		C10.3,84.4,10.8,85,10.8,85.7"/>
	<path id="Fill-265" class="st0" d="M8.4,91l0.1-0.3c-1.8-0.5-3.8-3.3-3.8-3.3l-0.3,0.2C4.5,87.7,6.5,90.5,8.4,91"/>
	<path id="Fill-267" class="st0" d="M3.1,87.4c0,0,3.9-1.5,6.9-1.3v-0.3c-3.1-0.3-6.9,1.2-7,1.3L3.1,87.4z"/>
	<path id="Fill-269" class="st0" d="M12.4,79.5c0-0.1,0.7-6.7,4.1-11.6l-0.3-0.2c-3.4,5-4.1,11.7-4.1,11.8L12.4,79.5z"/>
	<path id="Fill-271" class="st0" d="M18.1,67.4c0,1-0.8,1.8-1.8,1.8s-1.8-0.8-1.8-1.8s0.8-1.8,1.8-1.8
		C17.3,65.5,18.1,66.4,18.1,67.4"/>
	<path id="Fill-273" class="st0" d="M13.2,69.9c0,0.8-0.7,1.5-1.5,1.5s-1.5-0.7-1.5-1.5s0.7-1.5,1.5-1.5
		C12.6,68.4,13.2,69,13.2,69.9"/>
	<path id="Fill-275" class="st0" d="M18.1,71.5c0,0.7-0.5,1.2-1.2,1.2s-1.2-0.5-1.2-1.2s0.5-1.2,1.2-1.2S18.1,70.9,18.1,71.5"/>
	<path id="Fill-277" class="st0" d="M12.5,77.2l0.3-0.1c0,0-1.1-4-0.8-6.5h-0.3C11.4,73.1,12.4,77,12.5,77.2"/>
	<path id="Fill-279" class="st0" d="M13.5,74.2c0,0,2.1-2.3,3.4-2.6l-0.1-0.3c-1.4,0.3-3.5,2.6-3.6,2.7L13.5,74.2z"/>
	<path id="Fill-281" class="st0" d="M9.7,11.3c2.4,0,4.1-0.3,4.1-0.3v-0.3c-0.1,0-6.7,1-12.3-1L1.4,10C4.3,11.1,7.4,11.3,9.7,11.3"
		/>
	<path id="Fill-283" class="st0" d="M0.7,8.3c1-0.3,2,0.3,2.2,1.3c0.3,1-0.3,2-1.3,2.2c-1,0.3-2-0.3-2.2-1.3
		C-0.9,9.6-0.3,8.6,0.7,8.3"/>
	<path id="Fill-285" class="st0" d="M4.3,12.4c0.8-0.2,1.6,0.3,1.9,1.1c0.2,0.8-0.3,1.6-1.1,1.9c-0.8,0.2-1.6-0.3-1.9-1.1
		C3,13.4,3.5,12.6,4.3,12.4"/>
	<path id="Fill-287" class="st0" d="M4.7,7.3C5.4,7.1,6,7.5,6.2,8.1C6.3,8.8,6,9.4,5.3,9.6C4.7,9.7,4,9.4,3.9,8.7
		C3.7,8.1,4.1,7.4,4.7,7.3"/>
	<path id="Fill-289" class="st0" d="M5.4,13.7c2.5-0.3,6.1-2.3,6.2-2.4L11.5,11c0,0-3.6,2.1-6.1,2.4V13.7z"/>
	<path id="Fill-291" class="st0" d="M8.4,11.3L8.5,11c0,0-2.8-1.4-3.4-2.7L4.8,8.5C5.5,9.8,8.2,11.2,8.4,11.3"/>
	<path id="Fill-293" class="st0" d="M30,47.6l0.3-0.2c0-0.1-3.7-5.7-4.1-11.6h-0.3C26.3,41.9,30,47.5,30,47.6"/>
	<path id="Fill-295" class="st0" d="M27.1,34.5c0.6,0.8,0.5,1.9-0.3,2.6c-0.8,0.6-1.9,0.5-2.6-0.3c-0.6-0.8-0.5-1.9,0.3-2.6
		C25.3,33.6,26.5,33.7,27.1,34.5"/>
	<path id="Fill-297" class="st0" d="M24.9,39.4c0.5,0.7,0.4,1.6-0.2,2.1s-1.6,0.4-2.1-0.2c-0.5-0.7-0.4-1.6,0.2-2.1
		S24.4,38.8,24.9,39.4"/>
	<path id="Fill-299" class="st0" d="M29.7,37.7c0.4,0.5,0.3,1.3-0.2,1.7s-1.3,0.3-1.7-0.2c-0.4-0.5-0.3-1.3,0.2-1.7
		C28.6,37.1,29.3,37.2,29.7,37.7"/>
	<path id="Fill-301" class="st0" d="M28.9,45.6l0.2-0.2c0,0-3.4-2.5-4.7-4.6L24.2,41C25.5,43.1,28.8,45.5,28.9,45.6"/>
	<path id="Fill-303" class="st0" d="M27.9,42.7c0,0,0.2-3.1,1-4.2l-0.2-0.2c-0.9,1.1-1.1,4.2-1.1,4.4H27.9z"/>
	<path id="Fill-305" class="st0" d="M31.1,74.6c0,0.9-0.8,1.7-1.7,1.7c-0.9,0-1.7-0.8-1.7-1.7s0.8-1.7,1.7-1.7
		C30.3,72.9,31.1,73.7,31.1,74.6"/>
	<path id="Fill-307" class="st0" d="M24.1,74.7c0,0.7-0.6,1.3-1.3,1.3c-0.7,0-1.3-0.6-1.3-1.3s0.6-1.3,1.3-1.3
		C23.5,73.4,24.1,74,24.1,74.7"/>
	<path id="Fill-309" class="st0" d="M17.8,78.6c3.3,0,8.1-0.7,11.4-4L29,74.4C23.6,79.8,14.2,78,14.1,78L14,78.3
		C14.1,78.3,15.6,78.6,17.8,78.6"/>
	<path id="Fill-311" class="st0" d="M24.5,81.1c0,0.8-0.7,1.5-1.5,1.5s-1.5-0.7-1.5-1.5s0.7-1.5,1.5-1.5
		C23.8,79.7,24.5,80.3,24.5,81.1"/>
	<polygon id="Fill-313" class="st0" points="19.2,78.6 23.1,75.1 22.9,74.9 19,78.3 	"/>
	<path id="Fill-315" class="st0" d="M22.4,81.4c0.1,0,0.3,0,0.4,0v-0.3c-3.2,0.3-5.6-2.7-5.6-2.7L17,78.6
		C17.1,78.7,19.3,81.4,22.4,81.4"/>
	<path id="Fill-317" class="st0" d="M29.3,14.5c0.9,0.2,1.5,1.2,1.2,2.1c-0.2,0.9-1.2,1.5-2.1,1.2c-0.9-0.2-1.5-1.2-1.2-2.1
		C27.4,14.8,28.4,14.3,29.3,14.5"/>
	<path id="Fill-319" class="st0" d="M27.6,21.3c0.7,0.2,1.1,0.9,0.9,1.5c-0.2,0.7-0.9,1.1-1.5,0.9c-0.7-0.2-1.1-0.9-0.9-1.5
		C26.2,21.5,26.9,21.1,27.6,21.3"/>
	<path id="Fill-321" class="st0" d="M28.6,32c0-0.1,4.2-8.9,0.2-15.6l-0.3,0.2c3.9,6.6-0.1,15.3-0.2,15.4H28.6z"/>
	<path id="Fill-323" class="st0" d="M34,22.6c0.8,0.2,1.3,1,1.1,1.8s-1,1.3-1.8,1.1c-0.8-0.2-1.3-1-1.1-1.8
		C32.3,22.8,33.2,22.4,34,22.6"/>
	<polygon id="Fill-325" class="st0" points="29.9,27.2 30.2,27 27.8,22.4 27.5,22.6 	"/>
	<path id="Fill-327" class="st0" d="M29.6,29.1c0.1-0.1,3.6-1.7,4.2-5L33.5,24c-0.5,3.1-4,4.7-4,4.8L29.6,29.1z"/>
	<path id="Fill-329" class="st0" d="M24.6,67c1.4-4.7-1-11.7-1-11.7l-0.3,0.1c0,0.1,2.4,6.9,1,11.5L24.6,67z"/>
	<path id="Fill-331" class="st0" d="M24.8,55.1c0,0.9-0.8,1.7-1.7,1.7s-1.7-0.8-1.7-1.7s0.8-1.7,1.7-1.7S24.8,54.2,24.8,55.1"/>
	<path id="Fill-333" class="st0" d="M23.5,60.9c0,0.7-0.5,1.2-1.2,1.2s-1.2-0.5-1.2-1.2s0.5-1.2,1.2-1.2S23.5,60.2,23.5,60.9"/>
	<path id="Fill-335" class="st0" d="M27.3,57.6c0,0.7-0.5,1.2-1.2,1.2s-1.2-0.5-1.2-1.2s0.5-1.2,1.2-1.2
		C26.8,56.4,27.3,56.9,27.3,57.6"/>
	<path id="Fill-337" class="st0" d="M24.9,63.7l0.1-0.3c0,0-1.9-1-2.4-2.4l-0.3,0.1C22.8,62.7,24.8,63.7,24.9,63.7"/>
	<path id="Fill-339" class="st0" d="M25,62c0.1-0.1,1.3-1.6,1.1-4h-0.3c0.2,2.2-1,3.7-1,3.7L25,62z"/>
	<path id="Fill-341" class="st0" d="M23.5,68.9c0.4-0.2,9.7-4.1,11.9-8.9l-0.3-0.1c-2.1,4.6-11.6,8.7-11.7,8.7L23.5,68.9z"/>
	<path id="Fill-343" class="st0" d="M37.2,59.8c0,1-0.8,1.8-1.8,1.8s-1.8-0.8-1.8-1.8s0.8-1.8,1.8-1.8
		C36.4,58.1,37.2,58.9,37.2,59.8"/>
	<path id="Fill-345" class="st0" d="M31.8,60.6c0,0.8-0.7,1.5-1.5,1.5s-1.5-0.7-1.5-1.5s0.7-1.5,1.5-1.5
		C31.2,59.1,31.8,59.7,31.8,60.6"/>
	<path id="Fill-347" class="st0" d="M33.7,66.4c0,0.8-0.7,1.5-1.5,1.5s-1.5-0.7-1.5-1.5s0.7-1.5,1.5-1.5S33.7,65.6,33.7,66.4"/>
	<path id="Fill-349" class="st0" d="M28.6,66.1c0,0,0.6-3.8,2.1-5.6l-0.2-0.2c-1.6,1.9-2.1,5.6-2.1,5.7L28.6,66.1z"/>
	<path id="Fill-351" class="st0" d="M27.1,67.7c1.2,0,3.4-0.2,5-1.2l-0.2-0.3c-2.3,1.4-5.8,1.1-5.8,1.1v0.3
		C26.1,67.6,26.5,67.7,27.1,67.7"/>
	<path id="Fill-353" class="st0" d="M29.7,53.5c0.3-0.3,6.9-8,6.7-13.2h-0.3c0.2,5.1-6.5,12.9-6.6,13L29.7,53.5z"/>
	<g id="Group-357" transform="translate(45.000000, 39.000000)">
		<g id="Clip-356">
		</g>
		<path id="Fill-355" class="st0" d="M-7,0.3c0.4,0.9,0.1,2-0.8,2.4s-2,0.1-2.4-0.8s-0.1-2,0.8-2.4C-8.5-1-7.4-0.6-7,0.3"/>
	</g>
	<path id="Fill-358" class="st0" d="M33.5,42.3c0.4,0.7,0.1,1.6-0.7,2c-0.7,0.4-1.6,0.1-2-0.7c-0.4-0.7-0.1-1.6,0.7-2
		C32.3,41.3,33.2,41.6,33.5,42.3"/>
	<path id="Fill-360" class="st0" d="M37.8,46.7c0.4,0.7,0.1,1.7-0.7,2c-0.7,0.4-1.7,0.1-2-0.7c-0.4-0.7-0.1-1.7,0.7-2
		C36.5,45.7,37.4,46,37.8,46.7"/>
	<path id="Fill-362" class="st0" d="M32.8,48.8l0.3-0.1c0,0-1.2-3.6-0.6-5.9l-0.3-0.1C31.6,45.1,32.8,48.7,32.8,48.8"/>
	<path id="Fill-364" class="st0" d="M31.5,51.2c0.1-0.1,3.4-1.3,4.9-3.7l-0.3-0.2c-1.4,2.3-4.7,3.6-4.7,3.6L31.5,51.2z"/>
	<path id="Fill-366" class="st0" d="M6.3,6.6l0.3-0.1C6.5,6.3,5.2,2.3,3,1.3L2.9,1.5C4.9,2.5,6.3,6.5,6.3,6.6"/>
	<path id="Fill-368" class="st0" d="M4.7,1.3c0,0.7-0.6,1.3-1.3,1.3C2.6,2.7,2,2.1,2,1.3C2,0.6,2.6,0,3.4,0C4.1,0,4.7,0.6,4.7,1.3"
		/>
</g>
<path id="ULTIMATE-GIFT-GUIDE" class="st0" d="M59.1,62.6c1.3,0,2.1-0.2,2.5-0.7s0.5-1.3,0.5-2.4v-7.7h-2.6v-0.9H71v0.9h-1.6V63
	h-0.6c-0.5-0.7-1.2-1-2-1c-0.4,0-1.5,0.2-3.3,0.7s-3.4,0.7-4.7,0.7c-4.3,0-7.7-1.2-10.1-3.5c-2.4-2.3-3.6-5.9-3.6-10.5
	s1.4-8.4,3.9-11s5.8-3.8,10-3.8c1.6,0,3.2,0.2,4.9,0.6c1.6,0.4,2.6,0.6,2.8,0.6c0.3,0,0.5-0.1,0.6-0.2c0.1-0.1,0.3-0.3,0.4-0.6h0.4
	l0.3,8.6h-0.7c-1.3-2.6-2.6-4.6-3.9-6.1c-1.3-1.5-2.8-2.2-4.4-2.2c-4.1,0-6.1,4-6.1,11.9v3.1c0,4,0.5,7,1.5,9
	C55.9,61.5,57.3,62.6,59.1,62.6z M73.4,35.1h12.2v0.8h-2.2v26.4h2.2V63H73.4v-0.8h2.2V35.8h-2.2V35.1z M87.4,35.1h20.7l0.4,8.3h-0.7
	c-1-2.9-2.1-4.8-3.4-5.9c-1.3-1-3.2-1.6-5.8-1.6h-1.1v13h1.8c1.3,0,2.3-0.5,3.2-1.4c0.9-0.9,1.4-2.2,1.8-3.8h0.6v11.8h-0.7
	c-0.4-2-1-3.4-1.8-4.3c-0.8-0.9-1.8-1.3-3.1-1.3h-1.8v12.2h4.9V63h-15v-0.9h2.4V35.9h-2.4V35.1z M135.5,35.1l0.4,10h-0.8
	c-1.2-3.5-2.2-5.9-3.1-7.2c-0.9-1.3-2.2-1.9-3.9-1.9h-0.5v26.2h3.4V63h-14.5v-0.8h3.4V35.9h-0.5c-1.7,0-3,0.7-3.9,2s-2,3.7-3.1,7.2
	h-0.8l0.4-10C112,35.1,135.5,35.1,135.5,35.1z M160.1,62.6c1.3,0,2.1-0.2,2.5-0.7s0.5-1.3,0.5-2.4v-7.7h-2.6v-0.9H172v0.9h-1.6V63
	h-0.6c-0.5-0.7-1.2-1-2-1c-0.4,0-1.5,0.2-3.3,0.7s-3.4,0.7-4.7,0.7c-4.3,0-7.7-1.2-10.1-3.5s-3.6-5.9-3.6-10.5s1.2-8.3,3.7-10.9
	s5.8-3.8,10-3.8c1.6,0,3.2,0.2,4.9,0.6c1.6,0.4,2.6,0.6,2.8,0.6c0.3,0,0.5-0.1,0.6-0.2c0.1-0.1,0.3-0.3,0.4-0.6h0.4l0.3,8.6h-0.7
	c-1.3-2.6-2.6-4.6-3.9-6.1c-1.3-1.5-2.8-2.2-4.4-2.2c-4.1,0-6.1,4-6.1,11.9v3.1c0,4,0.5,7,1.5,9C156.8,61.5,158.2,62.6,160.1,62.6z
	 M185.4,60.1c0.8,1.3,2.3,2,4.5,2s3.9-0.7,5-2c1.2-1.4,1.8-3.4,1.8-6.2v-18h-2.6v-0.8h5.8v0.8h-2.2v17.7c0,3.3-0.7,5.8-2.2,7.4
	c-1.5,1.6-4,2.4-7.8,2.4c-3.7,0-6.5-0.8-8.5-2.3s-2.9-4.2-2.9-7.9V35.8h-2.2V35h12.6v0.8h-2.6v18.7
	C184.2,56.9,184.6,58.8,185.4,60.1z M201.6,35.1h12.2v0.8h-2.2v26.4h2.2V63h-12.2v-0.8h2.2V35.8h-2.2V35.1z M243.2,48.5
	c0,5.5-1.5,9.3-4.6,11.4c-2.8,2-6.7,3-11.7,3h-11.3v-0.8h2.6V35.8h-2.6V35h12.3c5.1,0,8.9,1,11.5,3.1
	C241.9,40.3,243.2,43.7,243.2,48.5z M226,62.2h1.5c2.7,0,4.6-0.9,5.8-2.8c1.2-1.9,1.7-5.1,1.7-9.5v-2.3c0-6-1.1-9.6-3.4-10.8
	c-1.1-0.6-2.6-0.9-4.6-0.9h-1V62.2z M245.7,35.1h20.7l0.4,7.9h-0.7c-1.1-2.7-2.3-4.5-3.5-5.5s-3-1.5-5.4-1.5h-1.4v12.3h1.4
	c1.2,0,2.3-0.5,3.1-1.4c0.9-0.9,1.4-2.2,1.8-3.8h0.6v11.8H262c-0.5-2-1.1-3.4-1.9-4.3c-0.8-0.9-1.9-1.3-3.3-1.3h-1v12.8h1.5
	c2.4,0,4.5-0.7,6.2-2.2s2.9-3.3,3.5-5.6h0.8l-0.3,8.7h-21.9v-0.9h2.4V35.9h-2.4L245.7,35.1L245.7,35.1z"/>
<g>
	<path class="st0" d="M146.1,5.4c-0.4-0.4-1-0.6-1.6-0.6c-0.6,0-1.2,0.2-1.6,0.6l-0.1,0.1c-0.4,0.4-0.7,1-0.7,1.6
		c0,0.6,0.2,1.1,0.6,1.5l0.1,0.1c0.4,0.4,1,0.6,1.6,0.6c0.6,0,1.2-0.2,1.6-0.6l0,0c0.4-0.4,0.7-1,0.7-1.6
		C146.8,6.4,146.6,5.8,146.1,5.4L146.1,5.4z"/>
	<polygon class="st0" points="109.1,4.8 104.3,4.8 104.3,24.4 109.1,24.4 109.1,4.8 	"/>
	<path class="st0" d="M110.8,24.4h4.7v-7.9c0.1-1.2,1-2.1,2.2-2.1c1.4,0,2.2,1,2.2,2.2v7.7h4.7v-8.1c0-3.7-2.2-6-5.7-6
		c-2.1,0-3.2,0.7-4.3,2.2h-0.2l-0.8-1.9h-2.8V24.4L110.8,24.4z"/>
	<polygon class="st0" points="142.1,24.4 146.8,24.4 146.8,10.7 142.1,10.7 142.1,24.4 	"/>
	<polygon class="st0" points="177.6,24.4 179.1,24.4 185.4,4.8 183.5,4.8 178.5,21.5 173.9,4.8 172.1,4.8 167.5,21.5 162.5,4.8 
		160.6,4.8 166.8,24.4 168.4,24.4 173,7.7 177.6,24.4 	"/>
	<path class="st0" d="M187.8,8.9c0.6,0,1.1-0.5,1.1-1.1c0-0.6-0.5-1.2-1.1-1.2c-0.6,0-1.2,0.5-1.2,1.2
		C186.7,8.4,187.2,8.9,187.8,8.9L187.8,8.9z"/>
	<polygon class="st0" points="186.9,24.4 188.8,24.4 188.8,10.7 186.9,10.7 186.9,24.4 	"/>
	<path class="st0" d="M197.7,10.6H197c-2.2,0-3.6,1.4-4.1,2.6h-0.1l-0.2-2.6h-1.3v13.8h1.8v-8.3c0.1-2.2,1.6-4,3.9-4h0.7V10.6
		L197.7,10.6z"/>
	<path class="st0" d="M135.8,11.9h-0.2c0,0-0.8-1.6-3.4-1.6c-3.6,0-6.2,2.9-6.2,7.2c0,4.4,2.7,7.2,6.4,7.2c3.1,0,4.1-2.1,4.1-2.1
		h0.2l0.8,1.8h3.1V4.6h-4.7V11.9z M133.4,20.9c-1.6,0-2.7-1.4-2.7-3.4c0-2,1-3.3,2.7-3.3c1.7,0,2.7,1.3,2.7,3.3
		S135.1,20.9,133.4,20.9z"/>
	<path class="st0" d="M155.3,10.3c-4.1,0-7,3.1-7,7.2c0,4.1,2.8,7.3,7.6,7.3c3.6,0,5.3-1.7,5.3-1.7l-1.6-3c0,0-1.4,1-3.4,1
		c-2,0-3.1-0.8-3.3-2.7h9c0,0,0-0.8,0-1.3C161.8,12.9,159.3,10.3,155.3,10.3z M152.9,15.9c0.3-1.5,1.1-2.2,2.3-2.2
		c1.3,0,2.1,0.9,2.2,2.2H152.9z"/>
	<path class="st0" d="M210.4,17.6v-0.5c0-3.9-2.1-6.8-6-6.8c-3.8,0-6.4,2.9-6.4,7.3s2.7,7.2,6.8,7.2c3.3,0,4.8-1.6,4.8-1.6l-0.7-1.3
		c0,0-1.4,1.3-4,1.3c-2.8,0-5.1-2-5.1-5.6v0H210.4z M204.3,11.9c2.5,0,3.9,1.6,4.1,4.2h-8.5C200.3,13.3,202,11.9,204.3,11.9z"/>
</g>
</svg>
