<?xml version="1.0" encoding="utf-8"?>
<!-- Generator: Adobe Illustrator 20.1.0, SVG Export Plug-In . SVG Version: 6.00 Build 0)  -->
<svg version="1.2" baseProfile="tiny" id="Layer_1" xmlns="http://www.w3.org/2000/svg" xmlns:xlink="http://www.w3.org/1999/xlink"
	 x="0px" y="0px" viewBox="0 0 264 41.2" xml:space="preserve">
<path fill="#FFFFFF" d="M263.1,40.3h-58.3c-8.4,0-14.8-3.5-14.8-12.3V13.9c0-9,5.3-13,15.1-13h58v5.4h-57.8c-5.4,0-9.4,1.7-9.4,7.7
	v13.5c0,4.6,3.3,7.3,8.9,7.3h58.4L263.1,40.3L263.1,40.3L263.1,40.3z"/>
<path fill="#FFFFFF" d="M174.2,8.7v31.6h-5.9V12.2L174.2,8.7z"/>
<path fill="#FFFFFF" d="M88.6,8.7v31.6h6V12.2L88.6,8.7z M88.6,0.9H94l37.5,22.9L170,0.9h4.4v3.3l-39.2,23.5
	c-2.5,1.5-9.1-0.6-9.1-0.6L88.8,4.7V0.9H88.6z M73.1,15c0,6-5.1,9-11.1,9H6.6v16.3h-6V18.7h61.6c3.3,0,5-1.3,5-4.4l-0.1-3.7
	c-0.1-3.3-1.6-4.1-4.9-4.1H0.7V1H63c5.5,0,10.2,2.3,10.2,7.8L73.1,15L73.1,15z"/>
<path fill="#ED1C24" d="M174.2,4.2V0.9h-4.4l-44,26.1l1,0.6c2.5,1.5,5.6,1.5,8.1,0.1l1.1-0.7L174.2,4.2L174.2,4.2z"/>
</svg>
