<svg width="431" height="143" viewBox="0 0 431 143" xmlns="http://www.w3.org/2000/svg" xmlns:xlink="http://www.w3.org/1999/xlink"><title>Spy_Gift_Guide_Logo</title><desc>Created with Sketch.</desc><defs><path id="a" d="M0 34.235h65.749v-33.901h-65.749z"/></defs><g fill="none"><path id="Fill-41" fill-opacity=".717" fill="#fff" d="M57.275 39.772h109.656v-1.3h-109.656z"/><path id="Fill-43" fill-opacity=".717" fill="#fff" d="M88.503 30.311h78.429v-1.3h-78.429z"/><path fill-opacity=".717" fill="#fff" d="M116.532 20.848h50.4v-1.3h-50.4z"/><path id="Fill-47" fill-opacity=".717" fill="#fff" d="M262.18 39.772h109.656v-1.3h-109.656z"/><path id="Fill-49" fill-opacity=".717" fill="#fff" d="M262.18 30.311h78.429v-1.3h-78.429z"/><path fill-opacity=".717" fill="#fff" d="M262.18 20.848h50.4v-1.3h-50.4z"/><g fill-opacity=".717" fill="#fff"><path d="M56.777 106.593h54.607v1.308h-54.607z"/><path d="M72.572 117.054h38.812v1.3h-38.812z"/><path d="M316.666 106.601h54.607v1.291h-54.607z"/><path d="M316.666 117.054h39.317v1.3h-39.317z"/></g><path d="M223.667 122.538l-.361.387c-.487.497-1.016.937-1.587 1.322-.57.385-1.182.684-1.835.897-.653.213-1.332.319-2.038.319-.767 0-1.353-.182-1.758-.547-.404-.365-.607-.882-.607-1.55 0-.263.052-.588.156-.973.104-.385.239-.806.404-1.262.166-.456.353-.932.56-1.429.207-.497.415-1.008.622-1.535.436-1.074.778-1.91 1.027-2.508.249-.598.373-1.069.373-1.414 0-.426-.197-.638-.591-.638-.228 0-.498.106-.809.319-.311.213-.669.583-1.073 1.11-.404.527-.85 1.241-1.338 2.143-.487.902-1.011 2.042-1.571 3.42-.27.649-.555 1.388-.855 2.219-.301.831-.576 1.611-.824 2.341h-4.573c.228-.689.477-1.424.747-2.204l.778-2.25.684-1.961c.207-.588.363-1.054.467-1.398.228-.689.394-1.267.498-1.733.104-.466.156-.892.156-1.277 0-.284-.052-.507-.156-.669-.104-.162-.27-.243-.498-.243-.249 0-.607.177-1.073.532-.467.355-.98.978-1.54 1.87l-.653-.365c.788-1.338 1.701-2.341 2.738-3.01 1.037-.669 2.105-1.003 3.204-1.003.83 0 1.39.213 1.68.638.29.426.436.932.436 1.52 0 .527-.036 1.003-.109 1.429-.073.426-.192.963-.358 1.611h.218c.975-1.905 2.017-3.248 3.126-4.028 1.11-.78 2.141-1.17 3.095-1.17.975 0 1.659.238 2.053.714.394.476.591 1.13.591 1.961 0 .507-.13 1.15-.389 1.93s-.617 1.738-1.073 2.873c-.415 1.013-.731 1.885-.949 2.614-.218.73-.327 1.206-.327 1.429 0 .405.176.608.529.608.187 0 .404-.076.653-.228.249-.152.513-.355.793-.608s.565-.542.855-.866l.232-.269c-.07-.372-.105-.769-.105-1.19 0-.79.114-1.54.342-2.25.228-.709.539-1.373.933-1.991.394-.618.85-1.181 1.369-1.687.518-.507 1.068-.963 1.649-1.368.871-.588 1.727-1.013 2.566-1.277.84-.263 1.612-.395 2.318-.395 1.369 0 2.369.223 3.002.669.633.446.949 1.054.949 1.824 0 .527-.156 1.054-.467 1.581-.311.527-.695.942-1.151 1.246-.311.203-.695.415-1.151.638-.456.223-.97.441-1.54.654-.57.213-1.177.421-1.82.623-.643.203-1.307.385-1.991.547-.083.426-.145.851-.187 1.277-.041.426-.062.801-.062 1.125 0 .851.156 1.454.467 1.809.311.355.767.532 1.369.532.56 0 1.078-.086 1.555-.258.477-.172.918-.405 1.322-.699.404-.294.767-.628 1.089-1.003.321-.375.617-.765.887-1.17l.591.365c-.311.547-.684 1.079-1.12 1.596-.436.517-.938.973-1.509 1.368-.57.395-1.224.709-1.96.942-.736.233-1.561.35-2.473.35-.705 0-1.358-.111-1.96-.334-.601-.223-1.125-.547-1.571-.973-.446-.426-.798-.953-1.058-1.581l-.015-.038zm-36.899.922c-.324.284-.665.547-1.021.788-.57.385-1.182.684-1.835.897-.653.213-1.332.319-2.038.319-.767 0-1.353-.182-1.758-.547-.404-.365-.607-.882-.607-1.55 0-.263.052-.588.156-.973.104-.385.239-.806.404-1.262.166-.456.353-.932.56-1.429.207-.497.415-1.008.622-1.535.436-1.074.778-1.91 1.027-2.508.249-.598.373-1.069.373-1.414 0-.426-.197-.638-.591-.638-.228 0-.498.106-.809.319-.311.213-.669.583-1.073 1.11-.404.527-.85 1.241-1.338 2.143-.487.902-1.011 2.042-1.571 3.42-.27.649-.555 1.388-.855 2.219-.301.831-.576 1.611-.824 2.341h-4.573c.228-.689.477-1.424.747-2.204l.778-2.25.684-1.961c.207-.588.363-1.054.467-1.398.228-.689.394-1.267.498-1.733.104-.466.156-.892.156-1.277 0-.284-.052-.507-.156-.669-.104-.162-.27-.243-.498-.243-.249 0-.607.177-1.073.532-.467.355-.98.978-1.54 1.87l-.009-.005c-.273.388-.592.703-.958.947-.311.203-.695.415-1.151.638-.456.223-.97.441-1.54.654-.57.213-1.177.421-1.82.623-.643.203-1.307.385-1.991.547-.083.426-.145.851-.187 1.277-.041.426-.062.801-.062 1.125 0 .851.156 1.454.467 1.809.311.355.767.532 1.369.532.56 0 1.078-.086 1.555-.258.477-.172.918-.405 1.322-.699.404-.294.767-.628 1.089-1.003.321-.375.617-.765.887-1.17l.591.365c-.311.547-.684 1.079-1.12 1.596-.436.517-.938.973-1.509 1.368-.57.395-1.224.709-1.96.942-.736.233-1.561.35-2.473.35-.705 0-1.358-.111-1.96-.334-.601-.223-1.125-.547-1.571-.973-.393-.375-.713-.829-.961-1.361l-.117.13c-.456.497-.964.937-1.524 1.322s-1.177.684-1.851.897c-.674.213-1.395.319-2.162.319-.788 0-1.405-.187-1.851-.562-.363-.306-.579-.709-.646-1.209-.203.197-.415.382-.635.556-.487.385-1.011.684-1.571.897-.56.213-1.172.319-1.835.319-.726 0-1.286-.198-1.68-.593-.394-.395-.591-.927-.591-1.596 0-.547.052-1.024.156-1.429h-.187c-.124.223-.239.41-.342.562l-.311.441-.342.441c-.124.152-.28.329-.467.532-.436.466-.995.856-1.68 1.17-.684.314-1.327.471-1.929.471-.436 0-.866-.071-1.291-.213-.425-.142-.798-.37-1.12-.684-.321-.314-.581-.719-.778-1.216-.197-.497-.296-1.1-.296-1.809 0-1.155.27-2.331.809-3.527.539-1.196 1.239-2.28 2.1-3.253.861-.973 1.83-1.768 2.909-2.386 1.078-.618 2.157-.927 3.235-.927.684 0 1.213.147 1.587.441.373.294.591.633.653 1.018h.249l.327-.593c.093-.172.202-.36.327-.562h3.795l-2.053 6.171c-.436 1.277-.757 2.326-.964 3.147-.207.821-.311 1.444-.311 1.87 0 .426.176.638.529.638.207 0 .436-.076.684-.228.249-.152.503-.355.762-.608l.375-.391.019-.08c.104-.426.233-.877.389-1.353s.321-.968.498-1.474l.482-1.398c.041-.101.15-.41.327-.927l.638-1.87c.249-.73.518-1.51.809-2.341l.809-2.31c.249-.709.456-1.307.622-1.794.166-.486.259-.75.28-.79.145-.405.239-.73.28-.973.041-.243.062-.476.062-.699 0-.405-.124-.719-.373-.942-.104-.101-.29-.182-.56-.243-.27-.061-.529-.111-.778-.152l.218-.638h6.688c.166 0 .249.061.249.182 0 .081-.057.258-.171.532-.114.274-.223.552-.327.836l-.218.562-.202.562-.233.669-.28.851c-.104.284-.228.638-.373 1.064-.145.426-.301.897-.467 1.414-.166.517-.337 1.059-.513 1.626s-.358 1.125-.544 1.672c-.415 1.277-.861 2.635-1.338 4.074-.394 1.135-.726 2.108-.995 2.919-.27.811-.404 1.368-.404 1.672 0 .405.187.608.56.608.249 0 .524-.076.824-.228.301-.152.601-.355.902-.608.288-.243.572-.523.851-.841-.118-.464-.177-.969-.177-1.515 0-.79.114-1.54.342-2.25.228-.709.539-1.373.933-1.991.394-.618.85-1.181 1.369-1.687.518-.507 1.068-.963 1.649-1.368.871-.588 1.727-1.013 2.566-1.277.84-.263 1.612-.395 2.318-.395 1.369 0 2.369.223 3.002.669.561.396.874.919.937 1.57.451-.494.933-.906 1.446-1.236 1.037-.669 2.105-1.003 3.204-1.003.83 0 1.39.213 1.68.638.29.426.436.932.436 1.52 0 .527-.036 1.003-.109 1.429-.073.426-.192.963-.358 1.611h.218c.975-1.905 2.017-3.248 3.126-4.028 1.11-.78 2.141-1.17 3.095-1.17.975 0 1.659.238 2.053.714.394.476.591 1.13.591 1.961 0 .507-.13 1.15-.389 1.93s-.617 1.738-1.073 2.873c-.415 1.013-.731 1.885-.949 2.614-.218.73-.327 1.206-.327 1.429 0 .405.176.608.529.608.187 0 .404-.076.653-.228.249-.152.513-.355.793-.608.203-.184.41-.387.619-.608.086-.354.194-.729.323-1.124.156-.476.321-.958.498-1.444.176-.486.347-.942.513-1.368l1.929-5.107h-2.364l.467-1.338h2.364l1.493-4.104h4.48l-1.4 4.104h3.204l-.467 1.338h-3.204l-1.898 5.351c-.436 1.236-.778 2.229-1.027 2.979-.249.75-.373 1.267-.373 1.55 0 .426.176.638.529.638.207 0 .467-.076.778-.228.311-.152.627-.36.949-.623.321-.263.643-.557.964-.882.321-.324.596-.659.824-1.003l.622.426c-.373.588-.793 1.13-1.26 1.626-.467.497-.99.937-1.571 1.322s-1.213.684-1.898.897c-.684.213-1.41.319-2.178.319-.767 0-1.374-.187-1.82-.562-.424-.357-.647-.837-.667-1.441zm55.773-16.663c0 .579-.121 1.129-.364 1.65-.243.521-.566.994-.971 1.419-.404.425-.885.801-1.441 1.129-.556.328-1.147.598-1.774.811l-.303-.753c.324-.135.652-.29.986-.463.334-.174.627-.362.88-.565.253-.203.46-.405.622-.608.162-.203.243-.401.243-.594 0-.212-.131-.347-.394-.405-.607-.174-1.097-.415-1.471-.724-.374-.309-.561-.772-.561-1.39 0-.502.192-.951.576-1.346.384-.396.9-.594 1.547-.594.748 0 1.34.217 1.774.651.435.434.652 1.028.652 1.781zm-104.925 3.223c.332-.486.622-.942.871-1.368.249-.426.373-.831.373-1.216 0-.284-.073-.517-.218-.699-.145-.182-.332-.324-.56-.426-.249-.101-.498-.177-.747-.228-.249-.051-.539-.096-.871-.137l.187-.79h8.088l-.187.79c-.394.061-.964.284-1.711.669-.249.142-.503.304-.762.486s-.529.405-.809.669c-.28.263-.576.583-.887.958-.311.375-.643.826-.995 1.353l-10.017 15.079h-4.604l.84-14.866c.041-.547.057-.968.047-1.262-.01-.294-.026-.552-.047-.775-.021-.608-.114-1.044-.28-1.307-.166-.263-.425-.476-.778-.638-.228-.101-.456-.182-.684-.243-.228-.061-.425-.101-.591-.122l.187-.79h10.95l-.187.79c-.477.061-.933.172-1.369.334-.27.101-.513.233-.731.395-.218.162-.43.385-.638.669-.166.284-.311.638-.436 1.064-.124.426-.228 1.074-.311 1.946l-.778 11.248h.218l7.435-11.583zm8.905 3.922c0-.527-.093-.887-.28-1.079-.187-.193-.425-.289-.716-.289-.311 0-.633.106-.964.319-.332.213-.726.674-1.182 1.383-.373.588-.731 1.272-1.073 2.052-.342.78-.648 1.566-.918 2.356-.27.79-.482 1.53-.638 2.219-.156.689-.233 1.236-.233 1.642 0 .446.083.76.249.942.166.182.363.274.591.274.353 0 .674-.122.964-.365.29-.243.55-.527.778-.851.187-.263.347-.502.482-.714l.373-.593c.114-.182.218-.37.311-.562l.327-.684c.27-.567.524-1.14.762-1.718.239-.578.441-1.13.607-1.657.166-.527.301-1.018.404-1.474.104-.456.156-.856.156-1.201zm17.276 4.408c.85-.263 1.514-.507 1.991-.73.477-.223.871-.446 1.182-.669.539-.365.949-.866 1.229-1.505.28-.638.42-1.272.42-1.9 0-.75-.28-1.125-.84-1.125-.373 0-.752.137-1.135.41-.384.274-.757.669-1.12 1.186-.363.517-.695 1.14-.995 1.87-.301.73-.544 1.55-.731 2.462zm42.913-10.944c0 .628-.228 1.155-.684 1.581-.456.426-.995.638-1.618.638-.643 0-1.182-.213-1.618-.638-.436-.426-.653-.953-.653-1.581s.223-1.165.669-1.611c.446-.446.98-.669 1.602-.669.622 0 1.161.218 1.618.654.456.436.684.978.684 1.626zm-6.191 6.749c0-.466-.207-.699-.622-.699-.249 0-.607.172-1.073.517-.467.345-.98.963-1.54 1.854l-.653-.365c.788-1.338 1.763-2.341 2.924-3.01 1.161-.669 2.292-1.003 3.391-1.003.83 0 1.395.218 1.695.654.301.436.451.947.451 1.535 0 .365-.135.983-.404 1.854-.27.872-.612 1.844-1.027 2.919-.207.547-.404 1.074-.591 1.581-.187.507-.347.968-.482 1.383-.135.415-.239.77-.311 1.064-.073.294-.109.481-.109.562 0 .405.176.608.529.608.187 0 .404-.076.653-.228.249-.152.513-.355.793-.608s.56-.542.84-.866c.28-.324.534-.659.762-1.003l.653.426c-.373.588-.798 1.13-1.275 1.626-.477.497-.995.937-1.555 1.322-.56.385-1.167.684-1.82.897-.653.213-1.343.319-2.069.319-.747 0-1.322-.182-1.727-.547-.404-.365-.607-.882-.607-1.55 0-.263.052-.588.156-.973.104-.385.239-.806.404-1.262.166-.456.353-.937.56-1.444l.622-1.52.467-1.155.467-1.155c.145-.365.264-.699.358-1.003.093-.304.14-.547.14-.73zm27.97 4.195c.85-.263 1.514-.507 1.991-.73.477-.223.871-.446 1.182-.669.539-.365.949-.866 1.229-1.505.28-.638.42-1.272.42-1.9 0-.75-.28-1.125-.84-1.125-.373 0-.752.137-1.135.41-.384.274-.757.669-1.12 1.186-.363.517-.695 1.14-.995 1.87-.301.73-.544 1.55-.731 2.462zm20.862-4.043c0 .486-.14.877-.42 1.17-.28.294-.658.441-1.135.441-.498 0-.892-.127-1.182-.38-.29-.253-.436-.583-.436-.988 0-.324.005-.557.016-.699l.016-.456c0-.243-.109-.471-.327-.684-.218-.213-.607-.319-1.167-.319-.622 0-1.104.127-1.447.38-.342.253-.513.603-.513 1.049 0 .507.202.942.607 1.307.404.365 1.032.841 1.882 1.429.456.345.855.679 1.198 1.003.342.324.627.659.855 1.003.228.345.404.709.529 1.094.124.385.187.821.187 1.307 0 .689-.166 1.307-.498 1.854-.332.547-.767 1.018-1.307 1.414-.539.395-1.161.699-1.867.912-.705.213-1.431.319-2.178.319-.726 0-1.4-.076-2.022-.228-.622-.152-1.156-.37-1.602-.654-.446-.284-.798-.623-1.058-1.018-.259-.395-.389-.836-.389-1.322 0-.608.171-1.084.513-1.429.342-.345.752-.517 1.229-.517.539 0 .944.152 1.213.456.27.304.404.689.404 1.155 0 .365-.036.654-.109.866-.073.213-.109.461-.109.745 0 .345.171.593.513.745.342.152.814.228 1.415.228.684 0 1.25-.132 1.695-.395.446-.263.669-.689.669-1.277 0-.263-.036-.486-.109-.669-.073-.182-.207-.375-.404-.578-.197-.203-.472-.436-.824-.699-.353-.263-.809-.608-1.369-1.034-.705-.567-1.265-1.14-1.68-1.718-.415-.578-.622-1.333-.622-2.265 0-.73.156-1.373.467-1.93.311-.557.716-1.018 1.213-1.383.498-.365 1.053-.638 1.664-.821.612-.182 1.218-.274 1.82-.274.581 0 1.151.046 1.711.137.56.091 1.058.248 1.493.471.436.223.788.517 1.058.882s.404.821.404 1.368zm19.635-9.151c1.493 0 2.769.218 3.826.654 1.058.436 1.929 1.008 2.613 1.718.684.709 1.182 1.535 1.493 2.478.311.942.467 1.91.467 2.903 0 1.013-.13 2.001-.389 2.964-.259.963-.607 1.875-1.042 2.736-.436.861-.959 1.652-1.571 2.371-.612.719-1.27 1.343-1.975 1.87-.85.628-1.887 1.17-3.111 1.626-1.224.456-2.644.684-4.262.684h-11.293l.187-.79.731-.122c.239-.041.461-.111.669-.213.581-.203 1.068-.557 1.462-1.064.228-.284.43-.643.607-1.079.176-.436.378-1.079.607-1.93l2.458-9.668c.124-.527.223-.978.296-1.353.073-.375.109-.735.109-1.079 0-.405-.078-.73-.233-.973-.156-.243-.378-.436-.669-.578-.228-.101-.461-.182-.7-.243-.239-.061-.451-.101-.638-.122l.218-.79h10.142zm-3.826 18.757c.933 0 1.721-.228 2.364-.684.643-.456 1.265-1.089 1.867-1.9.436-.547.824-1.246 1.167-2.098.342-.851.633-1.768.871-2.751.239-.983.425-1.996.56-3.04.135-1.044.202-2.042.202-2.995 0-.831-.073-1.495-.218-1.991-.145-.497-.373-.887-.684-1.17-.311-.304-.679-.522-1.104-.654-.425-.132-.99-.198-1.695-.198h-1.338c-.29 0-.477.051-.56.152-.083.101-.145.263-.187.486l-3.235 12.86c-.166.608-.28 1.064-.342 1.368-.062.304-.093.628-.093.973 0 .263.031.502.093.714.062.213.166.37.311.471.311.304.778.456 1.4.456h.622zm23.894-.973c0 .426.176.638.529.638.207 0 .436-.076.684-.228.249-.152.503-.355.762-.608s.518-.542.778-.866c.259-.324.503-.659.731-1.003l.622.426c-.373.588-.762 1.13-1.167 1.626-.404.497-.85.937-1.338 1.322-.487.385-1.011.684-1.571.897-.56.213-1.172.319-1.835.319-.726 0-1.286-.198-1.68-.593-.394-.395-.591-.927-.591-1.596 0-.547.052-1.024.156-1.429h-.187c-.124.223-.239.41-.342.562l-.311.441-.342.441c-.124.152-.28.329-.467.532-.436.466-.995.856-1.68 1.17-.684.314-1.327.471-1.929.471-.436 0-.866-.071-1.291-.213-.425-.142-.798-.37-1.12-.684-.321-.314-.581-.719-.778-1.216-.197-.497-.296-1.1-.296-1.809 0-1.155.27-2.331.809-3.527.539-1.196 1.239-2.28 2.1-3.253.861-.973 1.83-1.768 2.909-2.386 1.078-.618 2.157-.927 3.235-.927.684 0 1.213.147 1.587.441.373.294.591.633.653 1.018h.249l.327-.593c.093-.172.202-.36.327-.562h3.795l-2.053 6.171c-.436 1.277-.757 2.326-.964 3.147-.207.821-.311 1.444-.311 1.87zm-2.178-8.999c0-.527-.093-.887-.28-1.079-.187-.193-.425-.289-.716-.289-.311 0-.633.106-.964.319-.332.213-.726.674-1.182 1.383-.373.588-.731 1.272-1.073 2.052-.342.78-.648 1.566-.918 2.356-.27.79-.482 1.53-.638 2.219-.156.689-.233 1.236-.233 1.642 0 .446.083.76.249.942.166.182.363.274.591.274.353 0 .674-.122.964-.365.29-.243.55-.527.778-.851.187-.263.347-.502.482-.714l.373-.593c.114-.182.218-.37.311-.562l.327-.684c.27-.567.524-1.14.762-1.718.239-.578.441-1.13.607-1.657.166-.527.301-1.018.404-1.474.104-.456.156-.856.156-1.201zm8.433-.091c-.29 0-.591.157-.902.471-.311.314-.674.826-1.089 1.535l-.684-.365c.353-.628.716-1.191 1.089-1.687.373-.497.773-.917 1.198-1.262.425-.345.892-.613 1.4-.806.508-.193 1.084-.289 1.727-.289.871 0 1.55.258 2.038.775.487.517.855 1.231 1.104 2.143.104.365.218.836.342 1.414.124.578.239 1.211.342 1.9.104.689.197 1.409.28 2.158.083.75.124 1.48.124 2.189h.218c.684-1.115 1.234-2.153 1.649-3.116.415-.963.622-1.88.622-2.751 0-.405-.047-.765-.14-1.079-.093-.314-.223-.654-.389-1.018-.083-.162-.171-.355-.264-.578-.093-.223-.14-.436-.14-.638 0-.486.15-.841.451-1.064.301-.223.617-.334.949-.334.456 0 .819.157 1.089.471.27.314.404.745.404 1.292 0 1.115-.156 2.224-.467 3.329-.311 1.105-.726 2.184-1.244 3.238-.518 1.054-1.115 2.062-1.789 3.025-.674.963-1.364 1.865-2.069 2.706-.705.841-1.4 1.601-2.084 2.28-.684.679-1.307 1.252-1.867 1.718-.747.649-1.545 1.165-2.395 1.55-.85.385-1.732.578-2.644.578-.83 0-1.467-.198-1.913-.593-.446-.395-.669-.856-.669-1.383 0-.608.187-1.054.56-1.338.373-.284.736-.426 1.089-.426.477 0 .845.086 1.104.258.259.172.513.41.762.714.166.182.363.37.591.562.228.193.487.289.778.289.187 0 .441-.076.762-.228.321-.152.638-.339.949-.562.332-.263.638-.527.918-.79s.607-.628.98-1.094c0-.851-.052-1.814-.156-2.888-.104-1.074-.233-2.138-.389-3.192-.156-1.054-.321-2.032-.498-2.934-.176-.902-.327-1.606-.451-2.113-.207-.75-.384-1.282-.529-1.596-.145-.314-.394-.471-.747-.471z" fill="#fff"/><path d="M78.993 91.89c1.778 0 2.912-.333 3.401-.999.49-.666.735-1.794.735-3.384v-10.763h-3.483v-1.221h15.673v1.221h-2.122v15.645h-.816c-.653-.925-1.578-1.387-2.776-1.387-.508 0-2.023.333-4.544.999-2.522.666-4.671.999-6.449.999-5.914 0-10.494-1.627-13.741-4.882s-4.871-8.146-4.871-14.674c0-6.528 1.696-11.567 5.088-15.118 3.392-3.551 7.955-5.326 13.687-5.326 2.213 0 4.435.287 6.667.86 2.231.573 3.528.86 3.891.86s.635-.083.816-.25c.181-.166.381-.453.599-.86h.599l.435 12.039h-.98c-1.778-3.588-3.565-6.408-5.361-8.46-1.796-2.053-3.8-3.079-6.014-3.079-5.551 0-8.327 5.529-8.327 16.588v4.383c0 5.548.68 9.736 2.041 12.566 1.361 2.829 3.311 4.244 5.85 4.244zm19.483-38.28h16.599v1.054h-2.993v36.727h2.993v1.054h-16.599v-1.054h2.993v-36.727h-2.993v-1.054zm19.102 0h28.299l.544 11.54h-.98c-1.342-3.994-2.893-6.713-4.653-8.155-1.76-1.442-4.381-2.164-7.864-2.164h-1.524v18.031h2.449c1.742 0 3.193-.647 4.354-1.942s1.959-3.07 2.395-5.326h.816v16.422h-.925c-.581-2.774-1.388-4.753-2.422-5.936-1.034-1.184-2.44-1.775-4.218-1.775h-2.449v16.921h6.748v1.221h-20.571v-1.221h3.211v-36.394h-3.211v-1.221zm65.687 0l.544 13.925h-1.034c-1.596-4.919-3.011-8.276-4.245-10.069-1.234-1.794-3.011-2.691-5.333-2.691h-.653v36.505h4.626v1.165h-19.864v-1.165h4.626v-36.505h-.707c-2.322 0-4.118.934-5.388 2.802-1.27 1.868-2.667 5.187-4.19 9.958h-1.034l.544-13.925h32.109zm33.578 38.28c1.778 0 2.912-.333 3.401-.999.49-.666.735-1.794.735-3.384v-10.763h-3.483v-1.221h15.673v1.221h-2.122v15.645h-.816c-.653-.925-1.578-1.387-2.776-1.387-.508 0-2.023.333-4.544.999-2.522.666-4.671.999-6.449.999-5.914 0-10.494-1.627-13.741-4.882s-4.871-8.146-4.871-14.674c0-6.528 1.696-11.567 5.088-15.118 3.392-3.551 7.955-5.326 13.687-5.326 2.213 0 4.435.287 6.667.86 2.231.573 3.528.86 3.891.86s.635-.083.816-.25c.181-.166.381-.453.599-.86h.599l.435 12.039h-.98c-1.778-3.588-3.565-6.408-5.361-8.46-1.796-2.053-3.8-3.079-6.014-3.079-5.551 0-8.327 5.529-8.327 16.588v4.383c0 5.548.68 9.736 2.041 12.566 1.361 2.829 3.311 4.244 5.85 4.244zm34.585-3.44c1.143 1.812 3.202 2.718 6.177 2.718 2.975 0 5.261-.943 6.857-2.829 1.596-1.886 2.395-4.753 2.395-8.599v-25.076h-3.537v-1.054h7.946v1.054h-2.993v24.688c0 4.586-.998 8.007-2.993 10.264-1.995 2.256-5.524 3.384-10.585 3.384-5.061 0-8.925-1.073-11.592-3.218s-4-5.825-4-11.04v-24.078h-2.993v-1.054h17.143v1.054h-3.537v25.964c0 3.403.571 6.01 1.714 7.822zm22.068-34.84h16.599v1.054h-2.993v36.727h2.993v1.054h-16.599v-1.054h2.993v-36.727h-2.993v-1.054zm56.816 18.752c0 7.619-2.104 12.926-6.313 15.922-3.882 2.774-9.215 4.161-16 4.161h-15.401v-1.054h3.592v-36.727h-3.592v-1.054h16.816c6.966 0 12.19 1.452 15.673 4.355 3.483 2.903 5.224 7.702 5.224 14.397zm-23.51 19.029h2.068c3.664 0 6.286-1.322 7.864-3.967 1.578-2.644 2.367-7.073 2.367-13.287v-3.218c0-8.322-1.56-13.333-4.68-15.035-1.488-.814-3.592-1.221-6.313-1.221h-1.306v36.727zm26.884-37.781h28.299l.544 10.985h-.98c-1.524-3.736-3.12-6.297-4.789-7.684-1.669-1.387-4.118-2.08-7.347-2.08h-1.905v17.143h1.85c1.705 0 3.138-.656 4.299-1.969 1.161-1.313 1.977-3.079 2.449-5.298h.816v16.422h-.925c-.653-2.774-1.533-4.753-2.639-5.936-1.107-1.184-2.621-1.775-4.544-1.775h-1.306v17.809h2.068c3.338 0 6.177-1.017 8.517-3.051 2.34-2.034 3.946-4.642 4.816-7.822h1.088l-.435 12.094h-29.878v-1.221h3.211v-36.394h-3.211v-1.221z" fill="#fff"/><g transform="translate(182.344 8.846)"><path d="M38.275 17.091c-.239.437-.557.774-.951 1.014-.395.238-.852.399-1.372.483-.519.083-1.059.125-1.621.125h-3.803v-6.671h3.803c.561 0 1.101.042 1.621.125.519.083.977.244 1.372.483.395.24.712.578.951 1.013.238.437.359 1.008.359 1.715 0 .707-.12 1.278-.359 1.714zm3.335-6.64c-.613-.664-1.408-1.2-2.385-1.605-.977-.405-2.161-.608-3.553-.608h-10.037v22.257h4.894v-7.98h5.144c1.392 0 2.576-.203 3.553-.608.977-.405 1.772-.941 2.385-1.606.613-.664 1.06-1.428 1.34-2.291.281-.862.421-1.74.421-2.633 0-.915-.14-1.797-.421-2.65-.28-.852-.727-1.611-1.34-2.276z" fill="#fff"/><path id="Fill-3" fill="#fff" d="M57.904 8.239l-5.174 8.79-5.206-8.79h-5.486l8.167 13.592-4.549 8.665h4.894l4.549-8.542 8.26-13.715z"/><path d="M19.313 25.836c-.292.364-.654.649-1.091.858-.437.207-.904.348-1.403.421-.498.072-.966.109-1.403.109-.644 0-1.268-.079-1.87-.234-.603-.157-1.128-.395-1.574-.717-.448-.322-.806-.743-1.076-1.263-.27-.52-.405-1.154-.405-1.902h-3.668l2.28-3.936c.493.324 1.019.612 1.606.835.79.301 1.6.556 2.431.764.81.228 1.611.437 2.4.623.79.187 1.496.405 2.12.654.623.25 1.127.562 1.512.935.384.375.577.863.577 1.465 0 .562-.146 1.024-.437 1.388m4.379-5.019c-.529-.799-1.159-1.438-1.886-1.916-.727-.478-1.46-.826-2.198-1.044-.737-.218-1.314-.369-1.729-.453-1.393-.353-2.521-.643-3.383-.872-.863-.228-1.538-.457-2.026-.686-.488-.229-.816-.477-.982-.747l-.011-.025 1.995-3.444c.378-.076.756-.117 1.134-.117.603 0 1.158.052 1.668.157.508.103.96.28 1.355.53.395.248.712.592.951 1.029.239.435.379.987.421 1.652h4.739c0-1.289-.245-2.385-.733-3.29-.488-.903-1.148-1.646-1.979-2.228-.832-.582-1.782-1.003-2.852-1.263-.791-.192-1.61-.307-2.451-.356l4.157-7.177-.376-.231-19.505 33.673.378.228 5.509-9.509c.117.706.313 1.358.615 1.936.519.997 1.22 1.819 2.105 2.462.883.645 1.901 1.118 3.055 1.42 1.153.3 2.342.451 3.569.451 1.516 0 2.852-.177 4.005-.53 1.153-.353 2.12-.846 2.9-1.48.779-.635 1.366-1.387 1.761-2.261.394-.872.592-1.817.592-2.836 0-1.247-.265-2.271-.795-3.071" fill="#fff"/><mask><use xlink:href="#a"/></mask></g><g id="Group" fill="#fff"><path d="M34.366 50.103c2.218.133 3.804 1.725 3.502 4.262-.222 1.864-1.719 3.428-3.214 4.458-.84.579-2.002 1.225-3.486 1.938-3.271 1.42-5.157 2.953-5.661 4.603-.243 1.46-.111 2.347.598 3.699l-.048.158c-.105.155-.296.19-.572.106-1.331-1.112-2.515-2.683-3.55-4.713-1.551-3.59-2.144-7.477-.996-11.234.956-3.129 4.212-6.057 7.682-4.997 1.159.354 2.026 1.166 2.603 2.436-.106-.241 1.581-.586 1.745-.618.485-.094.953-.126 1.397-.099" id="Fill-46"/><path d="M37.32 98.264c-.183-.143-.375-.246-.576-.31-.201-.064-.402-.086-.604-.067-.202.019-.396.082-.582.187-.186.106-.355.256-.508.452-.401.513-.653 1.093-.756 1.741-.103.647-.039 1.283.192 1.906-.325-.087-.708-.158-1.148-.211-.44-.054-.883-.063-1.328-.028-.446.035-.866.127-1.262.274-.396.148-.716.377-.959.689-.162.207-.25.424-.264.649-.014.225.019.445.097.659.079.214.191.412.338.596.147.183.3.337.458.461l.415.243c.139.074.306.14.501.2.195.059.432.111.711.157.279.046.628.083 1.049.112.42.029.927.051 1.52.067.593.016 1.298.023 2.114.023.293.003.562.083.808.241.246.157.481.325.707.502-.251-.472-.412-.917-.482-1.336-.071-.419-.087-.823-.049-1.211.038-.388.111-.759.22-1.112l.325-1.03c.108-.333.198-.659.27-.977.071-.318.086-.636.045-.954-.042-.318-.158-.635-.348-.951-.19-.316-.491-.64-.901-.97" id="Fill-7"/><path d="M44.065 99.61l.085-.057c.47-.317 1.257-.214 2.362.31l.012-.008c.005-.513.047-.985.126-1.418.103-.449.309-.777.618-.986.413-.279.947-.277 1.602.005.306.154.538.348.696.581l.049.073c.345.512.368 1.522.067 3.03-.283 1.517-.435 2.284-.458 2.299l-.036.025c-.039.026-.345.002-.919-.073-1.307-.139-2.116-.239-2.427-.301-.933-.224-1.557-.568-1.87-1.033l-.107-.158c-.268-.397-.37-.873-.307-1.43.072-.393.241-.679.507-.858M54.001 111.601l.03-.036c.167-.199.526-.253 1.078-.162l.004-.005c-.062-.226-.103-.439-.123-.64-.011-.21.038-.381.148-.512.147-.175.382-.241.705-.2.154.029.281.085.379.168l.031.026c.216.182.354.623.412 1.325.067.703.097 1.06.089 1.069l-.013.015c-.014.016-.152.044-.414.084-.593.104-.961.162-1.105.174-.439.019-.757-.054-.953-.219l-.067-.056c-.168-.141-.273-.338-.315-.59-.018-.182.02-.329.115-.441M31.271 71.03l.116-.018c.638-.101 1.402.385 2.291 1.459l.017-.003c.253-.527.524-.995.814-1.404.323-.414.694-.654 1.115-.721.561-.089 1.112.171 1.653.778.242.307.389.619.439.936l.016.099c.11.696-.354 1.75-1.392 3.164-1.024 1.432-1.551 2.15-1.582 2.155l-.05.008c-.053.008-.358-.165-.914-.519-1.284-.774-2.072-1.268-2.363-1.481-.857-.682-1.335-1.338-1.435-1.97l-.034-.215c-.085-.539.039-1.081.373-1.626.264-.371.577-.585.938-.642M11.864 56.92l.09.016c.499.088.941.644 1.327 1.667l.013.002c.322-.327.643-.605.962-.834.345-.225.682-.308 1.011-.25.439.078.781.41 1.027.999.101.29.13.558.087.806l-.014.077c-.096.544-.71 1.208-1.84 1.991-1.125.801-1.699 1.199-1.723 1.195l-.039-.007c-.041-.007-.223-.213-.546-.618-.755-.902-1.213-1.469-1.374-1.702-.461-.724-.648-1.333-.561-1.827l.03-.168c.074-.422.305-.792.691-1.111.291-.208.577-.287.859-.237M19.912 100.351l.073-.033c.405-.18.998.006 1.778.559l.011-.005c.074-.394.17-.753.289-1.075.14-.332.344-.557.61-.676.356-.159.767-.085 1.234.221.215.16.368.341.457.542l.028.063c.197.441.077 1.223-.36 2.345-.424 1.131-.645 1.701-.665 1.71l-.031.014c-.033.015-.266-.045-.698-.181-.989-.284-1.598-.472-1.829-.561-.689-.299-1.123-.649-1.301-1.05l-.061-.136c-.152-.342-.166-.723-.042-1.144.109-.293.278-.49.507-.592" id="Fill-3"/><path d="M27.462 78.424c-1.578-.403-2.852-.251-3.822.454l-.02.015c-1.247.906-1.86 2.664-1.839 5.272l-.295-.405c-.251-.345-.556-.68-.918-1.006-.975-.716-1.868-.78-2.679-.191-.659.479-1.223 1.209-1.692 2.19-.935 1.584-.965 2.979-.088 4.185l.03.041c1.282 1.764 4.249 3.202 8.9 4.315 1.283.266 1.946.383 1.99.351l.086-.094c.405-.97.846-2.283 1.323-3.936.316-.993.625-2.344.928-4.052.436-2.924.257-4.933-.536-6.024l-.177-.243c-.253-.348-.649-.638-1.19-.87M48.419 108.064c-.656.065-1.12.299-1.391.702l-.006.008c-.349.518-.339 1.271.03 2.26l-.168-.113c-.143-.096-.306-.182-.488-.256-.47-.138-.819-.038-1.046.298-.184.273-.298.629-.341 1.068-.137.732.045 1.267.546 1.604l.017.011c.732.494 2.06.63 3.983.409.525-.076.793-.124.806-.142l.02-.048c.02-.425.006-.986-.042-1.681-.017-.422-.087-.978-.208-1.67-.239-1.173-.585-1.912-1.038-2.218l-.101-.068c-.144-.097-.335-.153-.573-.166" id="Fill-8"/><path d="M34.178 87.308c.926-.673 1.938-.646 3.035.081.095.08.171.158.226.234l.037-.027c-.448-.616-.442-1.42.018-2.412.153-.257.37-.51.649-.757.917-.666 1.929-.639 3.035.081.221.202.382.371.481.508.828 1.139.671 2.758-.473 4.855-.521 1.17-.661 1.921-.421 2.251l-.037.027c-.307-.423-1.571-.457-3.791-.103-1.237.01-2.14-.21-2.71-.659l-.535-.581c-.704-.968-.673-2.001.091-3.098l.394-.399" id="Fill-9" opacity=".603"/><path d="M13.917 72.026c.07.117.12.224.15.322l.047-.014c-.243-.797.049-1.625.878-2.487.25-.211.564-.395.941-.552 1.185-.362 2.222.026 3.109 1.166.157.287.262.52.316.696.45 1.473-.29 3.09-2.219 4.851-.956 1.024-1.368 1.75-1.238 2.177l-.047.014c-.167-.547-1.461-1.033-3.882-1.458-1.282-.431-2.138-.98-2.566-1.648l-.345-.791c-.382-1.252.017-2.309 1.198-3.17l.55-.271c1.198-.366 2.234.023 3.109 1.166z" id="Fill-9" opacity=".682"/></g><g fill="#fff"><path d="M392.634 50.103c-2.218.133-3.804 1.725-3.502 4.262.222 1.864 1.719 3.428 3.214 4.458.84.579 2.002 1.225 3.486 1.938 3.271 1.42 5.157 2.953 5.661 4.603.243 1.46.111 2.347-.598 3.699l.048.158c.105.155.296.19.572.106 1.331-1.112 2.515-2.683 3.55-4.713 1.551-3.59 2.144-7.477.996-11.234-.956-3.129-4.212-6.057-7.682-4.997-1.159.354-2.026 1.166-2.603 2.436.106-.241-1.581-.586-1.745-.618-.485-.094-.953-.126-1.397-.099"/><path d="M389.68 98.264c.183-.143.375-.246.576-.31.201-.064.402-.086.604-.067.202.019.396.082.582.187.186.106.355.256.508.452.401.513.653 1.093.756 1.741.103.647.039 1.283-.192 1.906.325-.087.708-.158 1.148-.211.44-.054.883-.063 1.328-.028.446.035.866.127 1.262.274.396.148.716.377.959.689.162.207.25.424.264.649.014.225-.019.445-.097.659-.079.214-.191.412-.338.596-.147.183-.3.337-.458.461l-.415.243c-.139.074-.306.14-.501.2-.195.059-.432.111-.711.157-.279.046-.628.083-1.049.112-.42.029-.927.051-1.52.067-.593.016-1.298.023-2.114.023-.293.003-.562.083-.808.241-.246.157-.481.325-.707.502.251-.472.412-.917.482-1.336.071-.419.087-.823.049-1.211-.038-.388-.111-.759-.22-1.112l-.325-1.03c-.108-.333-.198-.659-.27-.977-.071-.318-.086-.636-.045-.954.042-.318.158-.635.348-.951.19-.316.491-.64.901-.97"/><path d="M382.935 99.61l-.085-.057c-.47-.317-1.257-.214-2.362.31l-.012-.008c-.005-.513-.047-.985-.126-1.418-.103-.449-.309-.777-.618-.986-.413-.279-.947-.277-1.602.005-.306.154-.538.348-.696.581l-.049.073c-.345.512-.368 1.522-.067 3.03.283 1.517.435 2.284.458 2.299l.036.025c.039.026.345.002.919-.073 1.307-.139 2.116-.239 2.427-.301.933-.224 1.557-.568 1.87-1.033l.107-.158c.268-.397.37-.873.307-1.43-.072-.393-.241-.679-.507-.858M372.999 111.6l-.03-.036c-.167-.199-.526-.253-1.078-.162l-.004-.005c.062-.226.103-.439.123-.64.011-.21-.038-.381-.148-.512-.147-.175-.382-.241-.705-.2-.154.029-.281.085-.379.168l-.031.026c-.216.182-.354.623-.412 1.325-.067.703-.097 1.06-.089 1.069l.013.015c.014.016.152.044.414.084.593.104.961.162 1.105.174.439.019.757-.054.953-.219l.067-.056c.168-.141.273-.338.315-.59.018-.182-.02-.329-.115-.441M395.729 71.029l-.116-.018c-.638-.101-1.402.385-2.291 1.459l-.017-.003c-.253-.527-.524-.995-.814-1.404-.323-.414-.694-.654-1.115-.721-.561-.089-1.112.171-1.653.778-.242.307-.389.619-.439.936l-.016.099c-.11.696.354 1.75 1.392 3.164 1.024 1.432 1.551 2.15 1.582 2.155l.05.008c.053.008.358-.165.914-.519 1.284-.774 2.072-1.268 2.363-1.481.857-.682 1.335-1.338 1.435-1.97l.034-.215c.085-.539-.039-1.081-.373-1.626-.264-.371-.577-.585-.938-.642M415.136 56.92l-.09.016c-.499.088-.941.644-1.327 1.667l-.013.002c-.322-.327-.643-.605-.962-.834-.345-.225-.682-.308-1.011-.25-.439.078-.781.41-1.027.999-.101.29-.13.558-.087.806l.014.077c.096.544.71 1.208 1.84 1.991 1.125.801 1.699 1.199 1.723 1.195l.039-.007c.041-.007.223-.213.546-.618.755-.902 1.213-1.469 1.374-1.702.461-.724.648-1.333.561-1.827l-.03-.168c-.074-.422-.305-.792-.691-1.111-.291-.208-.577-.287-.859-.237M407.088 100.351l-.073-.033c-.405-.18-.998.006-1.778.559l-.011-.005c-.074-.394-.17-.753-.289-1.075-.14-.332-.344-.557-.61-.676-.356-.159-.767-.085-1.234.221-.215.16-.368.341-.457.542l-.028.063c-.197.441-.077 1.223.36 2.345.424 1.131.645 1.701.665 1.71l.031.014c.033.015.266-.045.698-.181.989-.284 1.598-.472 1.829-.561.689-.299 1.123-.649 1.301-1.05l.061-.136c.152-.342.166-.723.042-1.144-.109-.293-.278-.49-.507-.592"/><path d="M399.538 78.424c1.578-.403 2.852-.251 3.822.454l.02.015c1.247.906 1.86 2.664 1.839 5.272l.295-.405c.251-.345.556-.68.918-1.006.975-.716 1.868-.78 2.679-.191.659.479 1.223 1.209 1.692 2.19.935 1.584.965 2.979.088 4.185l-.03.041c-1.282 1.764-4.249 3.202-8.9 4.315-1.283.266-1.946.383-1.99.351l-.086-.094c-.405-.97-.846-2.283-1.323-3.936-.316-.993-.625-2.344-.928-4.052-.436-2.924-.257-4.933.536-6.024l.177-.243c.253-.348.649-.638 1.19-.87M378.581 108.064c.656.065 1.12.299 1.391.702l.006.008c.349.518.339 1.271-.03 2.26l.168-.113c.143-.096.306-.182.488-.256.47-.138.819-.038 1.046.298.184.273.298.629.341 1.068.137.732-.045 1.267-.546 1.604l-.017.011c-.732.494-2.06.63-3.983.409-.525-.076-.793-.124-.806-.142l-.02-.048c-.02-.425-.006-.986.042-1.681.017-.422.087-.978.208-1.67.239-1.173.585-1.912 1.038-2.218l.101-.068c.144-.097.335-.153.573-.166"/><path d="M392.822 87.308c-.926-.673-1.938-.646-3.035.081-.095.08-.171.158-.226.234l-.037-.027c.448-.616.442-1.42-.018-2.412-.153-.257-.37-.51-.649-.757-.917-.666-1.929-.639-3.035.081-.221.202-.382.371-.481.508-.828 1.139-.671 2.758.473 4.855.521 1.17.661 1.921.421 2.251l.037.027c.307-.423 1.571-.457 3.791-.103 1.237.01 2.14-.21 2.71-.659l.535-.581c.704-.968.673-2.001-.091-3.098l-.394-.399" id="Fill-9" opacity=".603"/><path d="M413.083 72.026c-.07.117-.12.224-.15.322l-.047-.014c.243-.797-.049-1.625-.878-2.487-.25-.211-.564-.395-.941-.552-1.185-.362-2.222.026-3.109 1.166-.157.287-.262.52-.316.696-.45 1.473.29 3.09 2.219 4.851.956 1.024 1.368 1.75 1.238 2.177l.047.014c.167-.547 1.461-1.033 3.882-1.458 1.282-.431 2.138-.98 2.566-1.648l.345-.791c.382-1.252-.017-2.309-1.198-3.17l-.55-.271c-1.198-.366-2.234.023-3.109 1.166z" opacity=".682"/></g></g></svg>
