<?xml version="1.0" encoding="utf-8"?>
<!-- Generator: Adobe Illustrator 20.1.0, SVG Export Plug-In . SVG Version: 6.00 Build 0)  -->
<svg version="1.2" baseProfile="tiny" id="Layer_1" xmlns="http://www.w3.org/2000/svg" xmlns:xlink="http://www.w3.org/1999/xlink"
	 x="0px" y="0px" viewBox="0 0 95.4 22.6" xml:space="preserve">
<path fill="#FFFFFF" d="M45.1,22.3h13.8v-1.4H46.7V0h-1.6V22.3z M61.2,22.3h1.6V5.7h-1.6V22.3z M61.2,3.4h1.6V0.5h-1.6V3.4z
	 M65.4,22.3H67v-9.4c0-3.5,0.9-6,5.7-6c4.5,0,4.8,2.2,4.8,5.5v9.9h1.6V12.2c0-4.1-0.5-6.8-6-6.8c-3.9,0-5.5,1.3-6.2,2.7l-0.2-2.3
	l-1.2,0.1L65.4,22.3L65.4,22.3L65.4,22.3z M88.4,22.6c3,0,4.8-0.9,6.3-2l-0.9-1.1c-1.4,1-2.6,1.7-5.4,1.7c-5.2,0-6.2-3-6.3-7h12.8
	c0-4.6-0.2-8.9-6.6-8.9c-6.2,0-7.6,3.7-7.6,8.6C80.7,18.8,81.8,22.6,88.4,22.6 M88.2,6.8c4.8,0,5,2.8,5.1,6.1H82.1
	C82.3,9.3,83.6,6.8,88.2,6.8"/>
<path fill="#FFFFFF" d="M38.4,0l-6.2,16.4v0.1v-0.2L25.9-0.1h-5.2l8.9,22.5h5l8.9-22.5L38.4,0L38.4,0L38.4,0z M0,0v4.5h7.8v17.8h5
	V4.4h7.8v-4.5L0,0L0,0z"/>
</svg>
