<?xml version="1.0" encoding="utf-8"?>
<!-- Generator: Adobe Illustrator 20.1.0, SVG Export Plug-In . SVG Version: 6.00 Build 0)  -->
<svg version="1.1" id="Layer_1" xmlns="http://www.w3.org/2000/svg" xmlns:xlink="http://www.w3.org/1999/xlink" x="0px" y="0px"
	 viewBox="0 0 323 92.6" style="enable-background:new 0 0 323 92.6;" xml:space="preserve">
<style type="text/css">
	.st0{fill:#FFFFFF;}
	.st1{fill:none;stroke:#FFFFFF;}
	.st2{filter:url(#Adobe_OpacityMaskFilter);}
	.st3{mask:url(#mask-2);fill:#FFFFFF;}
	.st4{filter:url(#Adobe_OpacityMaskFilter_1_);}
	.st5{mask:url(#mask-4);fill:#FFFFFF;}
</style>
<title>GiftGuide_Logo_White</title>
<desc>Created with Sketch.</desc>
<g id="Page-1_1_">
	<g id="GG---Vertical---Desktop" transform="translate(-9.000000, -17.000000)">
		<g id="GiftGuide_Logo_White" transform="translate(9.113281, 17.091713)">
			<g id="Page-1" transform="translate(0.000000, -1.000000)">
				<path id="Fill-19" class="st0" d="M148.7,82.6h-6.8v-1.3l3.2-3.4c0.4-0.5,0.8-0.9,1-1.3c0.2-0.4,0.3-0.7,0.3-1
					c0-0.4-0.1-0.8-0.3-1c-0.2-0.3-0.5-0.4-1-0.4c-0.4,0-0.8,0.2-1.1,0.5c-0.3,0.3-0.4,0.7-0.4,1.2h-2c0-0.6,0.1-1.2,0.4-1.7
					c0.3-0.5,0.7-0.9,1.2-1.2c0.5-0.3,1.1-0.4,1.8-0.4c1,0,1.8,0.2,2.4,0.7c0.6,0.5,0.8,1.2,0.8,2.1c0,0.5-0.1,1-0.4,1.5
					c-0.3,0.5-0.7,1.1-1.3,1.8l-2.3,2.4h4.3V82.6z"/>
				<path id="Fill-21" class="st0" d="M154.6,76.5c0-0.8-0.1-1.4-0.3-1.8c-0.2-0.4-0.6-0.6-1.1-0.6c-0.5,0-0.8,0.2-1,0.5
					c-0.2,0.4-0.3,0.9-0.4,1.7v2.4c0,0.8,0.1,1.4,0.3,1.8c0.2,0.4,0.6,0.6,1.1,0.6c0.5,0,0.8-0.2,1-0.6c0.2-0.4,0.3-1,0.3-1.7V76.5z
					 M156.6,78.5c0,1.4-0.3,2.4-0.9,3.1c-0.6,0.7-1.4,1.1-2.5,1.1c-1.1,0-1.9-0.4-2.5-1.1c-0.6-0.7-0.9-1.7-0.9-3.1v-1.8
					c0-1.4,0.3-2.4,0.9-3.2c0.6-0.7,1.4-1.1,2.5-1.1c1.1,0,1.9,0.4,2.5,1.1c0.6,0.7,0.9,1.7,0.9,3.1V78.5z"/>
				<polygon id="Fill-23" class="st0" points="162.7,82.6 160.7,82.6 160.7,75 158.4,75.7 158.4,74.1 162.5,72.6 162.7,72.6 				"/>
				<path id="Fill-25" class="st0" d="M169.4,77.5c-0.3,0-0.6,0.1-0.9,0.2c-0.3,0.2-0.4,0.4-0.6,0.7V79c0,0.7,0.1,1.2,0.4,1.5
					c0.3,0.4,0.6,0.6,1.1,0.6c0.4,0,0.8-0.2,1-0.5s0.4-0.8,0.4-1.3c0-0.5-0.1-1-0.4-1.3C170.2,77.7,169.8,77.5,169.4,77.5
					L169.4,77.5z M171.3,72.5v1.6h-0.2c-0.9,0-1.6,0.2-2.1,0.7c-0.5,0.4-0.9,1.1-1,1.9c0.5-0.5,1.2-0.8,2-0.8c0.9,0,1.5,0.3,2.1,0.9
					c0.5,0.6,0.8,1.4,0.8,2.4c0,0.6-0.1,1.2-0.4,1.8c-0.3,0.5-0.7,0.9-1.2,1.2c-0.5,0.3-1.1,0.4-1.7,0.4c-1,0-1.9-0.4-2.5-1.1
					c-0.6-0.7-1-1.7-1-2.9V78c0-1.1,0.2-2,0.6-2.9c0.4-0.8,1-1.5,1.8-1.9c0.8-0.5,1.6-0.7,2.6-0.7H171.3z"/>
				<path id="Fill-27" class="st0" d="M197.4,8l-0.1,0.5l-1,0.3c-0.2,0.1-0.4,0.3-0.6,0.4l-4.7,6l-1.8,5.9c-0.1,0.3,0,0.5,0.2,0.5
					l1.2,0.3l-0.2,0.5h-6.2l0.2-0.5l1.1-0.3c0.3-0.1,0.5-0.3,0.6-0.6l1.8-5.9l-1.5-5.8c-0.1-0.3-0.1-0.5-0.4-0.6l-0.7-0.2l0.1-0.5
					h5.3l-0.1,0.5l-0.9,0.3c-0.3,0.1-0.4,0.2-0.3,0.6l1.3,4.9l3.8-5c0.1-0.1,0.1-0.2,0.1-0.3c0-0.1-0.1-0.2-0.2-0.2l-1-0.3l0.1-0.5
					H197.4"/>
				<path id="Fill-29" class="st0" d="M185.1,11.3h-0.7l-0.6-1.9c-0.1-0.3-0.3-0.4-0.6-0.4h-1.5l-3.6,12.1c-0.1,0.3,0,0.5,0.3,0.6
					l1,0.3l-0.2,0.5h-6l0.2-0.5l1.1-0.3c0.5-0.1,0.6-0.3,0.7-0.7L178.7,9h-1.8c-0.3,0-0.5,0.2-0.7,0.4l-1.3,1.7h-0.7l1.1-3.5h0.4
					c0.1,0.2,0.3,0.4,0.5,0.4h7.5c0.4,0,0.6-0.1,0.7-0.4h0.5L185.1,11.3"/>
				<path id="Fill-31" class="st0" d="M174,11.1h-0.7l-0.7-1.8C172.5,9.1,172.3,9,172,9h-2.9l-1.6,5.5h2.7c0.3,0,0.4-0.1,0.6-0.4
					l0.8-1.1h0.7l-1.3,4.4h-0.7l0-1.5c0-0.3-0.2-0.4-0.4-0.4h-2.7l-1.8,6.1h4c0.5,0,0.7-0.1,1-0.4l1.6-2h0.8l-1.6,3.8h-0.5
					c-0.1-0.3-0.3-0.4-0.8-0.4h-9.1l0.2-0.5l1.1-0.3c0.3-0.1,0.5-0.3,0.6-0.6l3.5-11.7c0.1-0.2,0-0.4-0.2-0.5l-1-0.3L165,8h7.8
					c0.3,0,0.5-0.1,0.6-0.4h0.4L174,11.1"/>
				<path id="Fill-33" class="st0" d="M197.3,4.2c-6.6,1.5-14.6,2.3-21.5,2.3c-17.1,0-29.1-2.3-34.2-3.5l-21.4,20.2l-1.7,0.2
					l6.3-19.1c-1,0.5-4.4,1.4-5.9,1.5c-0.5,0-0.5-0.2-0.3-0.4c1.5-0.9,2.2-1.6,2.9-3.3c3.1,0.8,5.4,0.2,8.2-0.9L124,17.4L139.1,1
					c9.6,2.1,19.9,2.9,27.8,2.9c7.4,0,13.8-1.2,17.2-2.5c4.7,2.8,10,2.5,13.1,2.4C197.6,3.7,197.7,4.1,197.3,4.2"/>
				<path id="Fill-35" class="st0" d="M164.3,8l-0.1,0.5L163,8.8c-0.2,0.1-0.3,0.2-0.4,0.5L159.1,21c-0.1,0.3-0.2,0.6,0.3,0.7
					l0.8,0.3l-0.2,0.5h-5.6l0.2-0.5l0.8-0.3c0.5-0.1,0.6-0.3,0.7-0.7l3.4-11.7c0.1-0.2,0-0.4-0.2-0.5l-0.9-0.3l0.1-0.5H164.3"/>
				<path id="Fill-37" class="st0" d="M156,11.6c0,2.2-1.7,4.1-4.6,4c-0.5,0-1.2-0.1-1.6-0.3c0,2.7,0.8,5.4,2.4,5.4
					c1,0,1.3-0.8,1.4-1.5c0-0.1,0.1-0.2,0.3-0.1c0.4,0.4,0.7,0.9,0.7,1.7c0,1.6-1,2.4-2.6,2.4c-4,0-4.2-5.7-3.5-9.2
					c0-0.2,0.1-0.2,0.3-0.1c0.5,0.3,1.1,0.5,1.9,0.5c1.3,0,2.5-1,2.5-2.9c0-1.8-1.5-3-3.8-3L145.6,21c0,0.1-0.1,0.2-0.1,0.3
					c0,0.2,0.1,0.3,0.3,0.3l1.1,0.3l-0.2,0.5h-5.6l0.2-0.5l0.8-0.3c0.3-0.1,0.4-0.2,0.5-0.6l3.7-12.6c-1.6,0.3-2.4,0.9-2.4,1.9
					c0,0.5,0.1,0.8,0.3,1c0.1,0.1,0.1,0.2,0.1,0.3c0,0.2-0.2,0.4-0.7,0.4c-0.8,0-1.6-0.5-1.6-1.7c0-0.7,0.4-3.1,6.6-3.1
					C153.8,7.3,156,9,156,11.6"/>
				<path id="Fill-39" class="st0" d="M141,21.9l-0.2,0.5h-5.3l0.2-0.5l0.9-0.3c0.3-0.1,0.4-0.3,0.4-0.6l0.2-2.4h-5.9l-1.9,2.4
					c-0.1,0.2-0.2,0.3-0.2,0.4c0,0.1,0.1,0.2,0.2,0.3l0.9,0.3l-0.2,0.5h-4.4l0.2-0.5l0.9-0.2c0.3-0.1,0.6-0.3,0.9-0.6l12-14.1
					l1.2-0.2l-1.1,14.4c0,0.3,0,0.5,0.4,0.6L141,21.9z M138,10.6l-5.7,7.1h5.1L138,10.6z"/>
				<path id="Stroke-41" class="st1" d="M107.6,22.8H38.4"/>
				<path id="Stroke-43" class="st1" d="M107.6,15.6H58.1"/>
				<path id="Stroke-45" class="st1" d="M107.6,8.3H75.8"/>
				<path id="Stroke-47" class="st1" d="M211.1,22.8h69.2"/>
				<path id="Stroke-49" class="st1" d="M211.1,15.6h49.5"/>
				<path id="Stroke-51" class="st1" d="M211.1,8.3H243"/>
				<path id="Stroke-53" class="st1" d="M184.4,73.5h96"/>
				<path id="Stroke-55" class="st1" d="M184.4,80.8H253"/>
				<path id="Stroke-57" class="st1" d="M128.7,73.5H38.4"/>
				<path id="Stroke-59" class="st1" d="M128.7,80.8H64.1"/>
				<path id="Stroke-61" class="st1" d="M243,88.1H75.8"/>
				<g id="Group-216" transform="translate(0.000000, 0.535500)">
					<path id="Fill-63" class="st0" d="M48.6,89.2c-4.9-0.6-10.1-2.1-15.4-4.6c-4.9-2.3-9.3-5.2-13.1-8.6C14,70.5,9.9,62.8,8.3,53.7
						c-1.5-8.4-0.6-17.4,2.4-25.1C15.3,16.8,26.2,7.9,41.3,3.5l0.1,0.4c-15,4.4-25.7,13.2-30.3,24.9c-6.4,16.4-2.5,36.2,9.2,47
						c3.7,3.4,8.1,6.3,13,8.5c5.3,2.4,10.4,3.9,15.3,4.5L48.6,89.2z"/>
					<path id="Fill-65" class="st0" d="M42.2,87.9c-0.2-0.2-4.6-4.6-5.8-8.2l0.3-0.1c1.2,3.5,5.6,8,5.7,8L42.2,87.9z"/>
					<path id="Fill-67" class="st0" d="M34.7,79.1c0,0.9,0.7,1.6,1.6,1.6c0.9,0,1.6-0.7,1.6-1.6c0-0.9-0.7-1.6-1.6-1.6
						C35.4,77.5,34.7,78.2,34.7,79.1"/>
					<path id="Fill-69" class="st0" d="M38.5,81.3c0,0.7,0.6,1.2,1.2,1.2S41,82,41,81.3c0-0.7-0.6-1.2-1.2-1.2S38.5,80.6,38.5,81.3"
						/>
					<path id="Fill-71" class="st0" d="M36.2,84.2c0,0.6,0.5,1,1,1c0.6,0,1-0.5,1-1c0-0.6-0.5-1-1-1C36.6,83.2,36.2,83.6,36.2,84.2"
						/>
					<path id="Fill-73" class="st0" d="M39.8,85.2c-0.6-1.3-0.3-3.5-0.3-3.6l0.3,0c0,0-0.3,2.3,0.2,3.5L39.8,85.2z"/>
					<path id="Fill-75" class="st0" d="M40.4,85.9c-0.3-0.1-2.8-1-3.3-1.7l0.3-0.2c0.4,0.6,2.4,1.3,3.1,1.6L40.4,85.9z"/>
					<path id="Fill-77" class="st0" d="M11.7,27.4l-0.2-0.2c0.1,0,6.2-4.6,10.6-5.4l0.1,0.3C17.8,22.8,11.7,27.3,11.7,27.4"/>
					<path id="Fill-79" class="st0" d="M23.2,19.8c-1-0.1-2,0.6-2.1,1.6c-0.1,1,0.6,2,1.6,2.1c1,0.1,2-0.6,2.1-1.6
						C24.9,20.9,24.2,20,23.2,19.8"/>
					<path id="Fill-81" class="st0" d="M19.9,23.9c-0.8-0.1-1.6,0.4-1.7,1.3c-0.1,0.8,0.4,1.6,1.3,1.7c0.8,0.1,1.6-0.4,1.7-1.3
						C21.3,24.8,20.7,24,19.9,23.9"/>
					<path id="Fill-83" class="st0" d="M16.9,20.7c-0.7-0.1-1.3,0.4-1.4,1c-0.1,0.7,0.4,1.3,1,1.4c0.7,0.1,1.3-0.4,1.4-1
						C18,21.4,17.6,20.8,16.9,20.7"/>
					<path id="Fill-85" class="st0" d="M19.3,25.4c0,0-2.6-0.8-4.1-0.3l-0.1-0.3c1.6-0.5,4.2,0.3,4.3,0.3L19.3,25.4z"/>
					<path id="Fill-87" class="st0" d="M14.5,25.5l-0.3-0.1c0.1-0.1,1.6-3.1,2.6-3.6l0.1,0.3C16.2,22.4,14.9,24.6,14.5,25.5"/>
					<path id="Fill-89" class="st0" d="M20.6,15.1l-0.3,0c0-0.1,0.1-7.7,2.1-11.7l0.3,0.1C20.8,7.4,20.6,15,20.6,15.1"/>
					<path id="Fill-91" class="st0" d="M21.6,1.3c-0.7,0.7-0.8,1.9,0,2.7c0.7,0.7,1.9,0.8,2.7,0c0.7-0.7,0.8-1.9,0-2.7
						C23.6,0.6,22.4,0.6,21.6,1.3"/>
					<path id="Fill-93" class="st0" d="M39.7,2.2c-0.7,0.7-0.8,1.9,0,2.7c0.7,0.7,1.9,0.8,2.7,0c0.7-0.7,0.8-1.9,0-2.7
						C41.6,1.4,40.4,1.4,39.7,2.2"/>
					<path id="Fill-95" class="st0" d="M22.9,6.4c-0.6,0.6-0.6,1.5,0,2.1c0.6,0.6,1.5,0.6,2.1,0c0.6-0.6,0.6-1.5,0-2.1
						C24.4,5.9,23.4,5.9,22.9,6.4"/>
					<path id="Fill-97" class="st0" d="M18.5,6.9c-0.5,0.5-0.5,1.2,0,1.7c0.5,0.5,1.2,0.5,1.7,0c0.5-0.5,0.5-1.2,0-1.7
						C19.7,6.4,19,6.4,18.5,6.9"/>
					<path id="Fill-99" class="st0" d="M20.9,10.9l-0.3-0.1c0.6-1.6,2.7-3.2,2.8-3.3l0.2,0.2C23.6,7.8,21.5,9.4,20.9,10.9"/>
					<path id="Fill-101" class="st0" d="M20.5,11.8c-0.1-0.1-1.5-3.1-1.3-4.2l0.3,0.1c-0.2,0.8,0.8,3.2,1.2,4L20.5,11.8z"/>
					<path id="Fill-103" class="st0" d="M27.4,89.2c-1,0-2-0.1-2.7-0.3l0.1-0.3c4.1,1.2,15-1.7,15.1-1.7l0.1,0.3
						C39.6,87.3,32.3,89.2,27.4,89.2"/>
					<path id="Fill-105" class="st0" d="M23.5,88.7c0,0.7,0.6,1.3,1.3,1.3c0.7,0,1.3-0.6,1.3-1.3s-0.6-1.3-1.3-1.3
						C24.1,87.4,23.5,88,23.5,88.7"/>
					<path id="Fill-107" class="st0" d="M28.9,91.7c0,0.7,0.6,1.3,1.3,1.3c0.7,0,1.3-0.6,1.3-1.3s-0.6-1.3-1.3-1.3
						C29.5,90.4,28.9,91,28.9,91.7"/>
					<path id="Fill-109" class="st0" d="M27.3,86.6c0,0.7,0.6,1.3,1.3,1.3c0.7,0,1.3-0.6,1.3-1.3s-0.6-1.3-1.3-1.3
						C27.9,85.3,27.3,85.9,27.3,86.6"/>
					<path id="Fill-111" class="st0" d="M29.8,91.9l-0.1-0.3c1.8-0.5,3.8-3.3,3.8-3.3l0.3,0.2C33.7,88.6,31.7,91.4,29.8,91.9"/>
					<path id="Fill-113" class="st0" d="M35.1,88.3c0,0-3.9-1.5-6.9-1.3l0-0.3c3.1-0.3,6.9,1.2,7,1.3L35.1,88.3z"/>
					<path id="Fill-115" class="st0" d="M25.8,80.4c0-0.1-0.7-6.7-4.1-11.6l0.3-0.2c3.4,5,4.1,11.7,4.1,11.8L25.8,80.4z"/>
					<path id="Fill-117" class="st0" d="M20.1,68.3c0,1,0.8,1.8,1.8,1.8c1,0,1.8-0.8,1.8-1.8c0-1-0.8-1.8-1.8-1.8
						C20.9,66.5,20.1,67.3,20.1,68.3"/>
					<path id="Fill-119" class="st0" d="M24.9,70.8c0,0.8,0.7,1.5,1.5,1.5c0.8,0,1.5-0.7,1.5-1.5c0-0.8-0.7-1.5-1.5-1.5
						C25.6,69.3,24.9,69.9,24.9,70.8"/>
					<path id="Fill-121" class="st0" d="M20.1,72.4c0,0.7,0.5,1.2,1.2,1.2s1.2-0.5,1.2-1.2s-0.5-1.2-1.2-1.2S20.1,71.8,20.1,72.4"/>
					<path id="Fill-123" class="st0" d="M25.7,78.1L25.4,78c0,0,1.1-4,0.8-6.5l0.3,0C26.8,74,25.8,78,25.7,78.1"/>
					<path id="Fill-125" class="st0" d="M24.7,75.2c0,0-2.1-2.3-3.4-2.6l0.1-0.3c1.4,0.3,3.5,2.6,3.6,2.7L24.7,75.2z"/>
					<path id="Fill-127" class="st0" d="M28.5,12.2c-2.4,0-4.1-0.3-4.1-0.3l0-0.3c0.1,0,6.7,1,12.3-1l0.1,0.3
						C33.9,12,30.8,12.2,28.5,12.2"/>
					<path id="Fill-129" class="st0" d="M37.5,9.2c-1-0.3-2,0.3-2.2,1.3c-0.3,1,0.3,2,1.3,2.2c1,0.3,2-0.3,2.2-1.3
						C39,10.5,38.5,9.5,37.5,9.2"/>
					<path id="Fill-131" class="st0" d="M33.8,13.3c-0.8-0.2-1.6,0.3-1.9,1.1c-0.2,0.8,0.3,1.6,1.1,1.9c0.8,0.2,1.6-0.3,1.9-1.1
						C35.1,14.3,34.7,13.5,33.8,13.3"/>
					<path id="Fill-133" class="st0" d="M33.5,8.2C32.8,8,32.2,8.4,32,9c-0.2,0.6,0.2,1.3,0.9,1.5c0.6,0.2,1.3-0.2,1.5-0.9
						C34.5,9,34.1,8.3,33.5,8.2"/>
					<path id="Fill-135" class="st0" d="M32.8,14.6c-2.5-0.3-6.1-2.3-6.2-2.4l0.2-0.3c0,0,3.6,2.1,6.1,2.4L32.8,14.6z"/>
					<path id="Fill-137" class="st0" d="M29.8,12.2l-0.1-0.3c0,0,2.8-1.4,3.4-2.7l0.3,0.1C32.7,10.7,29.9,12.2,29.8,12.2"/>
					<path id="Fill-139" class="st0" d="M8.2,48.5l-0.3-0.2c0-0.1,3.7-5.7,4.1-11.6l0.3,0C11.9,42.8,8.2,48.5,8.2,48.5"/>
					<path id="Fill-141" class="st0" d="M11.1,35.4c-0.6,0.8-0.5,1.9,0.3,2.6c0.8,0.6,1.9,0.5,2.6-0.3c0.6-0.8,0.5-1.9-0.3-2.6
						C12.9,34.5,11.7,34.6,11.1,35.4"/>
					<path id="Fill-143" class="st0" d="M13.3,40.3c-0.5,0.7-0.4,1.6,0.2,2.1s1.6,0.4,2.1-0.2c0.5-0.7,0.4-1.6-0.2-2.1
						C14.8,39.6,13.8,39.7,13.3,40.3"/>
					<path id="Fill-145" class="st0" d="M8.4,38.6c-0.4,0.5-0.3,1.3,0.2,1.7c0.5,0.4,1.3,0.3,1.7-0.2c0.4-0.5,0.3-1.3-0.2-1.7
						C9.6,38,8.9,38.1,8.4,38.6"/>
					<path id="Fill-147" class="st0" d="M9.3,46.5l-0.2-0.2c0,0,3.4-2.5,4.7-4.6l0.3,0.2C12.7,44,9.4,46.4,9.3,46.5"/>
					<path id="Fill-149" class="st0" d="M10.3,43.6c0,0-0.2-3.1-1-4.2l0.2-0.2c0.9,1.1,1.1,4.2,1.1,4.4L10.3,43.6z"/>
					<path id="Fill-151" class="st0" d="M7.1,75.5c0,0.9,0.8,1.7,1.7,1.7c0.9,0,1.7-0.8,1.7-1.7s-0.8-1.7-1.7-1.7
						C7.8,73.8,7.1,74.6,7.1,75.5"/>
					<path id="Fill-153" class="st0" d="M14.1,75.6c0,0.7,0.6,1.3,1.3,1.3c0.7,0,1.3-0.6,1.3-1.3s-0.6-1.3-1.3-1.3
						C14.6,74.3,14.1,74.9,14.1,75.6"/>
					<path id="Fill-155" class="st0" d="M20.4,79.5c-3.3,0-8.1-0.7-11.4-4l0.2-0.2c5.4,5.4,14.8,3.6,14.9,3.6l0.1,0.3
						C24.1,79.2,22.6,79.5,20.4,79.5"/>
					<path id="Fill-157" class="st0" d="M13.7,82.1c0,0.8,0.7,1.5,1.5,1.5c0.8,0,1.5-0.7,1.5-1.5s-0.7-1.5-1.5-1.5
						C14.4,80.6,13.7,81.2,13.7,82.1"/>
					<polygon id="Fill-159" class="st0" points="19,79.5 15.1,76 15.3,75.8 19.2,79.3 					"/>
					<path id="Fill-161" class="st0" d="M15.7,82.3c-0.1,0-0.3,0-0.4,0l0-0.3c3.2,0.3,5.6-2.7,5.6-2.7l0.2,0.2
						C21.1,79.6,18.9,82.3,15.7,82.3"/>
					<path id="Fill-163" class="st0" d="M8.9,15.4c-0.9,0.2-1.5,1.2-1.2,2.1c0.2,0.9,1.2,1.5,2.1,1.2c0.9-0.2,1.5-1.2,1.2-2.1
						C10.8,15.7,9.8,15.2,8.9,15.4"/>
					<path id="Fill-165" class="st0" d="M10.6,22.2c-0.7,0.2-1.1,0.9-0.9,1.5c0.2,0.7,0.9,1.1,1.5,0.9c0.7-0.2,1.1-0.9,0.9-1.5
						C11.9,22.4,11.3,22,10.6,22.2"/>
					<path id="Fill-167" class="st0" d="M9.6,32.9c0-0.1-4.2-8.9-0.2-15.6l0.3,0.2C5.7,24,9.8,32.7,9.8,32.7L9.6,32.9z"/>
					<path id="Fill-169" class="st0" d="M4.2,23.5c-0.8,0.2-1.3,1-1.1,1.8c0.2,0.8,1,1.3,1.8,1.1c0.8-0.2,1.3-1,1.1-1.8
						C5.8,23.7,5,23.3,4.2,23.5"/>
					<polygon id="Fill-171" class="st0" points="8.3,28.1 8,27.9 10.4,23.3 10.7,23.5 					"/>
					<path id="Fill-173" class="st0" d="M8.6,30.1c-0.1-0.1-3.6-1.7-4.2-5L4.7,25c0.5,3.1,4,4.7,4,4.8L8.6,30.1z"/>
					<path id="Fill-175" class="st0" d="M13.6,67.9c-1.4-4.7,1-11.7,1-11.7l0.3,0.1c0,0.1-2.4,6.9-1,11.5L13.6,67.9z"/>
					<path id="Fill-177" class="st0" d="M13.4,56c0,0.9,0.8,1.7,1.7,1.7s1.7-0.8,1.7-1.7s-0.8-1.7-1.7-1.7S13.4,55.1,13.4,56"/>
					<path id="Fill-179" class="st0" d="M14.7,61.8c0,0.7,0.5,1.2,1.2,1.2c0.7,0,1.2-0.5,1.2-1.2c0-0.7-0.5-1.2-1.2-1.2
						C15.2,60.6,14.7,61.2,14.7,61.8"/>
					<path id="Fill-181" class="st0" d="M10.9,58.5c0,0.7,0.5,1.2,1.2,1.2c0.7,0,1.2-0.5,1.2-1.2c0-0.7-0.5-1.2-1.2-1.2
						C11.4,57.3,10.9,57.8,10.9,58.5"/>
					<path id="Fill-183" class="st0" d="M13.3,64.6l-0.1-0.3c0,0,1.9-1,2.4-2.4l0.3,0.1C15.4,63.6,13.4,64.6,13.3,64.6"/>
					<path id="Fill-185" class="st0" d="M13.2,62.9c-0.1-0.1-1.3-1.6-1.1-4l0.3,0c-0.2,2.2,1,3.7,1,3.7L13.2,62.9z"/>
					<path id="Fill-187" class="st0" d="M14.7,69.8c-0.4-0.2-9.7-4.1-11.9-8.9l0.3-0.1c2.1,4.6,11.6,8.7,11.7,8.7L14.7,69.8z"/>
					<path id="Fill-189" class="st0" d="M1,60.8c0,1,0.8,1.8,1.8,1.8c1,0,1.8-0.8,1.8-1.8S3.8,59,2.8,59C1.8,59,1,59.8,1,60.8"/>
					<path id="Fill-191" class="st0" d="M6.3,61.5C6.3,62.3,7,63,7.8,63c0.8,0,1.5-0.7,1.5-1.5c0-0.8-0.7-1.5-1.5-1.5
						C7,60,6.3,60.6,6.3,61.5"/>
					<path id="Fill-193" class="st0" d="M4.5,67.3c0,0.8,0.7,1.5,1.5,1.5s1.5-0.7,1.5-1.5S6.9,65.8,6,65.8S4.5,66.5,4.5,67.3"/>
					<path id="Fill-195" class="st0" d="M9.6,67c0,0-0.6-3.8-2.1-5.6l0.2-0.2c1.6,1.9,2.1,5.6,2.1,5.7L9.6,67z"/>
					<path id="Fill-197" class="st0" d="M11.1,68.6c-1.2,0-3.4-0.2-5-1.2l0.2-0.3c2.3,1.4,5.8,1.1,5.8,1.1l0,0.3
						C12.1,68.5,11.7,68.6,11.1,68.6"/>
					<path id="Fill-199" class="st0" d="M8.4,54.4c-0.3-0.3-6.9-8-6.7-13.2l0.3,0c-0.2,5.1,6.5,12.9,6.6,13L8.4,54.4z"/>
					<g id="Group-203" transform="translate(0.000000, 39.000000)">
						<g id="Clip-202">
						</g>
						<defs>
							<filter id="Adobe_OpacityMaskFilter" filterUnits="userSpaceOnUse" x="0" y="0.2" width="3.6" height="3.6">
								<feColorMatrix  type="matrix" values="1 0 0 0 0  0 1 0 0 0  0 0 1 0 0  0 0 0 1 0"/>
							</filter>
						</defs>
						<mask maskUnits="userSpaceOnUse" x="0" y="0.2" width="3.6" height="3.6" id="mask-2">
							<g class="st2">
								<polygon id="path-1" class="st0" points="0,0.2 0,3.8 3.6,3.8 3.6,0.2 								"/>
							</g>
						</mask>
						<path id="Fill-201" class="st3" d="M0.2,1.2c-0.4,0.9-0.1,2,0.8,2.4s2,0.1,2.4-0.8s0.1-2-0.8-2.4C1.7,0,0.6,0.3,0.2,1.2"/>
					</g>
					<path id="Fill-204" class="st0" d="M4.6,43.2c-0.4,0.7-0.1,1.6,0.7,2c0.7,0.4,1.6,0.1,2-0.7c0.4-0.7,0.1-1.6-0.7-2
						C5.9,42.2,5,42.5,4.6,43.2"/>
					<path id="Fill-206" class="st0" d="M0.4,47.6c-0.4,0.7-0.1,1.7,0.7,2c0.7,0.4,1.7,0.1,2-0.7c0.4-0.7,0.1-1.7-0.7-2
						C1.7,46.6,0.8,46.9,0.4,47.6"/>
					<path id="Fill-208" class="st0" d="M5.4,49.7l-0.3-0.1c0,0,1.2-3.6,0.6-5.9L6,43.6C6.6,46,5.4,49.6,5.4,49.7"/>
					<path id="Fill-210" class="st0" d="M6.7,52.1c-0.1-0.1-3.4-1.3-4.9-3.7l0.3-0.2c1.4,2.3,4.7,3.6,4.7,3.6L6.7,52.1z"/>
					<path id="Fill-212" class="st0" d="M31.9,7.5l-0.3-0.1c0.1-0.2,1.4-4.2,3.6-5.2l0.1,0.3C33.3,3.4,31.9,7.4,31.9,7.5"/>
					<path id="Fill-214" class="st0" d="M33.5,2.3c0,0.7,0.6,1.3,1.3,1.3c0.7,0,1.3-0.6,1.3-1.3c0-0.7-0.6-1.3-1.3-1.3
						C34.1,0.9,33.5,1.5,33.5,2.3"/>
				</g>
				<g id="Group-370" transform="translate(272.000000, 0.535500)">
					<path id="Fill-217" class="st0" d="M0.3,89.2c4.9-0.6,10.1-2.1,15.4-4.6c4.9-2.3,9.3-5.2,13.1-8.6c6.1-5.6,10.2-13.3,11.8-22.3
						c1.5-8.4,0.6-17.4-2.4-25.1C33.6,16.8,22.7,7.9,7.6,3.5L7.5,3.9c15,4.4,25.7,13.2,30.3,24.9c6.4,16.4,2.5,36.2-9.2,47
						c-3.7,3.4-8.1,6.3-13,8.5c-5.3,2.4-10.4,3.9-15.3,4.5L0.3,89.2z"/>
					<path id="Fill-219" class="st0" d="M6.7,87.9c0.2-0.2,4.6-4.6,5.8-8.2l-0.3-0.1c-1.2,3.5-5.6,8-5.7,8L6.7,87.9z"/>
					<path id="Fill-221" class="st0" d="M14.2,79.1c0,0.9-0.7,1.6-1.6,1.6S11,79.9,11,79.1c0-0.9,0.7-1.6,1.6-1.6
						S14.2,78.2,14.2,79.1"/>
					<path id="Fill-223" class="st0" d="M10.4,81.3c0,0.7-0.6,1.2-1.2,1.2S7.9,82,7.9,81.3c0-0.7,0.6-1.2,1.2-1.2
						S10.4,80.6,10.4,81.3"/>
					<path id="Fill-225" class="st0" d="M12.7,84.2c0,0.6-0.5,1-1,1s-1-0.5-1-1c0-0.6,0.5-1,1-1S12.7,83.6,12.7,84.2"/>
					<path id="Fill-227" class="st0" d="M9.1,85.2c0.6-1.3,0.3-3.5,0.3-3.6l-0.3,0c0,0,0.3,2.3-0.2,3.5L9.1,85.2z"/>
					<path id="Fill-229" class="st0" d="M8.5,85.9c0.3-0.1,2.8-1,3.3-1.7L11.6,84c-0.4,0.6-2.4,1.3-3.1,1.6L8.5,85.9z"/>
					<path id="Fill-231" class="st0" d="M37.2,27.4l0.2-0.2c-0.1,0-6.2-4.6-10.6-5.4L26.8,22C31.1,22.8,37.2,27.3,37.2,27.4"/>
					<path id="Fill-233" class="st0" d="M25.7,19.8c1-0.1,2,0.6,2.1,1.6c0.1,1-0.6,2-1.6,2.1c-1,0.1-2-0.6-2.1-1.6
						C24,20.9,24.7,20,25.7,19.8"/>
					<path id="Fill-235" class="st0" d="M29,23.9c0.8-0.1,1.6,0.4,1.7,1.3c0.1,0.8-0.4,1.6-1.3,1.7c-0.8,0.1-1.6-0.4-1.7-1.3
						C27.7,24.8,28.2,24,29,23.9"/>
					<path id="Fill-237" class="st0" d="M32,20.7c0.7-0.1,1.3,0.4,1.4,1c0.1,0.7-0.4,1.3-1,1.4c-0.7,0.1-1.3-0.4-1.4-1
						C30.9,21.4,31.4,20.8,32,20.7"/>
					<path id="Fill-239" class="st0" d="M29.6,25.4c0,0,2.6-0.8,4.1-0.3l0.1-0.3c-1.6-0.5-4.2,0.3-4.3,0.3L29.6,25.4z"/>
					<path id="Fill-241" class="st0" d="M34.4,25.5l0.3-0.1c-0.1-0.1-1.6-3.1-2.6-3.6L32,22.1C32.7,22.4,34,24.6,34.4,25.5"/>
					<path id="Fill-243" class="st0" d="M28.3,15.1l0.3,0c0-0.1-0.1-7.7-2.1-11.7l-0.3,0.1C28.2,7.4,28.3,15,28.3,15.1"/>
					<path id="Fill-245" class="st0" d="M27.3,1.3C28,2.1,28,3.3,27.3,4c-0.7,0.7-1.9,0.8-2.7,0c-0.7-0.7-0.8-1.9,0-2.7
						C25.4,0.6,26.5,0.6,27.3,1.3"/>
					<path id="Fill-247" class="st0" d="M9.2,2.2c0.7,0.7,0.8,1.9,0,2.7c-0.7,0.7-1.9,0.8-2.7,0c-0.7-0.7-0.8-1.9,0-2.7
						C7.3,1.4,8.5,1.4,9.2,2.2"/>
					<path id="Fill-249" class="st0" d="M26.1,6.4c0.6,0.6,0.6,1.5,0,2.1c-0.6,0.6-1.5,0.6-2.1,0C23.4,8,23.4,7,24,6.5
						C24.5,5.9,25.5,5.9,26.1,6.4"/>
					<path id="Fill-251" class="st0" d="M30.4,6.9c0.5,0.5,0.5,1.2,0,1.7c-0.5,0.5-1.2,0.5-1.7,0c-0.5-0.5-0.5-1.2,0-1.7
						C29.2,6.4,30,6.4,30.4,6.9"/>
					<path id="Fill-253" class="st0" d="M28,10.9l0.3-0.1c-0.6-1.6-2.7-3.2-2.8-3.3l-0.2,0.2C25.3,7.8,27.5,9.4,28,10.9"/>
					<path id="Fill-255" class="st0" d="M28.4,11.8c0.1-0.1,1.5-3.1,1.3-4.2l-0.3,0.1c0.2,0.8-0.8,3.2-1.2,4L28.4,11.8z"/>
					<path id="Fill-257" class="st0" d="M21.5,89.2c1,0,2-0.1,2.7-0.3l-0.1-0.3C20,89.8,9.1,86.9,9,86.9l-0.1,0.3
						C9.3,87.3,16.6,89.2,21.5,89.2"/>
					<path id="Fill-259" class="st0" d="M25.4,88.7c0,0.7-0.6,1.3-1.3,1.3s-1.3-0.6-1.3-1.3s0.6-1.3,1.3-1.3S25.4,88,25.4,88.7"/>
					<path id="Fill-261" class="st0" d="M20,91.7c0,0.7-0.6,1.3-1.3,1.3c-0.7,0-1.3-0.6-1.3-1.3s0.6-1.3,1.3-1.3
						C19.4,90.4,20,91,20,91.7"/>
					<path id="Fill-263" class="st0" d="M21.6,86.6c0,0.7-0.6,1.3-1.3,1.3c-0.7,0-1.3-0.6-1.3-1.3s0.6-1.3,1.3-1.3
						C21,85.3,21.6,85.9,21.6,86.6"/>
					<path id="Fill-265" class="st0" d="M19.1,91.9l0.1-0.3c-1.8-0.5-3.8-3.3-3.8-3.3l-0.3,0.2C15.2,88.6,17.2,91.4,19.1,91.9"/>
					<path id="Fill-267" class="st0" d="M13.8,88.3c0,0,3.9-1.5,6.9-1.3l0-0.3c-3.1-0.3-6.9,1.2-7,1.3L13.8,88.3z"/>
					<path id="Fill-269" class="st0" d="M23.1,80.4c0-0.1,0.7-6.7,4.1-11.6l-0.3-0.2c-3.4,5-4.1,11.7-4.1,11.8L23.1,80.4z"/>
					<path id="Fill-271" class="st0" d="M28.8,68.3c0,1-0.8,1.8-1.8,1.8c-1,0-1.8-0.8-1.8-1.8c0-1,0.8-1.8,1.8-1.8
						C28,66.5,28.8,67.3,28.8,68.3"/>
					<path id="Fill-273" class="st0" d="M24,70.8c0,0.8-0.7,1.5-1.5,1.5c-0.8,0-1.5-0.7-1.5-1.5c0-0.8,0.7-1.5,1.5-1.5
						C23.3,69.3,24,69.9,24,70.8"/>
					<path id="Fill-275" class="st0" d="M28.8,72.4c0,0.7-0.5,1.2-1.2,1.2s-1.2-0.5-1.2-1.2s0.5-1.2,1.2-1.2S28.8,71.8,28.8,72.4"/>
					<path id="Fill-277" class="st0" d="M23.2,78.1l0.3-0.1c0,0-1.1-4-0.8-6.5l-0.3,0C22.1,74,23.1,78,23.2,78.1"/>
					<path id="Fill-279" class="st0" d="M24.2,75.2c0,0,2.1-2.3,3.4-2.6l-0.1-0.3c-1.4,0.3-3.5,2.6-3.6,2.7L24.2,75.2z"/>
					<path id="Fill-281" class="st0" d="M20.5,12.2c2.4,0,4.1-0.3,4.1-0.3l0-0.3c-0.1,0-6.7,1-12.3-1L12.2,11
						C15,12,18.1,12.2,20.5,12.2"/>
					<path id="Fill-283" class="st0" d="M11.4,9.2c1-0.3,2,0.3,2.2,1.3c0.3,1-0.3,2-1.3,2.2c-1,0.3-2-0.3-2.2-1.3
						C9.9,10.5,10.4,9.5,11.4,9.2"/>
					<path id="Fill-285" class="st0" d="M15.1,13.3c0.8-0.2,1.6,0.3,1.9,1.1c0.2,0.8-0.3,1.6-1.1,1.9C15,16.4,14.2,16,14,15.1
						C13.8,14.3,14.2,13.5,15.1,13.3"/>
					<path id="Fill-287" class="st0" d="M15.4,8.2C16.1,8,16.7,8.4,16.9,9c0.2,0.6-0.2,1.3-0.9,1.5c-0.6,0.2-1.3-0.2-1.5-0.9
						C14.4,9,14.8,8.3,15.4,8.2"/>
					<path id="Fill-289" class="st0" d="M16.1,14.6c2.5-0.3,6.1-2.3,6.2-2.4l-0.2-0.3c0,0-3.6,2.1-6.1,2.4L16.1,14.6z"/>
					<path id="Fill-291" class="st0" d="M19.1,12.2l0.1-0.3c0,0-2.8-1.4-3.4-2.7l-0.3,0.1C16.2,10.7,19,12.2,19.1,12.2"/>
					<path id="Fill-293" class="st0" d="M40.7,48.5l0.3-0.2c0-0.1-3.7-5.7-4.1-11.6l-0.3,0C37,42.8,40.7,48.5,40.7,48.5"/>
					<path id="Fill-295" class="st0" d="M37.8,35.4c0.6,0.8,0.5,1.9-0.3,2.6c-0.8,0.6-1.9,0.5-2.6-0.3c-0.6-0.8-0.5-1.9,0.3-2.6
						C36,34.5,37.2,34.6,37.8,35.4"/>
					<path id="Fill-297" class="st0" d="M35.6,40.3c0.5,0.7,0.4,1.6-0.2,2.1s-1.6,0.4-2.1-0.2c-0.5-0.7-0.4-1.6,0.2-2.1
						C34.2,39.6,35.1,39.7,35.6,40.3"/>
					<path id="Fill-299" class="st0" d="M40.5,38.6c0.4,0.5,0.3,1.3-0.2,1.7c-0.5,0.4-1.3,0.3-1.7-0.2c-0.4-0.5-0.3-1.3,0.2-1.7
						C39.3,38,40,38.1,40.5,38.6"/>
					<path id="Fill-301" class="st0" d="M39.6,46.5l0.2-0.2c0,0-3.4-2.5-4.7-4.6l-0.3,0.2C36.2,44,39.5,46.4,39.6,46.5"/>
					<path id="Fill-303" class="st0" d="M38.6,43.6c0,0,0.2-3.1,1-4.2l-0.2-0.2c-0.9,1.1-1.1,4.2-1.1,4.4L38.6,43.6z"/>
					<path id="Fill-305" class="st0" d="M41.8,75.5c0,0.9-0.8,1.7-1.7,1.7c-0.9,0-1.7-0.8-1.7-1.7s0.8-1.7,1.7-1.7
						C41.1,73.8,41.8,74.6,41.8,75.5"/>
					<path id="Fill-307" class="st0" d="M34.8,75.6c0,0.7-0.6,1.3-1.3,1.3c-0.7,0-1.3-0.6-1.3-1.3s0.6-1.3,1.3-1.3
						C34.3,74.3,34.8,74.9,34.8,75.6"/>
					<path id="Fill-309" class="st0" d="M28.5,79.5c3.3,0,8.1-0.7,11.4-4l-0.2-0.2c-5.4,5.4-14.8,3.6-14.9,3.6l-0.1,0.3
						C24.8,79.2,26.3,79.5,28.5,79.5"/>
					<path id="Fill-311" class="st0" d="M35.2,82.1c0,0.8-0.7,1.5-1.5,1.5c-0.8,0-1.5-0.7-1.5-1.5s0.7-1.5,1.5-1.5
						C34.5,80.6,35.2,81.2,35.2,82.1"/>
					<polygon id="Fill-313" class="st0" points="29.9,79.5 33.8,76 33.6,75.8 29.7,79.3 					"/>
					<path id="Fill-315" class="st0" d="M33.2,82.3c0.1,0,0.3,0,0.4,0l0-0.3c-3.2,0.3-5.6-2.7-5.6-2.7l-0.2,0.2
						C27.8,79.6,30.1,82.3,33.2,82.3"/>
					<path id="Fill-317" class="st0" d="M40,15.4c0.9,0.2,1.5,1.2,1.2,2.1c-0.2,0.9-1.2,1.5-2.1,1.2c-0.9-0.2-1.5-1.2-1.2-2.1
						C38.1,15.7,39.1,15.2,40,15.4"/>
					<path id="Fill-319" class="st0" d="M38.3,22.2c0.7,0.2,1.1,0.9,0.9,1.5c-0.2,0.7-0.9,1.1-1.5,0.9c-0.7-0.2-1.1-0.9-0.9-1.5
						C37,22.4,37.6,22,38.3,22.2"/>
					<path id="Fill-321" class="st0" d="M39.4,32.9c0-0.1,4.2-8.9,0.2-15.6l-0.3,0.2c3.9,6.6-0.1,15.3-0.2,15.4L39.4,32.9z"/>
					<path id="Fill-323" class="st0" d="M44.7,23.5c0.8,0.2,1.3,1,1.1,1.8c-0.2,0.8-1,1.3-1.8,1.1c-0.8-0.2-1.3-1-1.1-1.8
						C43.1,23.7,43.9,23.3,44.7,23.5"/>
					<polygon id="Fill-325" class="st0" points="40.6,28.1 40.9,27.9 38.5,23.3 38.2,23.5 					"/>
					<path id="Fill-327" class="st0" d="M40.3,30.1c0.1-0.1,3.6-1.7,4.2-5L44.2,25c-0.5,3.1-4,4.7-4,4.8L40.3,30.1z"/>
					<path id="Fill-329" class="st0" d="M35.4,67.9c1.4-4.7-1-11.7-1-11.7L34,56.3c0,0.1,2.4,6.9,1,11.5L35.4,67.9z"/>
					<path id="Fill-331" class="st0" d="M35.6,56c0,0.9-0.8,1.7-1.7,1.7S32.2,57,32.2,56s0.8-1.7,1.7-1.7S35.6,55.1,35.6,56"/>
					<path id="Fill-333" class="st0" d="M34.2,61.8c0,0.7-0.5,1.2-1.2,1.2s-1.2-0.5-1.2-1.2c0-0.7,0.5-1.2,1.2-1.2
						S34.2,61.2,34.2,61.8"/>
					<path id="Fill-335" class="st0" d="M38,58.5c0,0.7-0.5,1.2-1.2,1.2c-0.7,0-1.2-0.5-1.2-1.2c0-0.7,0.5-1.2,1.2-1.2
						C37.5,57.3,38,57.8,38,58.5"/>
					<path id="Fill-337" class="st0" d="M35.6,64.6l0.1-0.3c0,0-1.9-1-2.4-2.4L33.1,62C33.5,63.6,35.5,64.6,35.6,64.6"/>
					<path id="Fill-339" class="st0" d="M35.7,62.9c0.1-0.1,1.3-1.6,1.1-4l-0.3,0c0.2,2.2-1,3.7-1,3.7L35.7,62.9z"/>
					<path id="Fill-341" class="st0" d="M34.2,69.8c0.4-0.2,9.7-4.1,11.9-8.9l-0.3-0.1c-2.1,4.6-11.6,8.7-11.7,8.7L34.2,69.8z"/>
					<path id="Fill-343" class="st0" d="M47.9,60.8c0,1-0.8,1.8-1.8,1.8c-1,0-1.8-0.8-1.8-1.8s0.8-1.8,1.8-1.8
						C47.1,59,47.9,59.8,47.9,60.8"/>
					<path id="Fill-345" class="st0" d="M42.6,61.5c0,0.8-0.7,1.5-1.5,1.5c-0.8,0-1.5-0.7-1.5-1.5c0-0.8,0.7-1.5,1.5-1.5
						C41.9,60,42.6,60.6,42.6,61.5"/>
					<path id="Fill-347" class="st0" d="M44.4,67.3c0,0.8-0.7,1.5-1.5,1.5s-1.5-0.7-1.5-1.5s0.7-1.5,1.5-1.5S44.4,66.5,44.4,67.3"/>
					<path id="Fill-349" class="st0" d="M39.3,67c0,0,0.6-3.8,2.1-5.6l-0.2-0.2C39.6,63.1,39,66.8,39,67L39.3,67z"/>
					<path id="Fill-351" class="st0" d="M37.8,68.6c1.2,0,3.4-0.2,5-1.2l-0.2-0.3c-2.3,1.4-5.8,1.1-5.8,1.1l0,0.3
						C36.8,68.5,37.2,68.6,37.8,68.6"/>
					<path id="Fill-353" class="st0" d="M40.5,54.4c0.3-0.3,6.9-8,6.7-13.2l-0.3,0c0.2,5.1-6.5,12.9-6.6,13L40.5,54.4z"/>
					<g id="Group-357" transform="translate(45.000000, 39.000000)">
						<g id="Clip-356">
						</g>
						<defs>
							<filter id="Adobe_OpacityMaskFilter_1_" filterUnits="userSpaceOnUse" x="0.3" y="0.2" width="3.6" height="3.6">
								<feColorMatrix  type="matrix" values="1 0 0 0 0  0 1 0 0 0  0 0 1 0 0  0 0 0 1 0"/>
							</filter>
						</defs>
						<mask maskUnits="userSpaceOnUse" x="0.3" y="0.2" width="3.6" height="3.6" id="mask-4">
							<g class="st4">
								<polygon id="path-3" class="st0" points="3.9,3.8 3.9,0.2 0.3,0.2 0.3,3.8 								"/>
							</g>
						</mask>
						<path id="Fill-355" class="st5" d="M3.7,1.2c0.4,0.9,0.1,2-0.8,2.4S1,3.7,0.5,2.8s-0.1-2,0.8-2.4C2.2,0,3.3,0.3,3.7,1.2"/>
					</g>
					<path id="Fill-358" class="st0" d="M44.3,43.2c0.4,0.7,0.1,1.6-0.7,2c-0.7,0.4-1.6,0.1-2-0.7c-0.4-0.7-0.1-1.6,0.7-2
						C43,42.2,43.9,42.5,44.3,43.2"/>
					<path id="Fill-360" class="st0" d="M48.5,47.6c0.4,0.7,0.1,1.7-0.7,2c-0.7,0.4-1.7,0.1-2-0.7c-0.4-0.7-0.1-1.7,0.7-2
						C47.2,46.6,48.1,46.9,48.5,47.6"/>
					<path id="Fill-362" class="st0" d="M43.5,49.7l0.3-0.1c0,0-1.2-3.6-0.6-5.9l-0.3-0.1C42.3,46,43.5,49.6,43.5,49.7"/>
					<path id="Fill-364" class="st0" d="M42.2,52.1c0.1-0.1,3.4-1.3,4.9-3.7l-0.3-0.2c-1.4,2.3-4.7,3.6-4.7,3.6L42.2,52.1z"/>
					<path id="Fill-366" class="st0" d="M17,7.5l0.3-0.1c-0.1-0.2-1.4-4.2-3.6-5.2l-0.1,0.3C15.6,3.4,17,7.4,17,7.5"/>
					<path id="Fill-368" class="st0" d="M15.4,2.3c0,0.7-0.6,1.3-1.3,1.3c-0.7,0-1.3-0.6-1.3-1.3c0-0.7,0.6-1.3,1.3-1.3
						C14.8,0.9,15.4,1.5,15.4,2.3"/>
				</g>
			</g>
			<path id="ULTIMATE-GIFT-GUIDE" class="st0" d="M35.6,54.1c0.5,0.8,1.4,1.2,2.7,1.2c1.3,0,2.3-0.4,3-1.2s1.1-2.1,1.1-3.7V39.5
				h-1.6V39h3.5v0.5h-1.3v10.7c0,2-0.4,3.5-1.3,4.4c-0.9,1-2.4,1.5-4.7,1.5c-2.2,0-3.9-0.5-5.1-1.4c-1.2-0.9-1.8-2.5-1.8-4.8V39.5
				h-1.3V39h7.6v0.5h-1.6v11.2C34.9,52.2,35.1,53.3,35.6,54.1z M45.3,39h8.6v0.5h-2.5v15.7h0.9c1.4,0,2.4-0.4,3.3-1.2
				c0.8-0.8,1.6-2.1,2.5-3.8h0.5L58,55.8H45.3v-0.5h1.4V39.6h-1.4V39z M74.3,39l0.2,6h-0.5c-0.7-2.1-1.3-3.6-1.9-4.4
				c-0.5-0.8-1.3-1.2-2.4-1.2h-0.3v15.8h2v0.5h-8.8v-0.5h2V39.5h-0.3c-1,0-1.8,0.4-2.4,1.2c-0.6,0.8-1.2,2.2-1.8,4.3h-0.5l0.2-6
				H74.3z M76.1,39h7.3v0.5h-1.3v15.9h1.3v0.5h-7.3v-0.5h1.3V39.5h-1.3V39z M97.1,39h6.4v0.5h-1.3v15.9h1.3v0.5h-7.3v-0.5h1.3v-15
				h-0.1l-3.6,15.5h-3l-4.2-15.5h-0.1v15.1h1.3v0.5h-3.3v-0.5h1.3V39.5h-1.3V39h6.5l3.2,12.4L97.1,39z M114.5,55.4l-1.8-5.2H108
				l-1.8,5.2h1.8v0.5h-3.7v-0.5h1.1l6.1-16.5h2l6,16.5h1.1v0.5h-7.8v-0.5H114.5z M110.5,43.4l-2.3,6.3h4.3L110.5,43.4z M136.1,39
				l0.2,6h-0.5c-0.7-2.1-1.3-3.6-1.9-4.4s-1.3-1.2-2.4-1.2h-0.3v15.8h2v0.5h-8.8v-0.5h2V39.5h-0.3c-1,0-1.8,0.4-2.4,1.2
				c-0.6,0.8-1.2,2.2-1.8,4.3h-0.5l0.2-6H136.1z M137.7,39h12.5l0.2,4.8H150c-0.7-1.6-1.4-2.7-2.1-3.3s-1.8-0.9-3.2-0.9h-0.8V47h0.8
				c0.8,0,1.4-0.3,1.9-0.9c0.5-0.6,0.9-1.3,1.1-2.3h0.4v7.1h-0.4c-0.3-1.2-0.7-2.1-1.2-2.6s-1.2-0.8-2-0.8h-0.6v7.7h0.9
				c1.5,0,2.7-0.4,3.8-1.3c1-0.9,1.7-2,2.1-3.4h0.5l-0.2,5.2h-13.2v-0.5h1.4V39.6h-1.4V39z M165.8,55.6c0.8,0,1.3-0.1,1.5-0.4
				s0.3-0.8,0.3-1.5V49h-1.5v-0.5h6.9V49h-0.9v6.8h-0.4c-0.3-0.4-0.7-0.6-1.2-0.6c-0.2,0-0.9,0.1-2,0.4c-1.1,0.3-2.1,0.4-2.8,0.4
				c-2.6,0-4.6-0.7-6.1-2.1c-1.4-1.4-2.1-3.5-2.1-6.3s0.7-5,2.2-6.5c1.5-1.5,3.5-2.3,6-2.3c1,0,2,0.1,2.9,0.4c1,0.2,1.6,0.4,1.7,0.4
				c0.2,0,0.3,0,0.4-0.1c0.1-0.1,0.2-0.2,0.3-0.4h0.3l0.2,5.2H171c-0.8-1.6-1.6-2.8-2.4-3.7c-0.8-0.9-1.7-1.3-2.7-1.3
				c-2.4,0-3.7,2.4-3.7,7.2v1.9c0,2.4,0.3,4.2,0.9,5.4C163.9,55,164.7,55.6,165.8,55.6z M174.4,39h7.3v0.5h-1.3v15.9h1.3v0.5h-7.3
				v-0.5h1.3V39.5h-1.3V39z M182.9,39h12.5l0.2,5h-0.4c-0.6-1.7-1.3-2.9-2.1-3.5c-0.8-0.6-1.9-0.9-3.5-0.9H189v7.8h1.1
				c0.8,0,1.4-0.3,1.9-0.8c0.5-0.6,0.9-1.3,1.1-2.3h0.4v7.1H193c-0.3-1.2-0.6-2.1-1.1-2.6c-0.5-0.5-1.1-0.8-1.9-0.8H189v7.3h3v0.5
				h-9.1v-0.5h1.4V39.6h-1.4V39z M211.8,39l0.2,6h-0.5c-0.7-2.1-1.3-3.6-1.9-4.4c-0.5-0.8-1.3-1.2-2.4-1.2h-0.3v15.8h2v0.5h-8.8
				v-0.5h2V39.5h-0.3c-1,0-1.8,0.4-2.4,1.2c-0.6,0.8-1.2,2.2-1.8,4.3h-0.5l0.2-6H211.8z M226.6,55.6c0.8,0,1.3-0.1,1.5-0.4
				s0.3-0.8,0.3-1.5V49h-1.5v-0.5h6.9V49h-0.9v6.8h-0.4c-0.3-0.4-0.7-0.6-1.2-0.6c-0.2,0-0.9,0.1-2,0.4c-1.1,0.3-2.1,0.4-2.8,0.4
				c-2.6,0-4.6-0.7-6.1-2.1c-1.4-1.4-2.1-3.5-2.1-6.3s0.7-5,2.2-6.5c1.5-1.5,3.5-2.3,6-2.3c1,0,2,0.1,2.9,0.4s1.6,0.4,1.7,0.4
				s0.3,0,0.4-0.1c0.1-0.1,0.2-0.2,0.3-0.4h0.3l0.2,5.2h-0.4c-0.8-1.6-1.6-2.8-2.4-3.7c-0.8-0.9-1.7-1.3-2.7-1.3
				c-2.4,0-3.7,2.4-3.7,7.2v1.9c0,2.4,0.3,4.2,0.9,5.4S225.5,55.6,226.6,55.6z M241.9,54.1c0.5,0.8,1.4,1.2,2.7,1.2s2.3-0.4,3-1.2
				c0.7-0.8,1.1-2.1,1.1-3.7V39.5h-1.6V39h3.5v0.5h-1.3v10.7c0,2-0.4,3.5-1.3,4.4c-0.9,1-2.4,1.5-4.7,1.5s-3.9-0.5-5.1-1.4
				c-1.2-0.9-1.8-2.5-1.8-4.8V39.5h-1.3V39h7.6v0.5h-1.6v11.2C241.1,52.2,241.4,53.3,241.9,54.1z M251.6,39h7.3v0.5h-1.3v15.9h1.3
				v0.5h-7.3v-0.5h1.3V39.5h-1.3V39z M276.7,47.1c0,3.3-0.9,5.6-2.8,6.9c-1.7,1.2-4.1,1.8-7.1,1.8H260v-0.5h1.6V39.5H260V39h7.4
				c3.1,0,5.4,0.6,6.9,1.9C275.9,42.2,276.7,44.2,276.7,47.1z M266.3,55.4h0.9c1.6,0,2.8-0.6,3.5-1.7c0.7-1.1,1-3.1,1-5.7v-1.4
				c0-3.6-0.7-5.8-2.1-6.5c-0.7-0.4-1.6-0.5-2.8-0.5h-0.6V55.4z M278.2,39h12.5l0.2,4.8h-0.4c-0.7-1.6-1.4-2.7-2.1-3.3
				s-1.8-0.9-3.2-0.9h-0.8V47h0.8c0.8,0,1.4-0.3,1.9-0.9c0.5-0.6,0.9-1.3,1.1-2.3h0.4v7.1H288c-0.3-1.2-0.7-2.1-1.2-2.6
				s-1.2-0.8-2-0.8h-0.6v7.7h0.9c1.5,0,2.7-0.4,3.8-1.3c1-0.9,1.7-2,2.1-3.4h0.5l-0.2,5.2h-13.2v-0.5h1.4V39.6h-1.4V39z"/>
		</g>
	</g>
</g>
</svg>
