<?xml version="1.0" encoding="utf-8"?>
<!-- Generator: Adobe Illustrator 20.1.0, SVG Export Plug-In . SVG Version: 6.00 Build 0)  -->
<svg version="1.2" baseProfile="tiny" id="Layer_1" xmlns="http://www.w3.org/2000/svg" xmlns:xlink="http://www.w3.org/1999/xlink"
	 x="0px" y="0px" viewBox="0 0 138.5 40" xml:space="preserve">
<g>
	<path fill="#FFFFFF" d="M137.2,12.4l-0.2,0.9l-1.8,0.5c-0.4,0.1-0.8,0.5-1,0.7l-8.1,10.4L123,35c-0.2,0.5,0,0.8,0.4,0.9l2.1,0.5
		l-0.3,0.9h-10.7l0.3-0.9l2-0.5c0.5-0.1,0.8-0.4,1-1.1l3.1-10.3l-2.7-10c-0.1-0.5-0.3-0.9-0.8-1l-1.2-0.3l0.2-0.9h9.1l-0.2,0.9
		l-1.5,0.4c-0.5,0.2-0.7,0.4-0.5,1l2.2,8.5l6.5-8.6c0.1-0.2,0.2-0.3,0.2-0.5c0-0.2-0.2-0.3-0.4-0.4l-1.8-0.4l0.2-0.9L137.2,12.4
		L137.2,12.4z M115.9,18h-1.2l-1.1-3.2c-0.2-0.6-0.5-0.8-1.1-0.8h-2.7l-6.2,21c-0.2,0.5,0,0.8,0.5,1l1.8,0.5l-0.3,0.9H95.2l0.3-0.9
		l1.9-0.4c0.8-0.2,1-0.4,1.2-1.2l6.2-20.8h-3.1c-0.5,0-0.9,0.3-1.2,0.7l-2.2,3h-1.2l2-6h0.8c0.2,0.4,0.5,0.6,0.9,0.6h13.1
		c0.7,0,1-0.2,1.2-0.6h0.8L115.9,18L115.9,18z M96.6,17.7h-1.2l-1.2-3.1c-0.2-0.5-0.5-0.6-1-0.6h-5l-2.8,9.5h4.7
		c0.5,0,0.8-0.2,1.1-0.7l1.3-1.9h1.2l-2.2,7.6h-1.2l0-2.7c0-0.5-0.3-0.6-0.8-0.6H85l-3.1,10.5h6.8c0.9,0,1.3-0.2,1.8-0.8l2.7-3.4
		h1.3L91.8,38h-0.9c-0.2-0.5-0.6-0.7-1.4-0.7H73.8l0.3-0.9L76,36c0.5-0.1,0.8-0.4,1-1.1l6-20.3c0.1-0.4,0-0.7-0.3-0.8L81,13.2
		l0.2-0.9h13.5c0.5,0,0.8-0.2,1.1-0.6h0.8V17.7z M137,5.8c-11.3,2.6-25.3,3.9-37.1,3.9c-29.6,0-50.3-4-59.1-6.1l-37,35l-3,0.4
		L11.6,6C9.9,6.9,4,8.4,1.3,8.6C0.5,8.7,0.5,8.2,0.9,8c2.6-1.5,3.8-2.7,5-5.6c5.3,1.3,9.4,0.3,14.2-1.5l-9.8,27.8L36.4,0.3
		c16.7,3.6,34.4,5.1,48.1,5.1c12.7,0,23.9-2,29.7-4.4c8.1,4.8,17.3,4.4,22.6,4.1C137.5,4.9,137.6,5.7,137,5.8L137,5.8z M80,12.4
		l-0.2,0.9l-2,0.6c-0.4,0.1-0.6,0.3-0.7,0.8l-6,20.2c-0.2,0.6-0.3,1,0.4,1.2l1.4,0.4l-0.3,0.9h-9.7l0.3-0.9l1.4-0.4
		c0.8-0.2,1-0.5,1.2-1.2l6-20.3c0.1-0.4,0-0.7-0.3-0.8l-1.6-0.5l0.2-0.9L80,12.4L80,12.4z M65.6,18.5c0,3.8-3,7.1-7.9,6.9
		c-0.8,0-2.1-0.2-2.8-0.4c0,4.6,1.4,9.4,4.2,9.4c1.7,0,2.2-1.4,2.4-2.6c0-0.2,0.2-0.3,0.4-0.1c0.6,0.6,1.2,1.5,1.2,2.9
		c0,2.9-1.8,4.1-4.5,4.1c-6.9,0-7.2-9.9-6.1-16c0.1-0.3,0.2-0.4,0.4-0.2c0.9,0.5,1.9,0.8,3.3,0.8c2.2,0,4.3-1.8,4.3-5
		c0-3.2-2.6-5.2-6.5-5.2l-6.5,21.7c-0.1,0.2-0.1,0.4-0.1,0.5c0,0.3,0.1,0.4,0.4,0.5l1.9,0.5l-0.3,0.9h-9.7l0.3-0.9l1.4-0.4
		c0.4-0.1,0.7-0.4,0.9-1.1l6.4-21.7c-2.8,0.6-4.1,1.6-4.1,3.2c0,0.9,0.2,1.3,0.5,1.8c0.1,0.2,0.1,0.3,0.1,0.5c0,0.4-0.3,0.7-1.2,0.7
		c-1.4,0-2.8-0.8-2.8-2.9c0-1.2,0.7-5.3,11.3-5.3C61.7,11.1,65.6,14,65.6,18.5L65.6,18.5z M34.4,16.8L24.5,29h8.8L34.4,16.8
		L34.4,16.8z M39.6,36.5l-0.3,0.9h-9.1l0.3-0.9l1.6-0.4c0.4-0.1,0.7-0.4,0.7-1l0.4-4.2H23l-3.3,4.1c-0.2,0.3-0.3,0.5-0.3,0.6
		c0,0.2,0.1,0.3,0.4,0.4l1.5,0.5l-0.3,0.9h-7.7l0.3-0.9l1.6-0.4c0.6-0.1,1.1-0.6,1.5-1.1l20.7-24.3l2.1-0.4l-2,24.8
		c0,0.5,0,0.9,0.6,1L39.6,36.5L39.6,36.5z"/>
</g>
</svg>
