<?xml version="1.0" encoding="utf-8"?>
<!-- Generator: Adobe Illustrator 20.1.0, SVG Export Plug-In . SVG Version: 6.00 Build 0)  -->
<svg version="1.2" baseProfile="tiny" id="Layer_1" xmlns="http://www.w3.org/2000/svg" xmlns:xlink="http://www.w3.org/1999/xlink"
	 x="0px" y="0px" viewBox="0 0 101.6 29.8" xml:space="preserve">
<path fill="#FFFFFF" d="M84.8,29.8c8.7,0,16.8-3.1,16.8-14.9S93.5,0,84.8,0H77l-3.1,11.7v18.1H84.8z M82.5,22.2V7.6h2.4
	c5.4,0,7.8,1.9,7.8,7.3s-2.4,7.3-7.8,7.3H82.5z M42.1,29.8h8.5l4.2-15.9L59,29.8h8.6l8-29.8h-8l-4.2,16.3L59.1,0H51l-4.4,16.5
	l-4-15.4l-4.1,15.5L42.1,29.8z M8.1,29.8h8.6l4.2-15.9l4.2,15.9h8.5l8-29.8h-7.9l-4.2,16.4L25.1,0H17l-4.3,16.3L8.5,0H0L8.1,29.8
	L8.1,29.8z"/>
</svg>
