<?xml version="1.0" encoding="UTF-8"?>
<svg viewBox="0 0 72 25" version="1.1" xmlns="http://www.w3.org/2000/svg" xmlns:xlink="http://www.w3.org/1999/xlink">
    <title>4717ECD3-D9A7-413A-B0EE-A6FC34B8DA34</title>
    <g id="What-to-Watch" stroke="none" stroke-width="1" fill="none" fill-rule="evenodd">
        <g id="What-to-Watch-Mobile--W/-Menu" transform="translate(-152.000000, -170.000000)" fill="#000000" fill-rule="nonzero">
            <g id="Group-4" transform="translate(12.000000, 107.000000)">
                <g id="Group" transform="translate(133.000000, 43.000000)">
                    <g id="Apple_TV_Plus_Logo" transform="translate(7.000000, 20.000000)">
                        <path d="M13.9781627,4.09090909 C14.9081325,2.95454545 15.3516566,1.50568182 15.2228916,0.0568181818 C13.7921687,0.198863636 12.4615964,0.880681818 11.5173193,1.96022727 C10.5730422,3.01136364 10.0865964,4.38920455 10.186747,5.79545455 C11.6317771,5.85227273 13.0481928,5.21306818 13.9781627,4.09090909" id="Path"></path>
                        <path d="M13.9781627,3.99147727 C14.8795181,2.88352273 15.3230422,1.46306818 15.2228916,0.0426136364 C13.7921687,0.184659091 12.4615964,0.866477273 11.5173193,1.94602273 C10.5730422,2.99715909 10.0865964,4.375 10.186747,5.78125 C11.6603916,5.82386364 13.0625,5.15625 13.9781627,3.99147727" id="Path"></path>
                        <path d="M15.1942771,6.02272727 C13.1340361,5.89488636 11.374247,7.1875 10.4299699,7.1875 C9.48569277,7.1875 7.94051205,6.07954545 6.29518072,6.10795455 C4.12048193,6.16477273 2.14608434,7.37215909 1.11596386,9.26136364 C-1.11596386,13.0681818 0.52936747,18.75 2.70406627,21.7897727 C3.74849398,23.3664773 5.00753012,24.9431818 6.6814759,24.9431818 C8.35542169,24.9431818 8.87048193,23.9346591 10.7876506,23.9346591 C12.7048193,23.9346591 13.248494,24.9431818 14.9224398,24.9147727 C16.5963855,24.8863636 17.7266566,23.3380682 18.7710843,21.8465909 C19.5150602,20.7670455 20.0873494,19.5738636 20.4879518,18.3238636 C18.4563253,17.4289773 17.1543675,15.4261364 17.1686747,13.2244318 C17.1972892,11.2926136 18.2274096,9.50284091 19.8870482,8.49431818 C18.8283133,7.00284091 17.125753,6.07954545 15.2944277,6.02272727" id="Path"></path>
                        <path d="M31.4615964,4.00568182 L31.4615964,7.94034091 L34.6378012,7.94034091 L34.6378012,10.6534091 L31.4615964,10.6534091 L31.4615964,19.8863636 C31.4615964,21.3210227 32.0911145,21.9886364 33.5075301,21.9886364 C33.8938253,21.9886364 34.2658133,21.9602273 34.6521084,21.9034091 L34.6521084,24.6022727 C34.0225904,24.7159091 33.3787651,24.7727273 32.7349398,24.7585227 C29.315512,24.7585227 27.9706325,23.4801136 27.9706325,20.2414773 L27.9706325,10.6960227 L25.5670181,10.6960227 L25.5670181,7.94034091 L28.0135542,7.94034091 L28.0135542,4.00568182 L31.4615964,4.00568182 L31.4615964,4.00568182 Z" id="Path"></path>
                        <polygon id="Path" points="46.2695783 24.7159091 42.5783133 24.7159091 36.4834337 7.94034091 40.1746988 7.94034091 44.4096386 21.3210227 44.4096386 21.3210227 48.7018072 7.94034091 52.3215361 7.94034091"></polygon>
                        <polygon id="Path" points="71.2070783 14.6590909 64.4826807 14.6590909 64.4826807 7.96875 61.2778614 7.96875 61.2778614 14.6590909 54.5820783 14.6590909 54.5820783 17.7982955 61.2778614 17.7982955 61.2778614 24.53125 64.4826807 24.53125 64.4826807 17.7982955 71.2070783 17.7982955"></polygon>
                    </g>
                </g>
            </g>
        </g>
    </g>
</svg>