<svg viewBox="0 0 442 127" version="1.1" xmlns="http://www.w3.org/2000/svg" xmlns:xlink="http://www.w3.org/1999/xlink">
    <g id="Documentaries" stroke="none" stroke-width="1" fill="none" fill-rule="evenodd">
        <g id="Artboard" fill-rule="nonzero">
            <g id="Audible_logo">
                <g id="Group" transform="translate(311.037037, 0.000000)" fill="#F8991C">
                    <polygon id="Path" points="65.3953216 70.1341131 130.618324 29.4666667 130.618324 40.4951267 65.3953216 81.3348928 0.0861598441 40.4951267 0.0861598441 29.4666667"></polygon>
                    <path d="M65.3953216,19.1274854 C50.6619883,19.1274854 37.7380117,26.537232 30.3282651,37.9964912 L30.3282651,37.9964912 C30.931384,37.3933723 31.2760234,37.0487329 31.8791423,36.6179337 C50.2311891,21.3676413 76.6822612,24.8140351 91.0709552,44.0276803 L100.634698,37.9103314 L100.634698,37.9103314 C93.0526316,26.7957115 80.0424951,19.1274854 65.3953216,19.1274854" id="Path"></path>
                    <path d="M65.3953216,37.9964912 C57.3824561,37.9964912 50.3173489,42.0460039 46.0955166,47.9048733 C49.5419103,45.4062378 53.5052632,44.1138402 57.7270955,44.1138402 C64.7922027,44.1138402 71.0818713,47.7325536 75.3037037,53.8499025 L84.4366472,48.1633528 L84.4366472,48.1633528 C80.4732943,41.8736842 73.4081871,37.9964912 65.3953216,37.9964912" id="Path"></path>
                    <path d="M21.2814815,21.4538012 C48.1633528,0.258479532 86.1598441,6.03118908 106.407407,34.2054581 L106.579727,34.3777778 L116.488109,28.2604288 L116.488109,28.2604288 C105.631969,11.6315789 86.762963,0.603118908 65.3953216,0.603118908 C44.2,0.603118908 25.3309942,11.4592593 14.3025341,28.2604288 C16.2842105,26.0202729 18.782846,23.3493177 21.2814815,21.4538012" id="Path"></path>
                </g>
                <path d="M59.8810916,103.822612 L59.8810916,64.8783626 L72.6327485,64.8783626 L72.6327485,103.391813 C72.6327485,112.783236 80.4732943,115.023392 84.8674464,115.023392 C94.4311891,115.023392 97.6191033,109.336842 97.6191033,106.062768 L97.6191033,64.8783626 L110.37076,64.8783626 L110.37076,125.362573 L102.961014,125.362573 L97.9637427,118.469786 C94.5173489,122.691618 88.8307992,126.482651 80.3871345,126.482651 C68.2385965,126.568811 59.8810916,118.555945 59.8810916,103.822612 Z" id="Path" fill="#2D2D2D"></path>
                <path d="M204.888109,43.5968811 L204.888109,125.448733 L212.125536,125.448733 L216.864327,118.555945 C220.310721,122.777778 225.997271,126.741131 234.440936,126.741131 C245.727875,126.741131 255.205458,119.848343 255.205458,104.598051 L255.205458,85.9013645 C255.205458,70.6510721 245.641715,63.7582846 233.837817,63.7582846 C225.652632,63.7582846 220.138402,67.3769981 217.208967,70.9957115 L217.208967,43.5107212 L204.888109,43.5968811 L204.888109,43.5968811 Z M230.822222,115.109552 C222.981676,115.109552 217.295127,111.318519 217.467446,103.047173 L217.467446,103.047173 L217.467446,86.4183236 C217.467446,79.9563353 222.637037,74.9590643 230.994542,74.9590643 C236.939571,74.9590643 242.798441,79.3532164 242.798441,86.4183236 L242.798441,103.391813 C242.798441,110.887719 236.767251,115.109552 230.822222,115.109552 Z" id="Shape" fill="#2D2D2D"></path>
                <path d="M157.155556,43.5968811 L157.155556,71.0818713 C154.312281,67.4631579 148.798051,63.8444444 140.526706,63.8444444 C128.722807,63.8444444 119.159064,70.737232 119.159064,85.9875244 L119.159064,104.684211 C119.159064,119.934503 128.722807,126.82729 139.923587,126.82729 C148.281092,126.82729 154.053801,122.777778 157.500195,118.642105 L162.238986,125.534893 L169.476413,125.534893 L169.476413,43.6830409 L157.155556,43.6830409 L157.155556,43.5968811 Z M131.566082,103.650292 L131.566082,86.6768031 C131.566082,79.6116959 137.511111,75.2175439 143.369981,75.2175439 C151.727485,75.2175439 156.897076,79.9563353 156.897076,86.6768031 L156.897076,103.305653 L156.897076,103.305653 C157.069396,111.490838 151.382846,115.368031 143.5423,115.368031 C137.683431,115.109552 131.566082,110.887719 131.566082,103.650292 Z" id="Shape" fill="#2D2D2D"></path>
                <polygon id="Path" fill="#2D2D2D" points="263.821442 43.5968811 276.573099 43.5968811 276.573099 125.448733 263.821442 125.448733"></polygon>
                <g id="Group" transform="translate(180.074074, 43.079922)" fill="#2D2D2D">
                    <rect id="Rectangle" x="0.947758285" y="21.8846004" width="12.7516569" height="60.4842105"></rect>
                    <circle id="Oval" cx="7.40974659" cy="7.32358674" r="7.2374269"></circle>
                </g>
                <path d="M311.726316,115.109552 C302.938012,115.109552 298.716179,110.54308 298.716179,104.253411 L298.716179,99.2561404 L336.454191,99.2561404 L336.454191,85.7290448 C336.454191,71.7711501 326.718129,63.5859649 311.640156,63.5859649 C295.959064,63.5859649 285.878363,72.374269 285.878363,86.0736842 L285.878363,104.77037 C285.878363,118.728265 295.959064,126.91345 311.640156,126.91345 C323.271735,126.91345 331.887719,122.174659 335.334113,114.161793 L326.20117,108.475244 C323.013255,112.869396 318.360624,115.109552 311.726316,115.109552 Z M298.716179,85.9013645 C298.716179,79.6116959 303.110331,75.2175439 311.295517,75.2175439 C319.480702,75.2175439 323.874854,79.6116959 323.874854,85.9013645 L323.874854,89.6923977 L298.888499,89.6923977 L298.716179,85.9013645 L298.716179,85.9013645 Z" id="Shape" fill="#2D2D2D"></path>
                <path d="M27.054191,63.5859649 C14.6471735,63.5859649 6.63430799,68.5832359 3.61871345,75.9929825 L13.5270955,82.1103314 C17.7489279,75.3898635 21.7122807,75.0452242 27.054191,75.0452242 C34.8947368,75.0452242 38.3411306,78.6639376 38.3411306,84.6089669 L38.3411306,89.3477583 L27.5711501,89.3477583 C19.7306043,89.3477583 0.516959064,92.0187135 0.516959064,108.647563 C0.516959064,120.451462 9.47758285,126.396491 20.3337232,126.396491 C28.9497076,126.396491 35.2393762,122.346979 38.8580897,118.211306 L43.8553606,125.104094 L51.2651072,125.104094 L51.2651072,83.6612086 C51.0927875,72.2019493 43.079922,63.5859649 27.054191,63.5859649 Z M38.2549708,106.148928 C38.0826511,107.096686 38.0826511,108.216764 36.8764133,109.767641 C34.9808967,112.438596 29.9836257,115.109552 24.297076,115.109552 C18.1797271,115.109552 13.785575,112.610916 13.785575,107.699805 C13.785575,100.462378 25.417154,98.911501 32.8269006,98.5668616 L38.3411306,98.5668616 L38.2549708,106.148928 L38.2549708,106.148928 Z" id="Shape" fill="#2D2D2D"></path>
            </g>
        </g>
    </g>
</svg>