<svg xmlns="http://www.w3.org/2000/svg" viewBox="0 0 534.81 90.7"><defs><style>.cls-1{fill-rule:evenodd;}</style></defs><g id="Layer_2" data-name="Layer 2"><g id="Layer_1-2" data-name="Layer 1"><path d="M290.08,41.41a9.29,9.29,0,0,1-6.75,2.48h-9.15V17.19h9.15a9.33,9.33,0,0,1,6.75,2.47c2.78,2.78,2.63,6.86,2.63,10.58S292.86,38.64,290.08,41.41Zm-2-19.72a6.94,6.94,0,0,0-5.25-2H277v21.6h5.82a7,7,0,0,0,5.25-2c1.83-1.91,1.76-5.89,1.76-9.15S289.93,23.6,288.1,21.69Z"/><path d="M314.57,41.34a9.79,9.79,0,0,1-13.65,0c-2.51-2.51-2.51-5.14-2.51-10.8s0-8.29,2.51-10.8a9.77,9.77,0,0,1,13.65,0c2.51,2.51,2.51,5.13,2.51,10.8S317.08,38.83,314.57,41.34Zm-2.21-19.92a6.53,6.53,0,0,0-9.23,0c-1.69,1.73-1.87,3.53-1.87,9.12s.18,7.39,1.87,9.11a6.53,6.53,0,0,0,9.23,0c1.69-1.72,1.87-3.52,1.87-9.11S314.05,23.15,312.36,21.42Z"/><path d="M332.12,44.11a9.52,9.52,0,0,1-6.83-2.77c-2.51-2.51-2.51-5.14-2.51-10.8s0-8.29,2.51-10.8A9.52,9.52,0,0,1,332.12,17c4.8,0,8.36,2.93,9.26,8h-2.92c-.71-3.26-3-5.4-6.34-5.4a6.43,6.43,0,0,0-4.61,1.88c-1.69,1.72-1.88,3.56-1.88,9.15s.19,7.42,1.88,9.15a6.54,6.54,0,0,0,11-3.53h2.85A9,9,0,0,1,332.12,44.11Z"/><path d="M356.61,44.11c-5.4,0-9.3-3.71-9.3-9V17.19h2.85V34.85c0,4,2.55,6.71,6.45,6.71s6.49-2.66,6.49-6.71V17.19H366V35.08C366,40.4,362,44.11,356.61,44.11Z"/><path d="M393.32,43.89V23.6L386,39.69h-2.44L376.14,23.6V43.89h-2.85V17.19h2.85l8.71,18.94,8.47-18.94h2.85v26.7Z"/><path d="M403.89,43.89V17.19h16.58v2.55H406.74v9.41h11.71V31.7H406.74v9.64h13.73v2.55Z"/><path d="M443.42,43.89,429.24,22.47V43.89h-2.85V17.19h2.7l14.18,21.34V17.19h2.85v26.7Z"/><path d="M461.68,19.74V43.89h-2.85V19.74h-7.72V17.19h18.3v2.55Z"/><path d="M487.74,43.89l-2.13-6H473.94l-2.13,6h-3l9.82-26.7H481l9.79,26.7Zm-7.91-22.62-5,14.11h10Z"/><path d="M510.43,43.89,504.36,32h-6.42V43.89h-2.85V17.19h10.24c4.65,0,7.91,2.81,7.91,7.42a6.92,6.92,0,0,1-5.81,7.16l6.34,12.12Zm-5.36-24.15h-7.13v9.78h7.13c3.11,0,5.33-1.61,5.33-4.87S508.18,19.74,505.07,19.74Z"/><path d="M526.93,32.86v11h-2.85v-11l-8-15.67h3.07L525.51,30l6.22-12.78h3.08Z"/><path d="M277,51v9.82h11.7v2.55H277V75.12h-2.85V48.42h16.58V51Z"/><path d="M295.93,75.12V48.42h2.85v26.7Z"/><path d="M306.51,75.12V48.42h2.85V72.57H323v2.55Z"/><path d="M348,75.12V54.83l-7.31,16.09h-2.44l-7.43-16.09V75.12H328V48.42h2.85l8.71,18.94L348,48.42h2.85v26.7Z"/><path d="M365.46,75.34c-4,0-6.64-1-9.16-3.52l2-1.95a9.17,9.17,0,0,0,7.27,2.93c3.9,0,6.3-1.84,6.3-5a4.3,4.3,0,0,0-1.27-3.33c-.87-.75-1.54-1-3.49-1.28L364,62.74a9.72,9.72,0,0,1-4.92-2,6.31,6.31,0,0,1-2-5c0-4.54,3.26-7.54,8.55-7.54a10.7,10.7,0,0,1,7.95,2.93L371.68,53a8.4,8.4,0,0,0-6.22-2.28c-3.57,0-5.63,2-5.63,4.95a3.86,3.86,0,0,0,1.2,3.07,7.67,7.67,0,0,0,3.6,1.47l2.93.45c2.51.37,3.75.9,4.87,1.87a6.67,6.67,0,0,1,2.25,5.29C374.68,72.46,371,75.34,365.46,75.34Z"/><path class="cls-1" d="M64.2,46c0-18.17,6.72-29.62,14.74-30.81C70.93,5.28,57.52,0,45.34,0A45.23,45.23,0,0,0,11.59,15.06c7.93,1.58,10.63,8.22,10.63,18.47H12.53c0-6-1.28-9.19-4.87-9.19a4,4,0,0,0-3.59,2.21,7.55,7.55,0,0,0-.32.72,7.75,7.75,0,0,0-.43,2.67C3.32,42.5,24,41.88,24,61.18c0,7.55-5.77,14.58-12.28,14.58a45.37,45.37,0,0,0,66.8.55C70.85,74.37,64.2,63.4,64.2,46Zm-4.31,30H49.5V50.1H38.28V75.92H27.9V16.35H38.28v24H49.5v-24H59.89V75.92Z"/><path class="cls-1" d="M9,66.42c2.9,0,5-2.54,5-6.25C13.92,52.5,7.2,51,0,44.53-.1,57.68,4,66.42,9,66.42Z"/><path class="cls-1" d="M74.5,45c0-10,2.93-20,8.24-20,6.35,0,7.94,15.49,7.94,20.38,0,10.74-3.38,20.45-7.94,20.45C77.29,65.8,74.5,55.59,74.5,45Z"/><polygon points="178.15 17.18 170.05 17.18 141.97 17.18 140.67 17.18 134.4 17.18 130.25 51.19 130.09 51.19 125.47 17.18 115.95 17.18 110.88 51.19 110.73 51.19 106.99 17.18 97.38 17.18 105.12 75.12 114.38 75.12 119.61 38.41 119.76 38.41 124.8 75.12 134.4 75.12 140.8 26.13 149.78 26.13 149.78 75.12 160.35 75.12 160.35 26.13 170.05 26.13 170.05 75.12 180.6 75.12 180.6 17.18 178.15 17.18 178.15 17.18"/><polygon points="185.82 17.18 199.89 17.18 204.62 46.88 204.78 46.88 209.75 17.18 223.5 17.18 223.5 75.12 214.06 75.12 214.06 32.64 213.9 32.64 206.74 75.12 200.87 75.12 193.79 32.64 193.63 32.64 193.63 75.12 185.82 75.12 185.82 17.18 185.82 17.18"/><polygon points="228.68 17.18 252.6 17.18 252.6 26.13 239.26 26.13 239.26 40.94 249.11 40.94 249.11 50.39 239.26 50.39 239.26 66.16 253.17 66.16 253.17 75.12 228.68 75.12 228.68 17.18 228.68 17.18"/><path d="M256.36,71.26a3.55,3.55,0,0,1,1-2.52,3.61,3.61,0,0,1,5.07,0,3.59,3.59,0,1,1-6.11,2.52Zm.61,3a4.14,4.14,0,0,0,3,1.23,4.18,4.18,0,0,0,4.19-4.21,4.19,4.19,0,0,0-8.38,0,4.21,4.21,0,0,0,1.23,3Z"/><path d="M259,71.12V69.43h1.18a1,1,0,0,1,.66.15.72.72,0,0,1,.34.64.9.9,0,0,1-.26.65,1,1,0,0,1-.81.25Zm2.81,2.53-.92-2.2a1.2,1.2,0,0,0,.87-1.21,1.31,1.31,0,0,0-.5-1,1.7,1.7,0,0,0-1.08-.29h-1.77v4.74H259v-2h1.31l.88,2Z"/></g></g></svg>