<svg xmlns="http://www.w3.org/2000/svg" style="display:none;" height="0" width="0">
<symbol id="pmc-social-share-bar-comment" viewBox="0 0 1792 1792"><path d="M1792 896q0 174-120 321.5t-326 233-450 85.5q-70 0-145-8-198 175-460 242-49 14-114 22-17 2-30.5-9t-17.5-29v-1q-3-4-.5-12t2-10 4.5-9.5l6-9 7-8.5 8-9q7-8 31-34.5t34.5-38 31-39.5 32.5-51 27-59 26-76q-157-89-247.5-220t-90.5-281q0-130 71-248.5t191-204.5 286-136.5 348-50.5q244 0 450 85.5t326 233 120 321.5z"/>
</symbol>
<symbol id="pmc-social-share-bar-email" viewBox="0 0 1792 1792"><path d="M1792 710v794q0 66-47 113t-113 47H160q-66 0-113-47T0 1504V710q44 49 101 87 362 246 497 345 57 42 92.5 65.5t94.5 48 110 24.5h2q51 0 110-24.5t94.5-48 92.5-65.5q170-123 498-345 57-39 100-87zm0-294q0 79-49 151t-122 123q-376 261-468 325-10 7-42.5 30.5t-54 38-52 32.5-57.5 27-50 9h-2q-23 0-50-9t-57.5-27-52-32.5-54-38T639 1015q-91-64-262-182.5T172 690q-62-42-117-115.5T0 438q0-78 41.5-130T160 256h1472q65 0 112.5 47t47.5 113z"/>
</symbol>
<symbol id="pmc-social-share-bar-facebook" viewBox="0 0 1792 1792"><path d="M1343 12v264h-157q-86 0-116 36t-30 108v189h293l-39 296h-254v759H734V905H479V609h255V391q0-186 104-288.5T1115 0q147 0 228 12z"/>
</symbol>
<symbol id="pmc-social-share-bar-linkedin" viewBox="0 0 1792 1792"><path d="M477 625v991h-330v-991h330zm21-306q1 73-50.5 122t-135.5 49h-2q-82 0-132-49t-50-122q0-74 51.5-122.5t134.5-48.5 133 48.5 51 122.5zm1166 729v568h-329v-530q0-105-40.5-164.5t-126.5-59.5q-63 0-105.5 34.5t-63.5 85.5q-11 30-11 81v553h-329q2-399 2-647t-1-296l-1-48h329v144h-2q20-32 41-56t56.5-52 87-43.5 114.5-15.5q171 0 275 113.5t104 332.5z"/>
</symbol>
<symbol id="pmc-social-share-bar-pinit" viewBox="0 0 1792 1792"><path d="M1664 896q0 209-103 385.5T1281.5 1561 896 1664q-111 0-218-32 59-93 78-164 9-34 54-211 20 39 73 67.5t114 28.5q121 0 216-68.5t147-188.5 52-270q0-114-59.5-214T1180 449t-255-63q-105 0-196 29t-154.5 77-109 110.5-67 129.5T377 866q0 104 40 183t117 111q30 12 38-20 2-7 8-31t8-30q6-23-11-43-51-61-51-151 0-151 104.5-259.5T904 517q151 0 235.5 82t84.5 213q0 170-68.5 289T980 1220q-61 0-98-43.5T859 1072q8-35 26.5-93.5t30-103T927 800q0-50-27-83t-77-33q-62 0-105 57t-43 142q0 73 25 122l-99 418q-17 70-13 177-206-91-333-281T128 896q0-209 103-385.5T510.5 231 896 128t385.5 103T1561 510.5 1664 896z"/>
</symbol>
<symbol id="pmc-social-share-bar-show-more" viewBox="0 0 1792 1792"><path d="M1600 736v192q0 40-28 68t-68 28h-416v416q0 40-28 68t-68 28h-192q-40 0-68-28t-28-68v-416h-416q-40 0-68-28t-28-68v-192q0-40 28-68t68-28h416v-416q0-40 28-68t68-28h192q40 0 68 28t28 68v416h416q40 0 68 28t28 68z"/>
</symbol>
<symbol id="pmc-social-share-bar-print" viewBox="0 0 1792 1792"><path d="M448 1536h896v-256h-896v256zm0-640h896v-384h-160q-40 0-68-28t-28-68v-160h-640v640zm1152 64q0-26-19-45t-45-19-45 19-19 45 19 45 45 19 45-19 19-45zm128 0v416q0 13-9.5 22.5t-22.5 9.5h-224v160q0 40-28 68t-68 28h-960q-40 0-68-28t-28-68v-160h-224q-13 0-22.5-9.5t-9.5-22.5v-416q0-79 56.5-135.5t135.5-56.5h64v-544q0-40 28-68t68-28h672q40 0 88 20t76 48l152 152q28 28 48 76t20 88v256h64q79 0 135.5 56.5t56.5 135.5z"/>
</symbol>
<symbol id="pmc-social-share-bar-reddit" viewBox="0 0 1792 1792"><path d="M1095 1167q16 16 0 31-62 62-199 62t-199-62q-16-15 0-31 6-6 15-6t15 6q48 49 169 49 120 0 169-49 6-6 15-6t15 6zM788 986q0 37-26 63t-63 26-63.5-26-26.5-63q0-38 26.5-64t63.5-26 63 26.5 26 63.5zm395 0q0 37-26.5 63t-63.5 26-63-26-26-63 26-63.5 63-26.5 63.5 26 26.5 64zm251-120q0-49-35-84t-85-35-86 36q-130-90-311-96l63-283 200 45q0 37 26 63t63 26 63.5-26.5T1359 448t-26.5-63.5T1269 358q-54 0-80 50l-221-49q-19-5-25 16l-69 312q-180 7-309 97-35-37-87-37-50 0-85 35t-35 84q0 35 18.5 64t49.5 44q-6 27-6 56 0 142 140 243t337 101q198 0 338-101t140-243q0-32-7-57 30-15 48-43.5t18-63.5zm358 30q0 182-71 348t-191 286-286 191-348 71-348-71-286-191-191-286T0 896t71-348 191-286T548 71 896 0t348 71 286 191 191 286 71 348z"/>
</symbol>
<symbol id="pmc-social-share-bar-close" viewBox="0 0 1792 1792"><path d="M1490 1322q0 40-28 68l-136 136q-28 28-68 28t-68-28l-294-294-294 294q-28 28-68 28t-68-28l-136-136q-28-28-28-68t28-68l294-294-294-294q-28-28-28-68t28-68l136-136q28-28 68-28t68 28l294 294 294-294q28-28 68-28t68 28l136 136q28 28 28 68t-28 68l-294 294 294 294q28 28 28 68z"/>
</symbol>
<symbol id="pmc-social-share-bar-tumblr" viewBox="0 0 1792 1792"><path d="M1328 1329l80 237q-23 35-111 66t-177 32q-104 2-190.5-26T787 1564t-95-106-55.5-120-16.5-118V676H452V461q72-26 129-69.5t91-90 58-102 34-99T779 12q1-5 4.5-8.5T791 0h244v424h333v252h-334v518q0 30 6.5 56t22.5 52.5 49.5 41.5 81.5 14q78-2 134-29z"/>
</symbol>
<symbol id="pmc-social-share-bar-twitter" viewBox="0 0 1792 1792"><path d="M1684 408q-67 98-162 167 1 14 1 42 0 130-38 259.5T1369.5 1125 1185 1335.5t-258 146-323 54.5q-271 0-496-145 35 4 78 4 225 0 401-138-105-2-188-64.5T285 1033q33 5 61 5 43 0 85-11-112-23-185.5-111.5T172 710v-4q68 38 146 41-66-44-105-115t-39-154q0-88 44-163 121 149 294.5 238.5T884 653q-8-38-8-74 0-134 94.5-228.5T1199 256q140 0 236 102 109-21 205-78-37 115-142 178 93-10 186-50z"/>
</symbol>
<symbol id="pmc-social-share-bar-whatsapp" viewBox="0 0 1792 1792"><path d="M1113 974q13 0 97.5 44t89.5 53q2 5 2 15 0 33-17 76-16 39-71 65.5t-102 26.5q-57 0-190-62-98-45-170-118t-148-185q-72-107-71-194v-8q3-91 74-158 24-22 52-22 6 0 18 1.5t19 1.5q19 0 26.5 6.5t15.5 27.5q8 20 33 88t25 75q0 21-34.5 57.5t-34.5 46.5q0 7 5 15 34 73 102 137 56 53 151 101 12 7 22 7 15 0 54-48.5t52-48.5zm-203 530q127 0 243.5-50t200.5-134 134-200.5 50-243.5-50-243.5-134-200.5-200.5-134-243.5-50-243.5 50-200.5 134-134 200.5-50 243.5q0 203 120 368l-79 233 242-77q158 104 345 104zm0-1382q153 0 292.5 60t240.5 161 161 240.5 60 292.5-60 292.5-161 240.5-240.5 161-292.5 60q-195 0-365-94l-417 134 136-405q-108-178-108-389 0-153 60-292.5t161-240.5 240.5-161 292.5-60z"/>
</symbol></svg>