<svg width="16" height="17" viewBox="0 0 16 17" xmlns="http://www.w3.org/2000/svg"><title>Page 1</title><path d="M14.92.692H.802c-.18 0-.343.07-.484.212a.667.667 0 0 0-.213.485v14.117c0 .182.07.344.213.485a.67.67 0 0 0 .484.212H14.92c.182 0 .344-.07.485-.212a.67.67 0 0 0 .212-.485V1.39a.667.667 0 0 0-.212-.486.67.67 0 0 0-.485-.212zm-4.362 7.756c0 .748-.263 1.384-.788 1.91a2.602 2.602 0 0 1-1.91.787 2.598 2.598 0 0 1-1.907-.788 2.599 2.599 0 0 1-.788-1.91c0-.746.263-1.382.788-1.907a2.594 2.594 0 0 1 1.908-.788c.75 0 1.385.262 1.91.788.525.525.788 1.16.788 1.908zm3.12 5.817H2.044V7.48h1.273c-.06.322-.09.645-.09.968 0 1.273.453 2.363 1.362 3.272.908.91 2 1.364 3.27 1.364 1.274 0 2.364-.455 3.273-1.364.91-.91 1.364-2 1.364-3.272 0-.323-.03-.646-.09-.97h1.27v6.787zm0-8.725H10.77V2.63h2.908v2.91z" fill="#D54269" fill-rule="evenodd"/></svg>