<svg width="15" height="19" viewBox="0 0 15 19" xmlns="http://www.w3.org/2000/svg"><title>Page 1</title><path d="M2.716 10.985c.226-.37.338-.71.338-1.02 0-.31-.056-.55-.17-.724a15.332 15.332 0 0 1-.394-.648 1.91 1.91 0 0 1-.263-.76c-.15-.916-.05-1.8.3-2.654.352-.853.872-1.54 1.562-2.06a7.835 7.835 0 0 1 2.275-1.186 4.72 4.72 0 0 1 2.558-.112c.877.198 1.642.62 2.294 1.262.552.57.89 1.39 1.016 2.467a8.14 8.14 0 0 1-.207 3.08c-.263.976-.74 1.8-1.43 2.467-.69.668-1.473.915-2.35.742-.652-.125-1.054-.434-1.204-.93-.15-.494-.126-1.063.075-1.706.2-.643.414-1.292.64-1.948.225-.655.313-1.26.263-1.818-.05-.556-.34-.934-.865-1.132-.552-.197-1.06-.16-1.524.112-.463.272-.8.66-1.014 1.17-.214.506-.32 1.075-.32 1.705 0 .63.125 1.182.376 1.652-.1.494-.25 1.113-.45 1.855-.202.742-.37 1.373-.51 1.892a24.29 24.29 0 0 0-.413 1.967 12.08 12.08 0 0 0-.208 2.077c0 .593.038 1.348.113 2.263.828-.594 1.448-1.41 1.862-2.45.414-1.038.784-2.36 1.11-3.97.15.075.35.2.602.372.25.173.45.303.6.39.15.086.345.173.583.26.24.086.496.14.772.166 1.38.124 2.59-.235 3.63-1.076 1.04-.84 1.774-1.93 2.2-3.265.426-1.336.54-2.72.34-4.156-.252-1.805-1.186-3.184-2.804-4.136C10.485.182 8.623-.17 6.516.077 4.835.25 3.343.947 2.04 2.173.734 3.397.057 4.875.007 6.607c-.1 2.498.802 3.958 2.708 4.378z" fill="#B80E24" fill-rule="evenodd"/></svg>