<svg width="16" height="16" viewBox="0 0 16 16" xmlns="http://www.w3.org/2000/svg"><title>Page 1</title><path d="M16 8c0 .365-.04.678-.117.938-.078.26-.309.391-.69.391H9.328v5.89c0 .364-.13.586-.39.664C8.677 15.96 8.364 16 8 16s-.678-.04-.938-.117c-.26-.078-.391-.3-.391-.665V9.33H.808c-.382 0-.613-.13-.69-.39A3.291 3.291 0 0 1 0 8c0-.365.04-.678.117-.938.078-.26.309-.391.69-.391h5.864V.808c0-.365.13-.59.39-.678C7.323.043 7.636 0 8 0s.678.043.938.13c.26.087.391.313.391.678V6.67h5.863c.382 0 .613.13.69.39.079.261.118.574.118.939z" fill="#686767" fill-rule="evenodd"/></svg>