<svg width="11" height="17" viewBox="0 0 11 17" xmlns="http://www.w3.org/2000/svg"><title>Page 1</title><path d="M2.372 12.916c0 .775.086 1.372.258 1.793.172.42.475.808.91 1.162.436.354.963.631 1.582.83a6.11 6.11 0 0 0 1.89.299A9.01 9.01 0 0 0 11 16.104v-2.557a4.127 4.127 0 0 1-2.303.697c-.504 0-.951-.122-1.34-.365-.322-.177-.54-.42-.654-.73-.069-.156-.103-.764-.103-1.827V7.438H11V4.25H6.6V0H3.747c-.092.885-.287 1.61-.584 2.175a4.499 4.499 0 0 1-1.204 1.444c-.412.354-1.065.664-1.959.93v2.888h2.372v5.479z" fill="#284154" fill-rule="evenodd"/></svg>