<svg width="20" height="17" viewBox="0 0 20 17" xmlns="http://www.w3.org/2000/svg"><title>Page 1</title><path d="M18.698.987a7.895 7.895 0 0 1-2.47.923c-.763-.812-1.71-1.218-2.84-1.218-1.06 0-1.97.382-2.73 1.144-.764.762-1.145 1.672-1.145 2.73 0 .295.037.59.11.885A10.68 10.68 0 0 1 5.18 4.27a10.652 10.652 0 0 1-3.525-2.876 3.605 3.605 0 0 0-.553 1.955c0 1.377.578 2.447 1.734 3.21a3.35 3.35 0 0 1-1.734-.48v.074c0 .91.29 1.72.867 2.434a3.815 3.815 0 0 0 2.23 1.365 4.813 4.813 0 0 1-1.03.112 3.79 3.79 0 0 1-.74-.074c.27.787.732 1.433 1.384 1.937a3.552 3.552 0 0 0 2.232.756c-1.402 1.108-3 1.66-4.796 1.66-.295 0-.602-.01-.922-.036a10.867 10.867 0 0 0 5.94 1.734c1.72 0 3.294-.332 4.72-.996 1.427-.664 2.59-1.53 3.487-2.6a12.281 12.281 0 0 0 2.084-3.542c.49-1.29.737-2.588.737-3.892v-.48a7.92 7.92 0 0 0 1.918-2.028c-.713.32-1.45.53-2.213.627.836-.516 1.4-1.23 1.696-2.14z" fill="#28AEED" fill-rule="evenodd"/></svg>