<svg xmlns="http://www.w3.org/2000/svg" viewBox="0 0 232.01 439.94"><defs><style>.cls-1{fill:#fff;}.cls-2{fill:#231f20;}</style></defs><title>Graphik Semi 60pt</title><g id="Layer_2" data-name="Layer 2"><g id="Layer_1-2" data-name="Layer 1"><rect class="cls-1" y="74.03" width="232.01" height="291.35"/><path class="cls-2" d="M11,85.21v269H221v-269ZM209.35,342.55h-187v-246h187Z"/><path class="cls-2" d="M143.73,323.63c25.57,0,46.29-20.15,46.29-45s-20.72-45-46.29-45"/><polygon class="cls-2" points="106.7 258.9 106.7 132.72 82.54 151.34 82.54 277.57 106.7 258.9 106.7 258.9"/><polygon class="cls-2" points="71.15 114.44 47.03 133.06 47.03 253.22 71.15 253.22 71.15 114.44 71.15 114.44"/><polygon class="cls-2" points="179.92 206.28 179.92 185.3 118.15 185.3 118.22 249.91 138.57 234.19 138.59 206.28 179.92 206.28 179.92 206.28"/><polygon class="cls-2" points="118.17 306.87 118.17 323.97 140.13 323.97 118.17 306.87 118.17 306.87"/><path class="cls-1" d="M40.76.6h28V8.16H50.42v10H65.06v7.08H50.42V35.94H69.68V43.5H40.76Z"/><path class="cls-1" d="M106.64,44.16a26.42,26.42,0,0,1-7.68-1,14.76,14.76,0,0,1-5.4-2.85,12.4,12.4,0,0,1-3.3-4.44,16.56,16.56,0,0,1-1.32-5.82h9.3a14.67,14.67,0,0,0,.6,2.73A5.11,5.11,0,0,0,100.22,35a6.82,6.82,0,0,0,2.49,1.53,11.4,11.4,0,0,0,3.93.57,7.83,7.83,0,0,0,5.16-1.59,5.11,5.11,0,0,0,1.92-4.12,5.44,5.44,0,0,0-.39-2.16A3.82,3.82,0,0,0,112,27.64a10.06,10.06,0,0,0-2.52-1.05,32.15,32.15,0,0,0-3.9-.81,40.74,40.74,0,0,1-7-1.47,14,14,0,0,1-4.77-2.49A8.64,8.64,0,0,1,91,18.1a14.61,14.61,0,0,1-.87-5.34,11.73,11.73,0,0,1,1.11-5.1A12.17,12.17,0,0,1,94.4,3.6,15.22,15.22,0,0,1,99.32,1a20.24,20.24,0,0,1,6.42-1Q113,0,117.11,3.19t4.71,9.58h-8.94a6.35,6.35,0,0,0-2.22-4.29,7.78,7.78,0,0,0-4.92-1.41,7.31,7.31,0,0,0-4.83,1.35,4.4,4.4,0,0,0-1.59,3.52,5.65,5.65,0,0,0,.33,2,3.08,3.08,0,0,0,1.23,1.47,7.45,7.45,0,0,0,2.4,1.14,27.5,27.5,0,0,0,4,.84,42.75,42.75,0,0,1,6.84,1.35,16,16,0,0,1,4.92,2.31,9.33,9.33,0,0,1,3,3.79,14,14,0,0,1,1,5.59,12.8,12.8,0,0,1-1.14,5.38,12.4,12.4,0,0,1-3.24,4.3,15.41,15.41,0,0,1-5.16,2.94A20.46,20.46,0,0,1,106.64,44.16Z"/><path class="cls-1" d="M152.42,8.16H140.84V.6h32.94V8.16H162.2V43.5h-9.78Z"/><path class="cls-1" d="M187.34,44a5.17,5.17,0,0,1-3.81-1.53A5.1,5.1,0,0,1,182,38.76a5,5,0,0,1,1.53-3.69,5.17,5.17,0,0,1,3.81-1.53,5.27,5.27,0,0,1,3.84,1.53,5,5,0,0,1,1.56,3.69,5,5,0,0,1-.42,2,5.42,5.42,0,0,1-1.14,1.68,5.32,5.32,0,0,1-1.71,1.14A5.41,5.41,0,0,1,187.34,44Z"/><path class="cls-1" d="M34.75,406l-8.7,5.7V403.4l9.9-7h8.52v42.9H34.75Z"/><path class="cls-1" d="M81.61,439.88q-7,0-11-3.18a13,13,0,0,1-4.74-9h9.06a6.36,6.36,0,0,0,1.92,3.51,6.61,6.61,0,0,0,4.5,1.29,7.17,7.17,0,0,0,6.39-3.33q2.19-3.33,2.31-9.93A11.65,11.65,0,0,1,86.08,423a12.31,12.31,0,0,1-6.33,1.44,17,17,0,0,1-5.73-.93,12.84,12.84,0,0,1-4.53-2.73,12.57,12.57,0,0,1-3-4.38,15,15,0,0,1-1.08-5.82,15.72,15.72,0,0,1,1.14-6.06,13.15,13.15,0,0,1,3.3-4.74,15.47,15.47,0,0,1,5.25-3A20.89,20.89,0,0,1,82,395.72a19.23,19.23,0,0,1,7.74,1.44,14.34,14.34,0,0,1,5.46,4.08,18.3,18.3,0,0,1,3.24,6.45,30.2,30.2,0,0,1,1.08,8.37V418q0,10.62-4.62,16.26T81.61,439.88Zm.3-21.9a7.19,7.19,0,0,0,5.31-2,7,7,0,0,0,2-5.17,8.22,8.22,0,0,0-2-5.89,7,7,0,0,0-5.31-2.12,6.66,6.66,0,0,0-5.16,2.09,8.83,8.83,0,0,0,0,11A6.66,6.66,0,0,0,81.91,418Z"/><path class="cls-1" d="M137,439.94a19.82,19.82,0,0,1-7.71-1.44,15.6,15.6,0,0,1-5.85-4.2,18.42,18.42,0,0,1-3.78-6.6,27.43,27.43,0,0,1-1.32-8.82v-2a26.58,26.58,0,0,1,1.38-8.85,19.09,19.09,0,0,1,3.84-6.63,16.45,16.45,0,0,1,5.91-4.14,19.5,19.5,0,0,1,7.59-1.44,20,20,0,0,1,7.56,1.38,16.83,16.83,0,0,1,5.94,4,18.79,18.79,0,0,1,3.81,6.6,27.07,27.07,0,0,1,1.35,8.88v2a28.61,28.61,0,0,1-1.29,8.88,19.16,19.16,0,0,1-3.69,6.72,16.4,16.4,0,0,1-5.94,4.23A19.87,19.87,0,0,1,137,439.94Zm.24-7.56a7.32,7.32,0,0,0,6.69-3.42q2.13-3.42,2.13-10.2v-1.92q0-6.54-2.22-10a7.43,7.43,0,0,0-6.72-3.48,7.64,7.64,0,0,0-6.78,3.39Q128,410.12,128,416.84v2q0,6.78,2.34,10.14A7.81,7.81,0,0,0,137.23,432.38Z"/><path class="cls-1" d="M189.55,439.94a20.81,20.81,0,0,1-6.87-1,13.43,13.43,0,0,1-4.83-2.82,11.78,11.78,0,0,1-3-4.26,16.51,16.51,0,0,1-1.2-5.34h8.94a10.55,10.55,0,0,0,.6,2.46,5.32,5.32,0,0,0,1.2,1.86,4.78,4.78,0,0,0,2,1.26,9.68,9.68,0,0,0,3.09.42,6.08,6.08,0,0,0,5-2.1,8.47,8.47,0,0,0,1.71-5.52,7.77,7.77,0,0,0-1.86-5.49,6.61,6.61,0,0,0-5.1-2,11.17,11.17,0,0,0-5,1A10.52,10.52,0,0,0,181,420.8h-5.4l.6-24.42h27.18v7.38H183.49l-.18,10.74a11.07,11.07,0,0,1,3.57-2.76,12.94,12.94,0,0,1,6-1.2,13.88,13.88,0,0,1,5.34,1,12.12,12.12,0,0,1,4.14,2.79,12.91,12.91,0,0,1,2.7,4.56,18.2,18.2,0,0,1,1,6.12,15.68,15.68,0,0,1-1.17,6.18,12.92,12.92,0,0,1-3.33,4.68,14.7,14.7,0,0,1-5.19,3A20.53,20.53,0,0,1,189.55,439.94Z"/></g></g></svg>