<svg width="27" height="27" xmlns="http://www.w3.org/2000/svg"><path d="M13.037 1.311a11.735 11.735 0 019.489 18.63 2.68 2.68 0 00-2.006-1.928c-3.626-.964-4.59-2.044-4.821-2.546.257-.175.49-.382.694-.617 1.774-2.006 1.466-5.4 1.466-5.786-.193-3.934-3.086-4.898-4.822-4.821-1.736.077-4.59.887-4.821 4.821 0 .347-.309 3.742 1.465 5.786.252.264.523.51.81.733-.308.501-1.35 1.581-4.821 2.468a2.787 2.787 0 00-1.929 2.199 11.764 11.764 0 019.296-18.939m-1.273 14.773c.402.11.818.163 1.235.155h.154c.47-.002.936-.067 1.388-.193.24.436.569.817.965 1.118a2.816 2.816 0 01-2.392 1.35c-.93.004-1.799-.46-2.314-1.234.403-.325.732-.733.964-1.196m3.665-2.083a2.95 2.95 0 01-2.353.965h-.077A3.076 3.076 0 0110.646 14C9.18 12.381 9.527 9.257 9.527 9.18c.193-3.394 2.662-3.626 3.394-3.626h.155c.54 0 3.317 0 3.471 3.626 0 0 .347 3.124-1.08 4.821m-2.43 10.762a11.63 11.63 0 01-8.1-3.279c0-.848.193-2.005 1.196-2.237a14.464 14.464 0 003.51-1.311 4.05 4.05 0 003.394 1.813 4.098 4.098 0 003.433-1.929 15.997 15.997 0 003.78 1.466c.81.193 1.196.887 1.196 2.005a11.706 11.706 0 01-8.37 3.51M0 13.037c0 7.2 5.837 13.037 13.037 13.037 7.2 0 13.037-5.837 13.037-13.037C26.074 5.837 20.237 0 13.037 0 5.84.005.005 5.84 0 13.037" fill="currentColor" fill-rule="nonzero"/></svg>