<svg xmlns="http://www.w3.org/2000/svg"><g fill-rule="nonzero" fill="currentColor"><path d="M10.969.125s5.625-.45 5.625 6.39c0 7.875-5.625 7.639-5.625 7.639s-5.625.281-5.625-7.572C5.299-.336 10.969.125 10.969.125zM10.957 25.921c-1.563 0-7.56 0-10.957-5.422a3.06 3.06 0 012.07-2.171c.338-.102 1.035-.248 2.835-.9 2.756-1.182 2.97-2.014 2.97-2.014.918.562 1.986.83 3.06.765a5.254 5.254 0 003.06-.765s.236.821 2.993 2.025c1.788.652 2.497.787 2.835.9a3.06 3.06 0 012.07 2.171c-3.376 5.411-9.372 5.411-10.936 5.411z"/></g></svg>