<?xml version="1.0" encoding="UTF-8"?>
<svg width="26px" height="26px" viewBox="0 0 26 26" version="1.1" xmlns="http://www.w3.org/2000/svg" xmlns:xlink="http://www.w3.org/1999/xlink">
    <!-- Generator: Sketch 53.2 (72643) - https://sketchapp.com -->
    <title>Breadcrumb / Icon / podcast 25px</title>
    <desc>Created with Sketch.</desc>
    <g id="Style-Guide" stroke="none" stroke-width="1" fill="none" fill-rule="evenodd">
        <g transform="translate(-746.000000, -6579.000000)" id="Group-14">
            <g transform="translate(37.000000, 133.000000)">
                <g id="Logos-and-Icons" transform="translate(0.000000, 6336.000000)">
                    <g id="Breadcrumb-/-Icon-/-podcast-25px" transform="translate(709.000000, 110.000000)">
                        <g id="Podcast-Icon">
                            <path d="M12.7016129,24.7983871 C19.3824768,24.7983871 24.7983871,19.3824768 24.7983871,12.7016129 C24.7983871,6.02074899 19.3824768,0.60483871 12.7016129,0.60483871 C6.02074899,0.60483871 0.60483871,6.02074899 0.60483871,12.7016129 C0.60483871,19.3824768 6.02074899,24.7983871 12.7016129,24.7983871" id="Path" fill="#EDE708" fill-rule="nonzero"></path>
                            <circle id="Oval" stroke="#000000" cx="12.7016129" cy="12.7016129" r="12.0967742"></circle>
                            <path d="M9.96774194,6.4516129 L11.0322581,5.08064516 C11.5045694,4.88655063 11.9895651,4.7248854 12.483871,4.59677419 C12.7016129,4.59677419 14.0322581,4.88709677 14.0322581,4.88709677 L14.7580645,5.50806452 L15.6774194,6.85483871 L15.7580645,8.06451613 L15.8629032,10.5967742 L15.9596774,12.7016129 L15.6774194,13.7096774 L14.8709677,14.7580645 C14.4526202,15.0706723 14.004169,15.3408236 13.5322581,15.5645161 L11,15.4677419 L10.1612903,14.1774194 L9.51612903,12.2419355 L9.77419355,6.72580645 L9.96774194,6.4516129 Z" id="Path" fill="#C9D1D7" fill-rule="nonzero"></path>
                            <path d="M9.96774194,6.4516129 L11.0322581,5.08064516 C11.5045694,4.88655063 11.9895651,4.7248854 12.483871,4.59677419 C12.7016129,4.59677419 14.0322581,4.88709677 14.0322581,4.88709677 L14.7580645,5.50806452 L15.6774194,6.85483871 L15.7580645,8.06451613 L15.8629032,10.5967742 L15.9596774,12.7016129 L15.6774194,13.7096774 L14.8709677,14.7580645 C14.4526202,15.0706723 14.004169,15.3408236 13.5322581,15.5645161 L11,15.4677419 L10.1612903,14.1774194 L9.51612903,12.2419355 L9.77419355,6.72580645 L9.96774194,6.4516129 Z" id="Path" stroke="#231F20" stroke-width="0.25"></path>
                            <path d="M17.2258065,13.1532258 C16.8965746,15.3983201 14.9707189,17.062356 12.7016129,17.062356 C10.4325069,17.062356 8.50665125,15.3983201 8.17741935,13.1532258 L6.97580645,13.1532258 C7.43854702,15.7688518 9.53746577,17.7862908 12.1693548,18.1451613 L12.1693548,20.3467742 L9.67741935,20.3467742 L9.67741935,21.4516129 L15.6935484,21.4516129 L15.6935484,20.3548387 L13.233871,20.3548387 L13.233871,18.1532258 C15.8399521,17.7856298 17.9010769,15.7604929 18.3145161,13.1612903 L17.2258065,13.1612903" id="Path" fill="#000000" fill-rule="nonzero"></path>
                            <path d="M12.7016129,5.0483871 C13.3689595,5.05899604 14.0047487,5.33431693 14.4690707,5.81376348 C14.9333928,6.29321003 15.1881997,6.93749491 15.1774194,7.60483871 L13.9354839,7.60483871 L13.9354839,8.33064516 L15.1774194,8.33064516 L15.1774194,9.42741935 L13.9354839,9.42741935 L13.9354839,10.1612903 L15.1774194,10.1612903 L15.1774194,11.2903226 L13.9354839,11.2903226 L13.9354839,12.0241935 L15.1774194,12.0241935 L15.1774194,12.3145161 C15.2121663,13.6716004 14.18331,14.8206667 12.8306452,14.9354839 C12.1641879,14.9638136 11.5141954,14.7237593 11.0261353,14.2690449 C10.5380752,13.8143305 10.252698,13.1829224 10.233871,12.516129 C10.2298613,12.4732117 10.2298613,12.4300141 10.233871,12.3870968 L10.233871,12.0241935 L11.4758065,12.0241935 L11.4758065,11.2903226 L10.2258065,11.2903226 L10.2258065,10.1612903 L11.4677419,10.1612903 L11.4677419,9.42741935 L10.2258065,9.42741935 L10.2258065,8.33064516 L11.4677419,8.33064516 L11.4677419,7.60483871 L10.2258065,7.60483871 C10.2078151,6.2169151 11.3138255,5.07487829 12.7016129,5.0483871 M12.8387097,15.9919355 C14.7863984,15.8545974 16.2818091,14.2100007 16.233871,12.2580645 L16.233871,7.69354839 C16.2818091,5.74161217 14.7863984,4.09701554 12.8387097,3.95967742 C11.8876163,3.93587224 10.9661509,4.29155656 10.2777164,4.94821722 C9.58928182,5.60487787 9.1904847,6.50852081 9.16935484,7.45967742 L9.16935484,12.3467742 C9.15426461,13.2985934 9.51796214,14.2174112 10.1804142,14.9010374 C10.8428662,15.5846637 11.74979,15.9770808 12.7016129,15.9919355 L12.8387097,15.9919355" id="Shape" fill="#000000" fill-rule="nonzero"></path>
                        </g>
                    </g>
                </g>
            </g>
        </g>
    </g>
</svg>