<?xml version="1.0" standalone="no"?>
<!DOCTYPE svg PUBLIC "-//W3C//DTD SVG 20010904//EN"
 "http://www.w3.org/TR/2001/REC-SVG-20010904/DTD/svg10.dtd">
<svg version="1.0" xmlns="http://www.w3.org/2000/svg"
 width="362.000000pt" height="400.000000pt" viewBox="0 0 362.000000 400.000000"
 preserveAspectRatio="xMidYMid meet">

<g transform="translate(0.000000,400.000000) scale(0.100000,-0.100000)"
fill="#000000" stroke="none">
<path d="M1232 3813 l3 -188 140 -5 140 -5 3 -96 3 -96 -58 -7 c-187 -22 -405
-96 -588 -201 -27 -16 -59 -33 -70 -39 -59 -32 -259 -193 -320 -258 -75 -80
-175 -202 -175 -214 0 -4 -11 -21 -24 -39 -44 -57 -140 -238 -184 -347 -22
-55 -74 -265 -88 -357 -37 -246 -5 -582 78 -810 56 -157 165 -358 247 -458
124 -150 172 -205 211 -237 25 -20 72 -60 105 -87 90 -76 216 -155 329 -206
129 -58 130 -58 201 -79 33 -9 87 -25 120 -35 106 -31 225 -44 410 -44 243 0
323 14 576 96 96 31 228 94 334 159 90 55 108 69 301 241 62 56 235 279 273
354 12 22 32 58 44 80 13 22 41 83 61 135 21 52 42 104 46 115 12 28 46 182
64 293 38 221 8 556 -70 782 -43 125 -136 323 -170 361 -8 8 -14 19 -14 22 0
25 -261 330 -309 362 -17 11 -31 23 -31 27 0 7 -140 109 -194 142 -75 45 -177
97 -251 126 -44 18 -91 37 -105 42 -14 6 -34 14 -45 19 -33 13 -195 48 -258
55 l-58 7 3 96 3 96 140 5 140 5 3 188 2 187 -485 0 -485 0 2 -187z m713 -597
c228 -45 307 -72 470 -156 117 -60 151 -81 236 -146 57 -44 213 -203 264 -268
37 -48 132 -193 144 -221 5 -11 20 -45 34 -75 66 -143 94 -239 123 -419 29
-183 16 -410 -37 -615 -24 -95 -101 -277 -154 -361 -14 -22 -29 -49 -34 -61
-5 -11 -28 -42 -50 -68 -23 -26 -41 -50 -41 -54 0 -11 -179 -193 -235 -238
-66 -54 -176 -123 -262 -167 -38 -19 -78 -40 -89 -46 -10 -6 -48 -20 -84 -32
-368 -118 -673 -118 -1030 0 -73 25 -224 99 -287 142 -23 16 -46 29 -51 29 -4
0 -19 11 -32 25 -13 14 -29 25 -36 25 -18 0 -231 214 -284 285 -161 215 -264
461 -300 715 -15 100 -15 305 0 410 12 89 48 239 76 312 24 65 114 251 129
268 7 8 24 34 36 57 24 43 187 243 198 243 3 0 40 32 81 70 41 38 79 70 83 70
5 0 25 13 45 29 56 44 229 135 322 169 69 26 106 36 200 56 41 9 93 20 115 25
67 15 372 13 450 -3z"/>
<path d="M1525 2945 c-92 -14 -185 -38 -241 -61 -359 -146 -631 -424 -742
-759 -91 -275 -95 -497 -12 -775 28 -95 94 -243 123 -279 6 -7 16 -21 22 -31
46 -80 272 -320 301 -320 6 0 19 -9 29 -20 10 -11 23 -20 28 -20 6 0 18 -6 26
-14 29 -25 165 -92 241 -118 72 -25 101 -33 220 -59 71 -16 319 -16 390 0 185
41 232 57 365 122 201 99 389 277 523 497 18 29 32 55 32 57 0 3 9 24 19 48
60 133 94 277 95 407 l1 95 -612 3 -613 2 0 608 c0 460 -3 611 -12 620 -15 15
-79 14 -183 -3z"/>
</g>
</svg>
