<svg width="634" height="24" xmlns="http://www.w3.org/2000/svg"><g fill="none" fill-rule="evenodd"><path fill="#D6143F" d="M17.096 0l-6.332 20.25h-.202L4.069 0H0l7.972 24h5.247L21 0z"/><path fill="#D6143F" d="M20 0v2.92h5.59v18.156H20V24h15v-2.924h-5.59V2.921H35V0zM41.017 11.326h4.573c2.425 0 3.603-1.094 3.603-3.28v-1.47c0-2.185-1.178-3.245-3.603-3.245h-4.573v7.995zM37.137 24V.156h9.042c4.572 0 7.102 2.731 7.102 7.173 0 4.44-2.53 7.174-7.102 7.174h-5.162V24h-3.88z"/><path fill="#231F20" d="M66.989 24h3.809V.154h-3.81z"/><path fill="#231F20" d="M56.803 13.955h24.18v-3.757h-24.18zM106.013 22.4l-5.907-20.887h2.766l3.69 13.346.95 5.117h.318l.921-5.117 3.718-13.346h2.71l-5.91 20.887zM127.462 6.78l-.634-2.813h-.318l-.633 2.814-2.075 7.33h5.793l-2.133-7.33zm4.409 15.62l-1.671-6.073h-7.033l-1.671 6.073h-2.623l6.167-20.888h3.343L134.58 22.4h-2.71zM148.946 11.299c1.585 0 2.421-.869 2.421-2.724V6.632c0-1.855-.836-2.725-2.42-2.725h-4.872v7.392h4.871zm-4.87 11.101h-2.652V1.513h7.665c3.343 0 5.073 2.066 5.073 6.076 0 3.321-1.182 5.296-3.488 5.894l3.92 8.917h-2.938l-3.631-8.738h-3.95V22.4zM161.395 22.4v-2.244h2.506V3.758h-2.506V1.513h7.665v2.245h-2.506v16.398h2.506V22.4zM176.329 22.4V1.513h11.383v2.395h-8.732v6.733h8.012v2.394h-8.012v6.97h8.732V22.4zM202.37 3.907v18.492h-2.65V3.907h-5.505V1.513h13.661v2.394zM219.934 22.4V14.2l-6.197-12.688h2.97l4.439 9.665h.316l4.438-9.665h2.911l-6.225 12.688V22.4zM244.759 22.4v-2.244h2.506V3.758h-2.506V1.513h7.665v2.245h-2.506v16.398h2.506V22.4zM264.044 9.293l-1.671-4.128h-.347l.232 4.16V22.4h-2.565V1.513h3.14l6.399 13.107 1.643 4.13h.346l-.231-4.16V1.514h2.564V22.4h-3.141zM288.568 3.907v18.492h-2.65V3.907h-5.505V1.513h13.661v2.394zM300.93 22.4V1.513h11.386v2.395h-8.734v6.733h8.012v2.394h-8.012v6.97h8.734V22.4zM319.64 22.4V1.513h2.654v18.493h7.49V22.4zM336.698 22.4V1.513h2.653v18.493h7.49V22.4zM353.345 22.4v-2.244h2.508V3.758h-2.508V1.513h7.666v2.245h-2.508v16.398h2.508V22.4zM379.692 19.438h-.347c-.373 1.885-1.988 3.322-4.87 3.322-4.293 0-7.32-3.263-7.32-10.773 0-7.54 2.91-10.833 7.753-10.833 3.544 0 5.62 1.706 6.83 4.489l-2.19 1.376c-.72-2.122-2.219-3.41-4.64-3.41-3.085 0-4.898 2.273-4.898 5.955v4.788c0 3.68 1.813 5.955 4.898 5.955 2.508 0 4.58-1.557 4.58-4.279v-2.096h-3.832v-2.364h6.399v10.831h-2.363v-2.96zM390.085 22.4V1.513h11.385v2.395h-8.732v6.733h8.012v2.394h-8.012v6.97h8.732V22.4zM413.147 9.293l-1.671-4.128h-.345l.23 4.16V22.4h-2.566V1.513h3.141l6.4 13.107 1.642 4.13h.347l-.23-4.16V1.514h2.563V22.4h-3.142zM430.291 11.957c0-7.511 2.855-10.802 7.466-10.802 3.343 0 5.244 1.496 6.427 4.518l-2.163 1.317c-.72-2.364-2.016-3.411-4.264-3.411-2.91 0-4.611 2.304-4.611 5.984v4.788c0 3.68 1.701 5.986 4.61 5.986 2.507 0 3.747-1.317 4.41-3.621l2.133 1.375c-1.181 3.024-3.2 4.668-6.542 4.668-4.611 0-7.466-3.292-7.466-10.802M451.272 22.4V1.513h11.385v2.395h-8.734v6.733h8.012v2.394h-8.012v6.97h8.734V22.4zM483.386 11.268h4.872c1.585 0 2.42-.867 2.42-2.722V6.632c0-1.856-.835-2.724-2.42-2.724h-4.872v7.36zM480.733 22.4V1.513h7.669c3.344 0 5.07 2.067 5.07 6.076 0 4.01-1.726 6.073-5.07 6.073h-5.016V22.4h-2.653zM500.514 22.4V1.513h2.653v18.493h7.49V22.4zM525.323 6.78l-.634-2.813h-.318l-.633 2.814-2.075 7.33h5.792l-2.132-7.33zm4.41 15.62l-1.673-6.073h-7.032l-1.671 6.073h-2.622l6.168-20.888h3.343l6.197 20.888h-2.71zM543.872 3.907v18.492h-2.652V3.907h-5.505V1.513h13.662v2.394zM556.234 22.4V1.513h11.094v2.395h-8.442v6.733h7.58v2.394h-7.58V22.4zM586.288 14.351V9.563c0-3.68-1.787-5.955-4.9-5.955-3.113 0-4.899 2.275-4.899 5.955v4.788c0 3.68 1.786 5.955 4.9 5.955 3.112 0 4.899-2.275 4.899-5.955m-12.652-2.394c0-7.511 2.908-10.802 7.752-10.802 4.841 0 7.754 3.29 7.754 10.802 0 7.51-2.913 10.802-7.754 10.802-4.844 0-7.752-3.292-7.752-10.802M604.268 11.299c1.585 0 2.42-.869 2.42-2.724V6.632c0-1.855-.835-2.725-2.42-2.725h-4.872v7.392h4.872zM599.396 22.4h-2.65V1.513h7.667c3.343 0 5.071 2.066 5.071 6.076 0 3.321-1.18 5.296-3.486 5.894l3.918 8.917h-2.94l-3.63-8.738h-3.95V22.4zM631.203 8.726l.23-3.561h-.347l-1.44 3.53-4.12 8.888-4.152-8.888-1.44-3.5h-.318l.2 3.53V22.4h-2.563V1.512h3.313l3.46 7.753 1.383 3.978h.23l1.384-3.978 3.458-7.753h3.286V22.4h-2.564z"/></g></svg>