<svg viewBox="0 0 72 25" xmlns="http://www.w3.org/2000/svg"><g fill="#000" fill-rule="nonzero"><path d="M13.978 4.09A5.59 5.59 0 0015.223.058a5.675 5.675 0 00-3.706 1.903 5.186 5.186 0 00-1.33 3.835 4.719 4.719 0 003.791-1.704"/><path d="M13.978 3.991A5.643 5.643 0 0015.223.043a5.675 5.675 0 00-3.706 1.903 5.186 5.186 0 00-1.33 3.835 4.655 4.655 0 003.791-1.79M15.194 6.023c-2.06-.128-3.82 1.165-4.764 1.165-.944 0-2.49-1.108-4.135-1.08a6.078 6.078 0 00-5.179 3.153C-1.116 13.068.529 18.75 2.704 21.79c1.044 1.576 2.304 3.153 3.977 3.153 1.674 0 2.19-1.008 4.107-1.008 1.917 0 2.46 1.008 4.134.98 1.674-.029 2.805-1.577 3.85-3.068a13.426 13.426 0 001.716-3.523 5.539 5.539 0 01-3.32-5.1 5.645 5.645 0 012.719-4.73 5.87 5.87 0 00-4.593-2.471M31.462 4.006V7.94h3.176v2.713h-3.176v9.233c0 1.435.63 2.103 2.046 2.103a7.76 7.76 0 001.144-.086v2.7c-.63.113-1.273.17-1.917.156-3.42 0-4.764-1.279-4.764-4.518v-9.545h-2.404V7.94h2.447V4.006h3.448zM46.27 24.716h-3.692L36.483 7.94h3.692l4.235 13.381 4.292-13.38h3.62zM71.207 14.66h-6.724V7.968h-3.205v6.69h-6.696v3.14h6.696v6.732h3.205v-6.733h6.724z"/></g></svg>
