<svg xmlns="http://www.w3.org/2000/svg" viewBox="0 0 210.29 79.24"><defs><style>.cls-1{fill:#1c1c1a;}</style></defs><g id="Layer_2" data-name="Layer 2"><g id="OL"><path class="cls-1" d="M43.87,12.7A17.79,17.79,0,0,0,48,0,17.68,17.68,0,0,0,36.26,6.06c-2.54,2.93-4.78,7.71-4.2,12.21,4.5.39,9-2.25,11.81-5.57"/><path class="cls-1" d="M47.92,19.14c-6.52-.38-12.07,3.71-15.18,3.71s-7.89-3.51-13-3.42A19.25,19.25,0,0,0,3.34,29.37c-7,12.08-1.85,30,5,39.83,3.31,4.87,7.3,10.23,12.55,10,5-.19,6.91-3.21,13-3.21s7.78,3.21,13,3.12C52.3,79,55.71,74.27,59,69.4a43.32,43.32,0,0,0,5.45-11.2c-.1-.1-10.51-4.1-10.61-16.07-.1-10,8.18-14.8,8.57-15.1-4.68-6.91-12-7.69-14.51-7.89"/><path class="cls-1" d="M89.46,9.91V23.14H100.1v8.73H89.46V63c0,4.81,2.12,7,6.77,7a34.5,34.5,0,0,0,3.81-.27v8.79a37.31,37.31,0,0,1-6.3.47c-11,0-15.29-4.23-15.29-14.92V31.87H70.3V23.14h8.15V9.91Z"/><path class="cls-1" d="M137.32,78.59H125.64L106,23.15h11.62L131.4,67.7h.27l13.78-44.55h11.41Z"/><path class="cls-1" d="M188.64,78.59H178.55V55.87H156.9v-10h21.65V23.15h10.09V45.88h21.65v10H188.64Z"/></g></g></svg>
