<svg viewBox="0 0 442 127" xmlns="http://www.w3.org/2000/svg"><g fill-rule="nonzero" fill="none"><g fill="#F8991C"><path d="M376.432 70.134l65.223-40.667v11.028l-65.223 40.84-65.309-40.84V29.467z"/><path d="M376.432 19.127c-14.733 0-27.657 7.41-35.067 18.87.603-.604.948-.948 1.551-1.38 18.352-15.25 44.803-11.803 59.192 7.41l9.564-6.117c-7.582-11.114-20.592-18.783-35.24-18.783"/><path d="M376.432 37.996c-8.013 0-15.078 4.05-19.3 9.909 3.447-2.499 7.41-3.791 11.632-3.791 7.065 0 13.355 3.619 17.577 9.736l9.133-5.687c-3.964-6.29-11.029-10.167-19.042-10.167M332.319 21.454C359.2.258 397.197 6.03 417.444 34.205l.173.173 9.908-6.118C416.67 11.632 397.8.603 376.432.603c-21.195 0-40.064 10.856-51.092 27.657 1.981-2.24 4.48-4.91 6.979-6.806"/></g><path d="M59.881 103.823V64.878h12.752v38.514c0 9.391 7.84 11.631 12.234 11.631 9.564 0 12.752-5.686 12.752-8.96V64.878h12.752v60.485h-7.41l-4.997-6.893c-3.447 4.222-9.133 8.013-17.577 8.013-12.148.086-20.506-7.927-20.506-22.66zM204.888 43.597v81.852h7.238l4.738-6.893c3.447 4.222 9.133 8.185 17.577 8.185 11.287 0 20.764-6.893 20.764-22.143V85.901c0-15.25-9.563-22.143-21.367-22.143-8.185 0-13.7 3.619-16.629 7.238V43.51l-12.32.086zm25.934 71.513c-7.84 0-13.527-3.791-13.355-12.063V86.418c0-6.462 5.17-11.459 13.528-11.459 5.945 0 11.803 4.394 11.803 11.46v16.973c0 7.496-6.03 11.718-11.976 11.718zM157.156 43.597v27.485c-2.844-3.619-8.358-7.238-16.63-7.238-11.803 0-21.367 6.893-21.367 22.144v18.696c0 15.25 9.564 22.143 20.765 22.143 8.357 0 14.13-4.05 17.576-8.185l4.739 6.893h7.237V43.683h-12.32v-.086zm-25.59 60.053V86.677c0-7.065 5.945-11.46 11.804-11.46 8.357 0 13.527 4.74 13.527 11.46v16.629c.172 8.185-5.514 12.062-13.355 12.062-5.859-.258-11.976-4.48-11.976-11.718zM263.821 43.597h12.752v81.852h-12.752z" fill="#2D2D2D"/><g transform="translate(180.074 43.08)" fill="#2D2D2D"><path d="M.948 21.885H13.7v60.484H.948z"/><circle cx="7.41" cy="7.324" r="7.237"/></g><path d="M311.726 115.11c-8.788 0-13.01-4.567-13.01-10.857v-4.997h37.738V85.73c0-13.958-9.736-22.143-24.814-22.143-15.68 0-25.762 8.788-25.762 22.488v18.696c0 13.958 10.081 22.143 25.762 22.143 11.632 0 20.248-4.738 23.694-12.751l-9.133-5.687c-3.188 4.394-7.84 6.635-14.475 6.635zM298.716 85.9c0-6.29 4.394-10.683 12.58-10.683 8.185 0 12.579 4.394 12.579 10.683v3.791h-24.987l-.172-3.79zM27.054 63.586c-12.407 0-20.42 4.997-23.435 12.407l9.908 6.117c4.222-6.72 8.185-7.065 13.527-7.065 7.84 0 11.287 3.619 11.287 9.564v4.739h-10.77c-7.84 0-27.054 2.67-27.054 19.3 0 11.803 8.96 17.748 19.817 17.748 8.616 0 14.905-4.049 18.524-8.185l4.997 6.893h7.41V83.661c-.172-11.46-8.185-20.075-24.21-20.075zm11.201 42.563c-.172.948-.172 2.068-1.379 3.619-1.895 2.67-6.892 5.342-12.579 5.342-6.117 0-10.511-2.5-10.511-7.41 0-7.238 11.631-8.788 19.04-9.133h5.515l-.086 7.582z" fill="#2D2D2D"/></g></svg>