<?xml version="1.0" encoding="UTF-8" standalone="no"?>
<svg
   xmlns:dc="http://purl.org/dc/elements/1.1/"
   xmlns:cc="http://creativecommons.org/ns#"
   xmlns:rdf="http://www.w3.org/1999/02/22-rdf-syntax-ns#"
   xmlns:svg="http://www.w3.org/2000/svg"
   xmlns="http://www.w3.org/2000/svg"
   xmlns:sodipodi="http://sodipodi.sourceforge.net/DTD/sodipodi-0.dtd"
   xmlns:inkscape="http://www.inkscape.org/namespaces/inkscape"
   version="1.1"
   id="svg2"
   xml:space="preserve"
   width="562.78668"
   height="200.25333"
   viewBox="0 0 562.78668 200.25333"
   sodipodi:docname="VarietyAU_White.eps"><metadata
     id="metadata8"><rdf:RDF><cc:Work
         rdf:about=""><dc:format>image/svg+xml</dc:format><dc:type
           rdf:resource="http://purl.org/dc/dcmitype/StillImage" /></cc:Work></rdf:RDF></metadata><defs
     id="defs6" /><sodipodi:namedview
     pagecolor="#ffffff"
     bordercolor="#666666"
     borderopacity="1"
     objecttolerance="10"
     gridtolerance="10"
     guidetolerance="10"
     inkscape:pageopacity="0"
     inkscape:pageshadow="2"
     inkscape:window-width="640"
     inkscape:window-height="480"
     id="namedview4" /><g
     id="g10"
     inkscape:groupmode="layer"
     inkscape:label="ink_ext_XXXXXX"
     transform="matrix(1.3333333,0,0,-1.3333333,0,200.25333)"><g
       id="g12"
       transform="scale(0.1)"><path
         d="m 3993.14,1100.91 53.86,-13.47 c 7,-1.73 11.99,-6.01 11.99,-11.96 0,-4.5 -2.23,-9.95 -6.01,-14.96 l -200.47,-266.301 -67.34,263.301 c -4.22,16.6 -0.3,25.21 16.46,29.92 l 47.87,13.47 5.99,26.93 h -281.28 l -5.97,-26.93 38.9,-10.47 c 16.01,-4.31 19.99,-16.6 23.93,-31.43 l 82.29,-309.682 -94.26,-317.199 c -5.77,-19.367 -14.82,-28.859 -31.42,-32.918 l -61.35,-14.941 -8.97,-26.942 h 329.16 l 8.97,26.942 -65.83,16.441 c -10.41,2.609 -16.91,12.019 -11.98,28.418 l 94.29,314.203 251.33,320.178 c 5.9,7.53 17.63,19.12 29.93,22.44 l 55.34,14.96 5.99,26.93 h -213.93 l -7.49,-26.93"
         style="fill:#ffffff;fill-opacity:1;fill-rule:nonzero;stroke:none"
         id="path14" /><path
         d="m 3559.25,952.809 -2.98,194.481 h -25.45 c -8.97,-13.47 -16.46,-19.45 -38.9,-19.45 h -402.48 c -13.35,0 -22.46,6.07 -28.43,19.45 h -23.92 l -59.85,-185.513 h 37.4 l 67.33,92.763 c 9.36,12.86 21.05,22.42 35.9,22.42 h 95.77 L 3022.13,433.641 c -6.59,-22.192 -12.19,-29.95 -37.42,-35.922 l -56.84,-13.449 -8.97,-26.942 h 321.67 l 8.97,26.942 -53.86,14.941 c -15.08,4.199 -19.85,13.551 -14.96,29.918 l 193.01,647.831 h 82.29 c 17.94,0 26.87,-5.49 32.91,-23.92 l 32.92,-100.231 h 37.4"
         style="fill:#ffffff;fill-opacity:1;fill-rule:nonzero;stroke:none"
         id="path16" /><path
         d="m 2857.55,538.359 -83.77,-104.718 c -14.81,-18.539 -25.61,-23.961 -53.87,-23.961 h -210.95 l 95.74,323.179 h 143.64 c 14.97,0 24.21,-4.574 23.94,-19.449 l -1.5,-82.277 h 37.4 l 68.84,233.398 h -37.43 l -40.38,-58.359 c -10.45,-15.078 -19.46,-22.445 -34.4,-22.445 h -145.13 l 86.77,293.233 h 152.61 c 13.41,0 24.47,-4.87 29.91,-19.44 l 35.92,-95.743 h 37.42 l -1.51,185.513 h -23.94 c -7.49,-13.47 -18.79,-19.45 -32.92,-19.45 h -417.43 l -7.47,-26.93 52.36,-16.46 c 8.53,-2.68 12.54,-13.35 8.97,-25.44 L 2354.85,432.129 c -5.72,-19.367 -14.89,-29.047 -29.93,-32.918 l -58.34,-14.941 -8.99,-26.942 h 483.26 c 26.78,0 37.42,-5.988 44.91,-20.949 h 26.91 l 85.29,201.98 h -40.41"
         style="fill:#ffffff;fill-opacity:1;fill-rule:nonzero;stroke:none"
         id="path18" /><path
         d="m 4201.1,1355.26 c -163.13,-10.35 -449,-23.05 -698.71,125.68 -177.12,-72.74 -522.59,-134.66 -915.63,-134.66 -421.43,0 -969.54,45.81 -1484.19,155.6 L 294.637,625.137 598.363,1483.93 C 448.754,1428.58 324.629,1397.51 159.988,1437.55 124.406,1347.09 86.6719,1310.38 7.38672,1263.98 c -11.80078,-6.9 -11.26172,-21.34 14.95708,-19.44 82.3282,5.99 262.2972,52.6 315.6872,80.8 L 2.89063,304.969 95.6602,316.93 1237.22,1397.15 c 270.8,-64.33 911.15,-188.52 1823.79,-188.52 365.46,0 795.9,41.37 1146.06,121.19 20.74,4.72 17.76,26.95 -5.97,25.44"
         style="fill:#ffffff;fill-opacity:1;fill-rule:nonzero;stroke:none"
         id="path20" /><path
         d="m 2229.16,384.27 -44.87,13.449 c -23.18,6.953 -19,18.82 -13.48,37.41 l 185.52,622.391 c 4.43,14.82 10.33,21.98 22.45,25.44 l 62.85,17.95 7.48,26.93 h -305.22 l -7.48,-26.93 49.38,-16.46 c 9.38,-3.11 14.31,-12.42 10.47,-25.44 L 2012.23,433.641 c -5.76,-19.539 -13.21,-28.403 -37.4,-35.922 l -43.4,-13.449 -8.97,-26.942 h 297.73 l 8.97,26.942"
         style="fill:#ffffff;fill-opacity:1;fill-rule:nonzero;stroke:none"
         id="path22" /><path
         d="m 1891.04,533.879 c -7.42,7.426 -12.32,3.012 -13.48,-3.008 -6.97,-36.93 -22.43,-80.781 -74.8,-80.781 -84.75,0 -128.66,145.742 -128.66,288.769 23.79,-7.468 60.62,-12.453 86.77,-13.476 151.07,-6.008 243.87,95.437 243.87,212.461 0,138.286 -119.46,227.396 -396.47,227.396 -327.19,0 -350.1,-125.91 -350.1,-163.08 0,-62.824 40.67,-88.254 85.28,-88.254 27.78,0 37.2,9.895 37.41,20.942 0.08,5.015 -1.22,10.269 -4.49,14.968 -8.58,12.247 -14.96,25.59 -14.96,53.834 0,49.08 41.57,80.65 127.17,98.76 L 1291.09,432.129 c -6.51,-22.109 -13.16,-30.27 -26.94,-34.41 l -44.88,-13.449 -8.98,-26.942 h 297.73 l 8.99,26.942 -56.86,14.941 c -9.9,2.621 -13.46,7.578 -13.46,16.469 0,4.441 1.03,9.871 2.99,16.449 l 198.98,670.281 c 120.47,0 201.97,-60.46 201.97,-158.59 0,-98.16 -64.56,-152.605 -133.14,-152.605 -43.57,0 -74.73,9.223 -101.73,25.445 -7.46,4.445 -11.57,2.824 -13.46,-7.484 -34.66,-187.297 -25.08,-492.246 187,-492.246 83.69,0 139.14,39.359 139.14,127.179 0,41.731 -17.31,69.676 -37.4,89.77"
         style="fill:#ffffff;fill-opacity:1;fill-rule:nonzero;stroke:none"
         id="path24" /><path
         d="M 1009.81,613.172 H 737.512 l 306.708,378.519 z m 193,579.008 -65.83,-11.98 L 498.125,429.129 C 484.875,413.551 467.563,400.43 450.242,396.23 l -49.371,-11.96 -10.473,-26.942 h 236.395 l 8.969,26.942 -47.871,14.941 c -8.399,2.621 -11.973,6.898 -11.973,13.48 0,5.047 3.797,11.321 10.484,19.438 L 689.621,557.824 H 1005.32 L 993.348,427.641 c -1.489,-16.27 -8.422,-26.09 -22.442,-29.922 l -49.375,-13.449 -8.968,-26.942 h 281.267 l 8.98,26.942 -41.89,10.468 c -18.48,4.614 -20.76,15.063 -19.45,31.41 l 61.34,766.032"
         style="fill:#ffffff;fill-opacity:1;fill-rule:nonzero;stroke:none"
         id="path26" /><path
         d="m 1980.7,80.4883 27.28,83.2107 h 1.35 l 27.01,-83.2107 z m 9.45,111.3127 -64.3,-188.56272 h 31.07 l 16.48,51.05082 h 70.51 l 17.01,-51.05082 h 31.89 l -64.3,188.56272 h -38.36"
         style="fill:#ffffff;fill-opacity:1;fill-rule:nonzero;stroke:none"
         id="path28" /><path
         d="m 2282.39,75.4492 c 0,-16.0586 -3.06,-28.1484 -9.19,-36.2578 -6.12,-8.1211 -16.57,-12.1797 -31.34,-12.1797 -14.77,0 -25.21,4.0586 -31.33,12.1797 -6.13,8.1094 -9.19,20.1992 -9.19,36.2578 V 191.801 h -29.98 V 80.4883 c 0,-13.8672 1.25,-25.8399 3.78,-35.9297 2.52,-10.0781 6.57,-18.4102 12.16,-24.9766 5.58,-6.5703 12.83,-11.48044 21.74,-14.72262 C 2217.96,1.60938 2228.9,0 2241.86,0 c 12.97,0 23.91,1.60938 32.83,4.85938 8.91,3.24218 16.16,8.15232 21.74,14.72262 5.58,6.5664 9.63,14.8985 12.16,24.9766 2.52,10.0898 3.78,22.0625 3.78,35.9297 V 191.801 h -29.98 V 75.4492"
         style="fill:#ffffff;fill-opacity:1;fill-rule:nonzero;stroke:none"
         id="path30" /><path
         d="m 2483.29,112.648 -16.75,3.512 c -10.26,1.981 -17.83,4.899 -22.69,8.77 -4.86,3.879 -7.29,9.769 -7.29,17.699 0,8.281 2.97,14.59 8.92,18.91 5.93,4.32 14.31,6.492 25.12,6.492 10.44,0 19.17,-1.902 26.2,-5.679 7.02,-3.782 12.96,-8.821 17.82,-15.122 l 21.35,18.899 c -7.38,9.359 -16.3,16.519 -26.74,21.48 -10.46,4.95 -22.79,7.43 -37.02,7.43 -10.08,0 -19.18,-1.258 -27.28,-3.789 -8.1,-2.512 -14.99,-6.078 -20.66,-10.66 -5.68,-4.602 -10.1,-10.27 -13.24,-17.031 -3.16,-6.75 -4.73,-14.27 -4.73,-22.547 0,-15.133 4.6,-27.012 13.78,-35.66 9.18,-8.6411 22.96,-14.6801 41.33,-18.102 l 16.75,-2.9687 c 10.97,-2.1719 18.64,-5.4024 22.96,-9.7227 4.32,-4.3281 6.48,-10.1797 6.48,-17.5703 0,-9.1797 -3.06,-16.4766 -9.18,-21.8672 -6.13,-5.4102 -15.22,-8.1094 -27.28,-8.1094 -10.27,0 -19.41,2.0664 -27.43,6.2071 -8.01,4.1406 -15.35,10.2695 -22.01,18.371 l -21.07,-19.7187 c 7.92,-9.7227 17.42,-17.4727 28.5,-23.24219 C 2440.2,2.87891 2453.66,0 2469.51,0 c 10.81,0 20.44,1.39063 28.91,4.17969 8.46,2.78906 15.61,6.76171 21.47,11.89061 5.85,5.1289 10.31,11.2891 13.37,18.5 3.07,7.1992 4.6,15.2188 4.6,24.0508 0,15.1172 -4.37,27.0078 -13.1,35.6484 -8.74,8.6525 -22.56,14.7615 -41.47,18.3785"
         style="fill:#ffffff;fill-opacity:1;fill-rule:nonzero;stroke:none"
         id="path32" /><path
         d="m 2619.37,164.781 h 56.19 V 3.23828 h 30.52 V 164.781 h 56.19 v 27.02 h -142.9 v -27.02"
         style="fill:#ffffff;fill-opacity:1;fill-rule:nonzero;stroke:none"
         id="path34" /><path
         d="m 2928.78,105.082 h -48.63 v 59.699 h 48.63 c 7.74,0 13.78,-2.019 18.1,-6.051 4.32,-4.039 6.48,-9.82 6.48,-17.351 v -12.91 c 0,-7.52 -2.16,-13.309 -6.48,-17.348 -4.32,-4.019 -10.36,-6.039 -18.1,-6.039 z m 47.41,-3.652 c 6.21,8.91 9.33,20.129 9.33,33.64 0,17.461 -4.87,31.282 -14.59,41.461 -9.73,10.18 -23.06,15.27 -39.99,15.27 h -81.31 V 3.23828 h 30.52 V 79.4219 h 37.56 l 37.81,-76.18362 h 34.04 l -40.78,79.41012 c 12.06,3.6016 21.2,9.8711 27.41,18.7816"
         style="fill:#ffffff;fill-opacity:1;fill-rule:nonzero;stroke:none"
         id="path36" /><path
         d="m 3126.88,80.4883 27.28,83.2107 h 1.36 l 27.01,-83.2107 z m 9.45,111.3127 -64.28,-188.56272 h 31.05 l 16.49,51.05082 h 70.5 l 17.03,-51.05082 h 31.87 L 3174.7,191.801 h -38.37"
         style="fill:#ffffff;fill-opacity:1;fill-rule:nonzero;stroke:none"
         id="path38" /><path
         d="m 3356.61,191.801 h -30.52 V 3.23828 h 107.23 V 30.25 h -76.71 v 161.551"
         style="fill:#ffffff;fill-opacity:1;fill-rule:nonzero;stroke:none"
         id="path40" /><path
         d="m 3517.4,166.941 h 25.66 V 28.0781 H 3517.4 V 3.23828 h 82.13 V 28.0781 h -25.94 V 166.941 h 25.94 v 24.86 h -82.13 v -24.86"
         style="fill:#ffffff;fill-opacity:1;fill-rule:nonzero;stroke:none"
         id="path42" /><path
         d="m 3737.37,80.4883 27.28,83.2107 h 1.36 l 27.01,-83.2107 z m 9.45,111.3127 -64.28,-188.56272 h 31.05 l 16.49,51.05082 h 70.5 l 17.03,-51.05082 h 31.87 L 3785.19,191.801 h -38.37"
         style="fill:#ffffff;fill-opacity:1;fill-rule:nonzero;stroke:none"
         id="path44" /></g></g></svg>
