<svg xmlns="http://www.w3.org/2000/svg" viewBox="0 0 408.89 77.555"><path d="M265.757 53.458c-1.5 6.8-6 10.816-12.667 10.816a12.17 12.17 0 0 1-10.884-5.846c-2.542-3.995-2.287-13.066-2.287-15.841s-.069-15.481.432-17.388a1114.03 1114.03 0 0 0-15.174-.512c-.532 2.305-.4 19.882-.4 19.882h.005c.042 8.524.66 16.205 5.487 22.37a28.64 28.64 0 0 0 22.794 10.619c16 0 26.2-10.818 28.071-24.1Z" fill="#337ace"/><path d="M242.164 19.382c.523-.887 3.3-6.1 10.973-6.1a11.908 11.908 0 0 1 11.707 7.953c5.342.615 10.824 1.387 16.225 2.358C279.086 10.587 269.296 0 253.169 0a29.549 29.549 0 0 0-15.312 3.958c-6.5 4.1-9.928 8.971-11.6 14.923 3.725.037 9.278.16 15.907.501ZM47.704 7.89C42.781 2.735 35.587.605 26.551.605H0V57.87q7.212-2.836 14.906-5.521V13.883h11.4c4.918 0 8.629 1.719 11 4.721 2.873 3.634 3.154 6.7 3.154 25.67 4.867-1.388 14.955-4.024 14.955-4.024.002-18.392.006-24.281-7.711-32.36Z"/><path d="M139.812 44.025a20.468 20.468 0 0 0 13.19-14.154 548.425 548.425 0 0 0-53.9 10.773v36.279h14.885V46.485h10.72l14.885 30.438h17.252ZM216.572 63.48h-35.238V45.097h30.1v-.108h.007V31.738h-30.107v-5.235q-7.354.66-14.888 1.565v48.855h50.235v-13.3h-.109ZM27.556 76.924c7.924 0 15.107-2.261 20.148-7.308 4.467-4.464 6.37-9.632 7.171-15.18A325.747 325.747 0 0 0 6.313 76.924ZM69.197 76.923h14.885V44.764q-7.614 2.226-14.885 4.638Z" fill="#337ace"/><path d="M69.197 36.944q7.289-1.653 14.885-3.171V.64H69.197ZM216.572.635h-50.128v21.073q7.468-.69 14.888-1.219v-6.57h35.347V.64h-.109Z"/><path d="M383.614 76.923h-11.148L347.299.64h15.412l15.328 49.7L393.36.64h15.529ZM320.038 13.919v63h-14.894v-63h-19.923V.638h54.739v13.281Z" fill="#337ace"/><path d="M113.992 13.919h14.032c6.363 0 10.824 3.7 10.824 10.862l14.858-1.784C153.241 10.697 144.122.635 129 .635H99.107v30.284q7.377-1.326 14.885-2.535Z"/></svg>
