<svg xmlns="http://www.w3.org/2000/svg" viewBox="0 0 534.81 90.7"><defs><style>.cls-1{fill-rule:evenodd}</style></defs><g id="Layer_2" data-name="Layer 2"><g id="Layer_1-2" data-name="Layer 1"><path d="M290.08 41.41a9.29 9.29 0 01-6.75 2.48h-9.15v-26.7h9.15a9.33 9.33 0 016.75 2.47c2.78 2.78 2.63 6.86 2.63 10.58s.15 8.4-2.63 11.17zm-2-19.72a6.94 6.94 0 00-5.25-2H277v21.6h5.82a7 7 0 005.25-2c1.83-1.91 1.76-5.89 1.76-9.15s.1-6.54-1.73-8.45zM314.57 41.34a9.79 9.79 0 01-13.65 0c-2.51-2.51-2.51-5.14-2.51-10.8s0-8.29 2.51-10.8a9.77 9.77 0 0113.65 0c2.51 2.51 2.51 5.13 2.51 10.8s0 8.29-2.51 10.8zm-2.21-19.92a6.53 6.53 0 00-9.23 0c-1.69 1.73-1.87 3.53-1.87 9.12s.18 7.39 1.87 9.11a6.53 6.53 0 009.23 0c1.69-1.72 1.87-3.52 1.87-9.11s-.18-7.39-1.87-9.12zM332.12 44.11a9.52 9.52 0 01-6.83-2.77c-2.51-2.51-2.51-5.14-2.51-10.8s0-8.29 2.51-10.8a9.52 9.52 0 016.83-2.74c4.8 0 8.36 2.93 9.26 8h-2.92c-.71-3.26-3-5.4-6.34-5.4a6.43 6.43 0 00-4.61 1.88c-1.69 1.72-1.88 3.56-1.88 9.15s.19 7.42 1.88 9.15a6.54 6.54 0 0011-3.53h2.85a9 9 0 01-9.24 7.86zM356.61 44.11c-5.4 0-9.3-3.71-9.3-9V17.19h2.85v17.66c0 4 2.55 6.71 6.45 6.71s6.49-2.66 6.49-6.71V17.19h2.9v17.89c0 5.32-4 9.03-9.39 9.03zM393.32 43.89V23.6L386 39.69h-2.44l-7.42-16.09v20.29h-2.85v-26.7h2.85l8.71 18.94 8.47-18.94h2.85v26.7zM403.89 43.89v-26.7h16.58v2.55h-13.73v9.41h11.71v2.55h-11.71v9.64h13.73v2.55zM443.42 43.89l-14.18-21.42v21.42h-2.85v-26.7h2.7l14.18 21.34V17.19h2.85v26.7zM461.68 19.74v24.15h-2.85V19.74h-7.72v-2.55h18.3v2.55zM487.74 43.89l-2.13-6h-11.67l-2.13 6h-3l9.82-26.7H481l9.79 26.7zm-7.91-22.62l-5 14.11h10zM510.43 43.89L504.36 32h-6.42v11.89h-2.85v-26.7h10.24c4.65 0 7.91 2.81 7.91 7.42a6.92 6.92 0 01-5.81 7.16l6.34 12.12zm-5.36-24.15h-7.13v9.78h7.13c3.11 0 5.33-1.61 5.33-4.87s-2.22-4.91-5.33-4.91zM526.93 32.86v11h-2.85v-11l-8-15.67h3.07L525.51 30l6.22-12.78h3.08zM277 51v9.82h11.7v2.55H277v11.75h-2.85v-26.7h16.58V51zM295.93 75.12v-26.7h2.85v26.7zM306.51 75.12v-26.7h2.85v24.15H323v2.55zM348 75.12V54.83l-7.31 16.09h-2.44l-7.43-16.09v20.29H328v-26.7h2.85l8.71 18.94L348 48.42h2.85v26.7zM365.46 75.34c-4 0-6.64-1-9.16-3.52l2-1.95a9.17 9.17 0 007.27 2.93c3.9 0 6.3-1.84 6.3-5a4.3 4.3 0 00-1.27-3.33c-.87-.75-1.54-1-3.49-1.28l-3.11-.45a9.72 9.72 0 01-4.92-2 6.31 6.31 0 01-2-5c0-4.54 3.26-7.54 8.55-7.54a10.7 10.7 0 017.95 2.93l-1.9 1.87a8.4 8.4 0 00-6.22-2.28c-3.57 0-5.63 2-5.63 4.95a3.86 3.86 0 001.2 3.07 7.67 7.67 0 003.6 1.47l2.93.45c2.51.37 3.75.9 4.87 1.87a6.67 6.67 0 012.25 5.29c0 4.64-3.68 7.52-9.22 7.52z"/><path class="cls-1" d="M64.2 46c0-18.17 6.72-29.62 14.74-30.81C70.93 5.28 57.52 0 45.34 0a45.23 45.23 0 00-33.75 15.06c7.93 1.58 10.63 8.22 10.63 18.47h-9.69c0-6-1.28-9.19-4.87-9.19a4 4 0 00-3.59 2.21 7.55 7.55 0 00-.32.72 7.75 7.75 0 00-.43 2.67C3.32 42.5 24 41.88 24 61.18c0 7.55-5.77 14.58-12.28 14.58a45.37 45.37 0 0066.8.55C70.85 74.37 64.2 63.4 64.2 46zm-4.31 30H49.5V50.1H38.28v25.82H27.9V16.35h10.38v24H49.5v-24h10.39v59.57z"/><path class="cls-1" d="M9 66.42c2.9 0 5-2.54 5-6.25C13.92 52.5 7.2 51 0 44.53c-.1 13.15 4 21.89 9 21.89zM74.5 45c0-10 2.93-20 8.24-20 6.35 0 7.94 15.49 7.94 20.38 0 10.74-3.38 20.45-7.94 20.45C77.29 65.8 74.5 55.59 74.5 45z"/><path d="M178.15 17.18H134.4l-4.15 34.01h-.16l-4.62-34.01h-9.52l-5.07 34.01h-.15l-3.74-34.01h-9.61l7.74 57.94h9.26l5.23-36.71h.15l5.04 36.71h9.6l6.4-48.99h8.98v48.99h10.57V26.13h9.7v48.99h10.55V17.18h-2.45zM185.82 17.18h14.07l4.73 29.7h.16l4.97-29.7h13.75v57.94h-9.44V32.64h-.16l-7.16 42.48h-5.87l-7.08-42.48h-.16v42.48h-7.81V17.18zM228.68 17.18h23.92v8.95h-13.34v14.81h9.85v9.45h-9.85v15.77h13.91v8.96h-24.49V17.18zM256.36 71.26a3.55 3.55 0 011-2.52 3.61 3.61 0 015.07 0 3.59 3.59 0 11-6.11 2.52zm.61 3a4.14 4.14 0 003 1.23 4.18 4.18 0 004.19-4.21 4.19 4.19 0 00-8.38 0 4.21 4.21 0 001.23 3z"/><path d="M259 71.12v-1.69h1.18a1 1 0 01.66.15.72.72 0 01.34.64.9.9 0 01-.26.65 1 1 0 01-.81.25zm2.81 2.53l-.92-2.2a1.2 1.2 0 00.87-1.21 1.31 1.31 0 00-.5-1 1.7 1.7 0 00-1.08-.29h-1.77v4.74h.59v-2h1.31l.88 2z"/></g></g></svg>