<svg xmlns="http://www.w3.org/2000/svg" viewBox="0 0 139.83 29.21"><defs><style>.cls-1{fill:#9bcc5b}</style></defs><g id="Layer_2" data-name="Layer 2"><g id="Layer_1-2" data-name="Layer 1"><path class="cls-1" d="M94.91 14.44h2.82l-3.26 11h-2.83zM102.87 25.44h-2.63l1.76-5.87a3 3 0 00.07-.39.54.54 0 00-.59-.59c-.75 0-1 .74-1 1l-1.74 5.86h-2.65l2.47-8.35h2.59l-.26.83a3.51 3.51 0 012.4-1 1.39 1.39 0 011.58 1.51 3.24 3.24 0 01-.16.8zM107.35 22.59a2.55 2.55 0 00-.22.82c0 .44.35.53.63.53a.94.94 0 00.48-.11 1.06 1.06 0 00.43-.84.64.64 0 00-.3-.59c-.24-.2-1.6-1.15-1.63-1.18a1.79 1.79 0 01-.89-1.54 3.9 3.9 0 01.52-1.54 3.56 3.56 0 013.11-1.23c1.74 0 3 .63 3 1.91a3.54 3.54 0 01-.17.86h-2.5A3.19 3.19 0 00110 19c0-.07 0-.47-.64-.47a.82.82 0 00-.84.81c0 .3.16.45.48.69 0 0 .8.54.89.62 1.09.73 1.63 1.1 1.58 2a3.6 3.6 0 01-.77 2 3.91 3.91 0 01-3 1 4.61 4.61 0 01-2-.33 1.58 1.58 0 01-1.14-1.66 3.7 3.7 0 01.25-1zM114.35 17.09H117l-2.49 8.35h-2.61zm3.41-2.65l-.54 1.87h-2.63l.56-1.87zM120.86 24.43a2.84 2.84 0 01-2.21 1.15 1.9 1.9 0 01-1.23-.41 1.65 1.65 0 01-.47-1.43 21.37 21.37 0 011.16-4.25c.54-1.45 1.22-2.58 2.86-2.58 1.29 0 1.77.88 1.76 1.19l.31-1h2.66l-2.5 8.44a5.69 5.69 0 01-1.33 2.77 4.28 4.28 0 01-2.91.91c-.66 0-3.24-.05-3.13-2.07a3 3 0 01.19-.85h2.63a3.32 3.32 0 00-.21.8c0 .58.55.58.72.58s.72 0 1-1.05zm1.48-5a1.84 1.84 0 000-.25c0-.54-.41-.63-.68-.63s-.82.15-1.08 1l-.88 2.94a3.69 3.69 0 00-.15.75.56.56 0 00.63.67 1.21 1.21 0 001.09-1zM130.83 14.44L129.75 18a2.91 2.91 0 012.25-1c.91 0 1.8.42 1.74 1.57a3 3 0 01-.14.72l-1.84 6.2h-2.61l1.74-5.87a1.27 1.27 0 00.07-.38.59.59 0 00-.66-.65.9.9 0 00-.9.76l-1.8 6.14h-2.63l3.26-11zM136.86 14.43h2.59l-.8 2.66h1.18l-.46 1.5h-1.16l-1.3 4.34a2.7 2.7 0 00-.09.48c0 .44.31.44 1.05.44l-.46 1.59c-2.31 0-3.52 0-3.46-1.25a3.31 3.31 0 01.19-.81l1.48-4.79h-1.06l.44-1.5h1.07z"/><path d="M93.74 8.32l-.13.6-1.23.33a1.4 1.4 0 00-.67.5l-5.59 7.12-2.1 7c-.11.36 0 .57.27.63l1.46.37-.2.6h-7.32l.2-.6 1.37-.33a.92.92 0 00.7-.74l2.09-7-1.83-6.95c-.09-.33-.17-.6-.53-.7l-.87-.23.14-.6h6.25l-.13.6-1.06.3c-.38.1-.46.29-.37.66l1.5 5.86 4.46-5.92a.63.63 0 00.13-.34c0-.13-.11-.22-.27-.26l-1.19-.3.16-.6z"/><path d="M79.16 12.21h-.83L77.6 10a.64.64 0 00-.73-.53H75l-4.25 14.39c-.11.36 0 .57.33.67l1.2.33-.2.6h-7.16l.2-.6 1.27-.3c.56-.13.68-.31.83-.8l4.26-14.31h-2.13a1 1 0 00-.8.5L67.05 12h-.83l1.33-4.12h.53a.66.66 0 00.64.43h9a.83.83 0 00.86-.43h.57zM65.89 12h-.83l-.8-2.13a.64.64 0 00-.67-.43H60.2L58.27 16h3.22a.87.87 0 00.77-.5l.9-1.29H64l-1.53 5.19h-.83v-1.83c0-.33-.2-.44-.53-.44h-3.2l-2.11 7.16h4.7a1.24 1.24 0 001.19-.53l1.87-2.33h.9l-1.9 4.49H62c-.17-.33-.4-.46-1-.46H50.21l.2-.6 1.3-.33a.93.93 0 00.67-.74L56.5 9.85c.08-.27 0-.51-.2-.57l-1.16-.36.16-.6h9.29a.79.79 0 00.73-.43h.53z"/><path d="M93.57 3.83a122.27 122.27 0 01-25.49 2.69c-20.3 0-34.54-2.76-40.56-4.19l-25.39 24-2.07.26L7.52 3.93a27.69 27.69 0 01-7 1.79c-.59 0-.6-.28-.34-.43a6.64 6.64 0 003.4-3.86c3.66.89 6.42.2 9.75-1L6.55 19.5 24.52 0a166.13 166.13 0 0033 3.46c8.75 0 16.43-1.38 20.37-3 5.55 3.3 11.91 3 15.54 2.79.57-.02.57.47.14.58z"/><path d="M54.47 8.32l-.16.6-1.4.4c-.27.07-.4.23-.5.56l-4.13 13.85c-.12.41-.21.67.3.83l1 .3-.2.6h-6.62l.2-.6 1-.3a1 1 0 00.84-.8l4.05-13.91a.43.43 0 00-.23-.57l-1.1-.36.16-.6zM44.59 12.55c0 2.6-2.06 4.85-5.42 4.72a8 8 0 01-1.93-.3c0 3.18 1 6.42 2.86 6.42 1.16 0 1.51-1 1.66-1.79 0-.14.14-.23.3-.07a2.7 2.7 0 01.83 2c0 1.95-1.23 2.83-3.09 2.83-4.72 0-4.93-6.79-4.16-10.95 0-.23.13-.27.3-.17a4.17 4.17 0 002.26.57 3.08 3.08 0 003-3.4c0-2.18-1.81-3.53-4.49-3.53l-4.47 14.91a1.48 1.48 0 00-.06.37.34.34 0 00.3.37l1.26.33-.2.6h-6.62l.2-.6 1-.3c.3-.09.45-.27.6-.77l4.39-14.91c-1.91.41-2.83 1.11-2.83 2.2a1.85 1.85 0 00.33 1.2.51.51 0 01.1.33c0 .25-.21.47-.83.47a1.79 1.79 0 01-1.9-2c0-.82.51-3.62 7.79-3.62 6.16.03 8.82 2.01 8.82 5.09zM26.75 24.86l-.2.6H20.3l.2-.6 1.09-.3a.66.66 0 00.5-.67l.27-2.89h-7L13 23.79a.78.78 0 00-.23.44c0 .14.08.24.27.3l1.06.33-.2.6H8.68l.24-.6 1.08-.27a2.15 2.15 0 001.07-.73L25.29 7.15l1.46-.26-1.36 17c0 .36 0 .59.43.7zm-3.52-13.51l-6.83 8.42h6.06z"/></g></g></svg>