<svg width="32" height="32" xmlns="http://www.w3.org/2000/svg"><g fill="none" fill-rule="evenodd"><path d="M15.75 30.75c8.284 0 15-6.716 15-15 0-8.284-6.716-15-15-15-8.284 0-15 6.716-15 15 0 8.284 6.716 15 15 15" fill="#EDE708" fill-rule="nonzero"/><circle stroke="#000" stroke-width="1.5" cx="15.75" cy="15.75" r="15"/><path fill="#FFF" fill-rule="nonzero" d="M9.86 7.62l1.84-.12 10.52.06-.72 1.16V22l-.72 1.1-1.32.48-10.92-.08-1.08-.19-.72-2.25h2.52l-.06-9.72.18-2.76z"/><path d="M21.39 10.86a9.1 9.1 0 01.2-1.86 9.12 9.12 0 011.12-1l1.38.32.3 1.3.12 1.25-3.12-.01zM8.4 23.7l-.9-.72-.2-1.44 10.22-.02 1.32 2.28z" fill="#C9D1D7" fill-rule="nonzero"/><path fill="#000" fill-rule="nonzero" d="M11.22 12.77h7.98v1.17h-7.98zm0 5.09h7.98v1.18h-7.98zm7.4-2.58h-7.4v1.17h7.98v-1.17zm-7.4-5.01h7.98v1.17h-7.98z"/><path d="M19.6 23.17A1.24 1.24 0 0118.38 22v-.58a.58.58 0 00-.59-.59H10V9.55c.01-.67.55-1.21 1.22-1.22h9.87a2.23 2.23 0 00-.26 1v12.61a1.29 1.29 0 01-1.22 1.22M7.67 22h9.54c-.002.429.112.85.33 1.22H8.89A1.24 1.24 0 017.67 22m3.54-14.85a2.4 2.4 0 00-2.39 2.4v11.23H7.08a.58.58 0 00-.58.59V22a2.4 2.4 0 002.39 2.4H19.6A2.47 2.47 0 0022 22V9.38a1.045 1.045 0 112.09 0v1.05H22a.58.58 0 00-.59.59c0 .326.264.59.59.59h2.16a1.09 1.09 0 001.08-1.08V9.37A2.23 2.23 0 0023 7.15H11.21z" fill="#000" fill-rule="nonzero"/></g></svg>