<svg width="26" height="26" xmlns="http://www.w3.org/2000/svg"><g fill="none" fill-rule="evenodd"><path d="M12.702 24.798c6.68 0 12.096-5.416 12.096-12.096C24.798 6.02 19.382.605 12.702.605 6.02.605.605 6.02.605 12.702c0 6.68 5.416 12.096 12.097 12.096" fill="#EDE708" fill-rule="nonzero"/><circle stroke="#000" cx="12.702" cy="12.702" r="12.097"/><path d="M9.968 6.452l1.064-1.371c.473-.194.958-.356 1.452-.484.218 0 1.548.29 1.548.29l.726.621.92 1.347.08 1.21.105 2.532.097 2.105-.283 1.008-.806 1.048a7.863 7.863 0 01-1.339.807L11 15.468l-.839-1.29-.645-1.936.258-5.516.194-.274z" fill="#C9D1D7" fill-rule="nonzero"/><path d="M9.968 6.452l1.064-1.371c.473-.194.958-.356 1.452-.484.218 0 1.548.29 1.548.29l.726.621.92 1.347.08 1.21.105 2.532.097 2.105-.283 1.008-.806 1.048a7.863 7.863 0 01-1.339.807L11 15.468l-.839-1.29-.645-1.936.258-5.516.194-.274z" stroke="#231F20" stroke-width=".25"/><path d="M17.226 13.153a4.573 4.573 0 01-9.049 0H6.976a6.113 6.113 0 005.193 4.992v2.202H9.677v1.105h6.017v-1.097h-2.46v-2.202a5.992 5.992 0 005.08-4.992h-1.088" fill="#000" fill-rule="nonzero"/><path d="M12.702 5.048a2.516 2.516 0 012.475 2.557h-1.242v.726h1.242v1.096h-1.242v.734h1.242v1.13h-1.242v.733h1.242v.29a2.565 2.565 0 01-2.346 2.621 2.492 2.492 0 01-2.597-2.548v-.363h1.242v-.734h-1.25v-1.129h1.242v-.734h-1.242V8.331h1.242v-.726h-1.242a2.524 2.524 0 012.476-2.557m.137 10.944a3.653 3.653 0 003.395-3.734V7.694a3.653 3.653 0 00-3.395-3.734 3.58 3.58 0 00-3.67 3.5v4.887a3.589 3.589 0 003.533 3.645h.137" fill="#000" fill-rule="nonzero"/></g></svg>